 <svg  version="1.0" xmlns="http://www.w3.org/2000/svg"  width="300.000000pt" height="170.000000pt" viewBox="0 0 300.000000 170.000000"  preserveAspectRatio="xMidYMid meet">  <g transform="translate(0.000000,170.000000) scale(0.100000,-0.100000)" fill="#000000" stroke="none"> <path d="M701 1619 c-27 -10 -91 -69 -91 -83 0 -5 20 10 45 33 24 22 53 41 64 41 22 0 32 -30 25 -74 -4 -24 -3 -28 5 -16 17 23 13 75 -6 92 -13 12 -24 13 -42 7z"/> <path d="M48 1603 c-9 -10 -18 -25 -20 -33 -8 -24 30 -100 72 -146 22 -24 46 -58 54 -78 8 -19 26 -42 40 -51 14 -9 28 -25 31 -36 4 -10 11 -19 17 -19 6 0 20 -8 31 -17 39 -35 -3 28 -56 84 -27 29 -45 53 -39 53 16 0 -21 59 -58 95 -28 27 -70 103 -70 126 0 5 7 9 16 9 18 0 133 -56 155 -76 8 -8 21 -14 27 -14 12 0 57 -52 129 -149 27 -35 59 -71 71 -79 23 -15 24 -15 20 9 -1 13 -13 32 -26 42 -12 11 -40 44 -61 75 -59 87 -144 157 -244 202 -52 24 -70 25 -89 3z"/> <path d="M1221 1547 c-6 -8 -44 -30 -83 -50 -40 -21 -82 -44 -92 -52 -29 -22 -10 -31 27 -12 18 9 48 18 67 18 62 3 163 30 175 46 9 11 14 13 19 5 4 -7 28 -12 52 -12 35 0 50 5 65 23 23 28 24 41 2 32 -10 -4 -52 -11 -93 -16 -41 -4 -86 -11 -99 -15 -22 -6 -23 -5 -19 19 6 29 -3 35 -21 14z"/> <path d="M1490 1530 c0 -6 24 -10 53 -9 41 1 47 3 27 9 -36 12 -80 12 -80 0z"/> <path d="M1048 1523 c-25 -2 -52 -11 -59 -19 -10 -13 -8 -13 14 -5 17 7 28 7 32 1 6 -9 65 14 65 25 0 3 -1 4 -2 3 -2 -1 -24 -3 -50 -5z"/> <path d="M191 1463 c20 -21 48 -55 64 -75 31 -43 64 -54 44 -16 -20 37 -111 128 -127 128 -11 0 -5 -12 19 -37z"/> <path d="M588 1458 c-3 -18 -1 -47 4 -66 5 -18 6 -46 3 -62 -6 -28 12 -54 19 -28 16 59 25 133 16 142 -6 6 -10 18 -10 28 0 32 -27 20 -32 -14z"/> <path d="M1567 1483 c-4 -3 26 -19 65 -35 40 -16 106 -45 146 -65 40 -19 76 -33 79 -29 3 3 15 -1 27 -9 11 -8 30 -15 41 -15 20 1 20 1 1 15 -11 8 -28 15 -38 15 -10 0 -18 5 -18 10 0 6 -7 10 -16 10 -39 0 -94 24 -94 41 0 13 -12 19 -51 24 -38 5 -53 12 -56 26 -4 14 -14 19 -42 19 -21 0 -41 -3 -44 -7z"/> <path d="M940 1404 c-35 -36 -84 -76 -110 -89 -25 -13 -62 -41 -81 -63 -50 -57 -109 -141 -109 -155 0 -7 4 -6 10 3 5 8 14 16 20 16 5 1 14 2 19 3 4 0 29 37 55 81 27 48 57 85 71 92 35 16 45 1 15 -23 -17 -14 -21 -22 -12 -26 9 -3 4 -20 -19 -59 -17 -30 -26 -54 -20 -54 6 0 11 5 11 10 0 6 27 45 61 88 33 42 56 78 50 80 -6 2 -11 8 -11 14 0 6 7 7 17 4 10 -4 25 2 40 15 27 26 29 39 6 39 -14 0 -14 2 2 20 10 11 24 20 30 20 11 0 29 39 22 47 -2 1 -31 -27 -67 -63z"/> <path d="M1425 1440 c-3 -5 -25 -7 -50 -3 -28 3 -50 1 -59 -6 -8 -7 -25 -9 -39 -6 -30 8 -137 -12 -137 -25 0 -5 15 -20 33 -34 34 -26 53 -34 43 -18 -3 5 4 16 15 25 16 14 24 15 40 6 12 -6 30 -9 40 -6 10 3 17 2 14 -2 -2 -5 7 -14 21 -21 13 -8 22 -20 20 -27 -6 -16 -1 -16 25 -3 25 14 24 28 -3 32 -15 2 -23 10 -23 23 0 15 8 21 33 23 33 3 40 -6 21 -25 -9 -9 -5 -14 17 -18 16 -4 37 -9 47 -12 25 -7 21 12 -8 31 -23 15 -27 45 -4 31 5 -4 9 -1 9 6 0 7 11 2 24 -10 14 -13 30 -21 36 -19 16 5 -48 53 -82 61 -15 4 -29 3 -33 -3z"/> <path d="M1034 1374 c-7 -3 -10 -13 -7 -23 3 -11 -5 -27 -18 -40 -29 -27 -17 -27 30 -1 33 19 40 19 81 7 l45 -13 -30 -17 c-16 -9 -25 -16 -20 -16 6 0 21 6 34 13 25 14 61 11 61 -6 0 -8 33 -5 98 8 47 9 9 23 -62 22 -57 -1 -78 3 -91 16 -9 9 -23 16 -30 16 -8 0 -19 9 -25 20 -10 19 -39 25 -66 14z"/> <path d="M1608 1344 c-4 -4 -24 -8 -45 -10 -52 -5 -119 -23 -173 -46 -68 -29 -75 -34 -75 -49 0 -11 -23 -14 -110 -14 -61 0 -114 2 -118 3 -4 2 -2 11 5 19 9 11 2 10 -27 -5 -58 -30 -102 -62 -87 -62 7 0 12 -10 10 -22 -2 -23 42 -127 54 -128 3 0 11 12 16 28 9 27 9 27 22 -18 8 -25 18 -51 24 -59 6 -8 10 -22 8 -32 -2 -9 1 -20 7 -23 29 -18 -26 211 -56 236 -14 11 -15 8 -9 -20 10 -45 -15 -43 -37 3 -16 35 -16 35 8 41 14 3 25 11 25 16 0 7 44 9 132 4 130 -6 132 -5 158 18 38 37 224 95 218 69 0 -5 2 -15 6 -24 5 -12 19 -15 59 -13 59 4 97 -11 97 -37 0 -20 -28 -39 -59 -39 -11 0 -22 -4 -26 -9 -3 -6 4 -8 17 -5 90 18 242 8 323 -22 13 -4 16 -4 10 3 -11 10 -162 67 -207 78 -17 5 -25 12 -21 21 9 25 -71 53 -134 47 -35 -4 -53 -2 -53 5 0 11 25 18 122 32 l53 8 -45 1 c-25 1 -54 4 -65 7 -11 3 -24 2 -27 -2z"/> <path d="M0 1330 c0 -14 88 -84 115 -92 35 -9 31 2 -12 37 -74 60 -103 76 -103 55z"/> <path d="M260 1325 c0 -7 8 -18 17 -24 10 -5 15 -13 10 -17 -4 -4 4 -22 18 -40 14 -18 25 -41 25 -51 0 -10 18 -46 41 -81 22 -34 42 -75 43 -90 1 -15 8 -46 15 -69 11 -32 18 -41 33 -38 10 2 21 -1 22 -8 31 -109 41 -137 49 -137 5 0 6 7 3 15 -6 17 -21 100 -35 200 l-9 60 -1 -47 c0 -27 -4 -48 -9 -48 -13 0 -55 149 -47 168 6 14 10 10 21 -18 l14 -35 -4 35 c-3 19 -2 29 1 23 2 -7 9 -13 14 -13 14 0 10 26 -6 40 -8 7 -15 25 -15 40 0 20 -6 29 -22 34 -34 9 -38 8 -38 -9 0 -8 7 -15 15 -15 19 0 21 -70 3 -88 -22 -22 -28 -13 -28 39 0 44 -2 50 -15 39 -12 -10 -16 -8 -25 15 -14 37 -13 48 5 41 33 -12 10 23 -43 67 -38 30 -52 34 -52 12z"/> <path d="M635 1253 c-26 -47 -56 -99 -67 -114 -18 -25 -20 -37 -15 -106 3 -43 13 -96 21 -118 15 -40 16 -39 10 45 -3 47 -8 91 -10 99 -7 23 17 94 48 140 28 40 74 141 64 141 -2 0 -25 -39 -51 -87z"/> <path d="M1922 1284 c9 -9 21 -13 27 -10 20 13 11 26 -16 26 -25 0 -26 -1 -11 -16z"/> <path d="M489 1288 c-6 -14 -6 -64 0 -73 5 -5 11 -22 15 -37 8 -34 26 -37 26 -4 0 27 39 81 40 56 2 -21 18 19 19 45 1 16 -4 14 -29 -13 -33 -36 -50 -35 -50 4 0 13 -4 24 -10 24 -5 0 -11 -1 -11 -2z"/> <path d="M1495 1270 c-3 -5 -1 -10 5 -10 7 0 20 -10 31 -22 10 -13 18 -18 18 -13 0 11 -34 55 -43 55 -2 0 -8 -4 -11 -10z"/> <path d="M1981 1271 c-11 -7 -9 -10 9 -16 13 -4 34 -19 47 -33 13 -14 26 -22 30 -18 5 4 -62 77 -71 76 0 0 -7 -4 -15 -9z"/> <path d="M55 1180 c28 -29 42 -37 51 -29 9 7 28 -10 71 -63 32 -40 73 -96 91 -124 34 -54 69 -91 77 -82 8 7 -36 102 -50 110 -12 7 -55 63 -112 146 -13 18 -23 39 -23 46 0 8 -10 11 -28 8 -15 -2 -47 3 -71 12 l-44 15 38 -39z"/> <path d="M1355 1203 l-30 -17 40 -9 c120 -26 202 -62 316 -138 l118 -78 42 14 c53 19 162 19 225 0 58 -18 57 -17 49 -6 -12 20 -144 41 -219 36 -63 -5 -83 -2 -121 15 -25 11 -45 27 -45 36 0 8 -4 12 -10 9 -5 -3 -10 -2 -10 3 0 5 -11 14 -25 20 -17 8 -23 16 -18 28 5 14 1 16 -28 12 -24 -4 -43 1 -69 18 -24 16 -185 80 -185 74 0 -1 -13 -8 -30 -17z"/> <path d="M203 1190 c23 -46 93 -141 108 -145 35 -11 33 3 -5 38 -34 32 -49 56 -25 41 13 -8 11 -1 -16 42 -13 22 -26 31 -42 30 -13 0 -22 -3 -20 -6z"/> <path d="M0 1165 c0 -32 24 -75 41 -75 13 0 3 33 -22 74 l-19 31 0 -30z"/> <path d="M942 1173 c-6 -2 -10 -9 -6 -14 3 -5 1 -9 -5 -9 -17 0 -23 -61 -11 -106 16 -56 35 -58 27 -4 -6 45 4 51 29 18 14 -20 15 -20 9 -3 -21 57 -34 108 -29 116 6 10 5 10 -14 2z"/> <path d="M2045 1160 c10 -11 27 -22 39 -26 11 -4 38 -22 59 -40 48 -44 65 -44 24 0 -38 41 -104 86 -125 86 -13 0 -12 -3 3 -20z"/> <path d="M1100 1165 c0 -3 6 -16 14 -28 7 -12 19 -55 25 -95 6 -40 18 -87 25 -105 l15 -32 -5 35 -4 35 14 -40 c13 -39 13 -39 20 -12 4 16 0 41 -9 63 -8 20 -15 41 -15 47 0 16 35 -20 65 -68 15 -24 38 -49 51 -56 13 -7 24 -21 24 -31 0 -10 5 -18 10 -18 6 0 10 -11 10 -24 0 -13 9 -35 20 -49 11 -14 20 -32 20 -39 0 -12 14 -23 63 -46 4 -2 7 4 7 13 0 11 -5 15 -15 11 -10 -3 -18 1 -22 12 -3 9 -14 26 -23 37 -16 18 -40 77 -40 96 0 5 8 9 17 9 15 0 14 2 -3 19 -10 10 -22 18 -25 17 -8 -1 -110 122 -151 183 -17 25 -38 52 -46 59 -16 12 -42 17 -42 7z"/> <path d="M1240 1126 c0 -18 7 -39 16 -47 8 -7 22 -26 31 -43 9 -17 22 -38 29 -46 35 -38 68 -83 55 -76 -10 6 -12 5 -7 -2 4 -7 14 -12 22 -12 10 0 13 -6 9 -19 -3 -10 0 -30 6 -45 9 -20 15 -23 26 -15 17 15 17 34 -2 49 -17 14 -20 30 -6 30 10 0 24 -13 51 -46 15 -19 18 -81 6 -128 -3 -13 2 -39 13 -61 18 -37 18 -40 0 -79 -13 -29 -24 -40 -36 -38 -19 3 -83 70 -83 87 0 6 -11 15 -24 21 -27 13 -29 4 -6 -36 7 -14 19 -36 27 -50 7 -14 13 -19 13 -11 0 7 -9 29 -21 47 -11 19 -19 34 -17 34 9 0 51 -64 53 -79 1 -9 4 -23 7 -31 4 -8 9 -22 11 -30 3 -8 6 -2 6 13 1 26 3 28 30 22 22 -5 35 -1 50 14 24 24 38 107 22 133 -6 10 -11 28 -12 40 0 22 -1 22 -9 3 -5 -13 -7 1 -5 40 2 33 4 62 5 65 1 3 2 7 2 10 0 3 6 11 14 18 17 16 18 2 2 -33 -10 -21 -9 -28 5 -40 9 -8 12 -10 7 -3 -6 7 -10 18 -10 25 0 31 19 8 60 -73 45 -91 180 -281 205 -290 8 -4 23 -3 33 1 16 8 16 8 0 12 -10 3 -18 10 -18 17 0 11 -14 44 -66 151 -22 47 -28 93 -14 110 7 8 9 15 4 15 -11 0 18 20 30 20 4 0 6 -6 3 -14 -3 -8 1 -20 9 -27 13 -10 17 -10 26 2 7 11 9 8 5 -9 -3 -13 1 -39 9 -58 8 -19 17 -69 21 -111 7 -87 17 -123 34 -123 8 0 8 4 1 13 -6 6 -15 46 -21 87 -9 72 -3 125 24 193 5 11 2 17 -7 17 -7 0 -28 13 -45 29 -18 16 -34 26 -37 23 -3 -3 -6 -1 -6 4 0 5 -19 20 -43 33 -51 28 -72 60 -105 159 -28 89 -40 89 -18 0 8 -35 16 -99 18 -143 1 -57 6 -83 18 -95 16 -16 31 -43 36 -68 1 -7 12 -28 23 -48 25 -41 25 -44 8 -44 -33 0 -207 359 -207 425 0 8 -4 15 -10 15 -5 0 -17 16 -26 35 -9 19 -34 49 -55 65 l-38 31 23 -73 c13 -40 35 -103 48 -140 l25 -66 -26 16 c-34 22 -41 32 -41 62 0 14 -6 34 -14 45 -7 11 -21 46 -30 77 -13 47 -21 59 -41 63 -14 3 -36 7 -50 10 -23 5 -25 2 -25 -29z m457 -383 c-20 -21 -26 -15 -37 33 -6 25 -5 43 2 51 9 11 15 5 31 -27 20 -38 20 -41 4 -57z"/> <path d="M862 1125 c-14 -30 -16 -95 -3 -95 5 0 12 -12 15 -27 14 -58 89 -233 100 -233 6 0 23 7 39 14 15 8 27 10 27 5 0 -5 -6 -12 -14 -15 -8 -3 -12 -14 -9 -27 4 -22 4 -22 -11 -3 -9 11 -16 16 -16 12 0 -14 54 -126 60 -126 4 0 11 16 17 35 6 19 7 33 3 30 -15 -9 -30 31 -27 72 1 29 -1 37 -13 34 -58 -15 -55 -18 -88 76 -43 123 -65 212 -58 245 7 35 -7 36 -22 3z"/> <path d="M1706 1141 c-8 -12 30 -21 96 -21 69 0 88 -7 88 -30 0 -10 6 -21 13 -23 8 -4 9 -6 0 -6 -6 -1 -18 6 -27 14 -17 17 -30 20 -21 5 8 -13 -1 -13 -26 1 -22 11 -79 3 -79 -12 0 -5 23 -9 50 -8 28 1 56 -3 62 -9 17 -17 58 -15 58 3 0 17 40 12 75 -11 11 -7 43 -15 70 -19 46 -6 49 -5 31 9 -11 9 -25 16 -31 16 -7 0 -25 11 -41 25 -39 34 -82 53 -145 65 -64 12 -166 13 -173 1z"/> <path d="M110 1115 c0 -25 44 -93 73 -112 53 -36 55 -27 6 25 -26 26 -53 58 -63 72 -9 13 -16 20 -16 15z"/> <path d="M749 1077 c-38 -35 -44 -45 -35 -60 8 -14 8 -20 -4 -27 -12 -7 -15 -28 -13 -92 1 -46 7 -96 12 -113 11 -31 10 -3 -6 121 -3 29 0 45 11 57 9 8 16 22 16 29 0 8 7 23 15 34 12 16 14 16 15 3 0 -9 7 -22 15 -29 9 -7 14 -19 11 -25 -2 -7 2 -25 10 -41 8 -15 14 -35 13 -43 -3 -30 1 -42 11 -36 6 3 10 24 10 46 0 29 4 38 13 34 6 -4 4 0 -6 8 -10 8 -20 28 -22 43 -2 16 -9 46 -14 68 -5 21 -7 45 -4 52 8 21 3 17 -48 -29z"/> <path d="M1531 1082 c-20 -38 -13 -96 14 -122 21 -20 25 -21 25 -6 0 9 -4 15 -9 11 -20 -12 -32 33 -21 81 12 51 8 67 -9 36z"/> <path d="M0 1040 c0 -5 6 -10 14 -10 13 0 155 -69 166 -80 13 -14 60 -40 60 -33 0 17 -186 133 -212 133 -16 0 -28 -4 -28 -10z"/> <path d="M2160 1022 c0 -19 18 -42 33 -42 5 0 3 7 -4 17 -11 13 -11 17 -1 20 16 6 6 23 -14 23 -8 0 -14 -8 -14 -18z"/> <path d="M2246 960 c37 -52 54 -68 54 -52 0 14 -70 102 -80 102 -6 0 6 -22 26 -50z"/> <path d="M638 965 c-10 -19 -24 -64 -33 -99 -13 -58 -13 -70 1 -108 8 -23 21 -46 29 -51 8 -4 15 -14 15 -21 0 -7 11 -23 25 -36 l25 -23 0 45 c0 26 3 55 6 65 5 14 2 13 -10 -4 -14 -19 -20 -21 -37 -10 -32 20 -43 79 -25 148 8 33 22 74 30 91 19 37 19 38 4 38 -7 0 -21 -16 -30 -35z"/> <path d="M1728 960 c-12 -38 -10 -66 3 -53 6 6 9 26 7 44 -3 32 -3 33 -10 9z"/> <path d="M1822 952 c2 -5 28 -30 58 -57 93 -81 163 -151 204 -203 34 -43 42 -49 59 -40 42 22 134 -22 176 -85 10 -16 22 -29 27 -30 5 -1 8 -11 7 -22 -2 -11 0 -14 3 -8 4 8 15 11 31 7 22 -6 24 -5 15 12 -14 26 -58 66 -111 100 -61 40 -61 40 -106 53 -68 21 -95 33 -95 44 0 5 -8 16 -17 23 -17 12 -17 13 -1 14 10 0 41 -9 69 -20 28 -12 53 -19 56 -17 6 7 -93 47 -115 47 -10 0 -50 27 -87 60 -37 33 -72 60 -76 60 -5 0 -9 7 -9 16 0 13 7 15 43 9 23 -4 49 -13 57 -19 30 -24 92 -56 100 -51 4 3 13 -2 20 -10 18 -22 29 -18 22 7 -3 11 -1 19 4 16 5 -2 26 -12 46 -22 21 -9 42 -25 48 -36 6 -11 16 -17 23 -14 14 5 50 -28 45 -42 -2 -5 14 -31 35 -58 20 -27 37 -44 37 -38 0 11 -39 82 -50 92 -3 3 -10 15 -15 26 -6 12 -47 54 -93 93 -103 88 -142 101 -300 101 -62 0 -112 -4 -110 -8z"/> <path d="M35 899 c-19 -17 -35 -36 -35 -42 0 -6 15 3 33 21 18 18 43 32 54 32 12 0 25 5 28 10 15 24 -47 7 -80 -21z"/> <path d="M869 899 c0 -28 -2 -30 -9 -14 -5 13 -8 -3 -7 -47 1 -37 5 -68 10 -68 4 0 7 8 8 18 0 11 2 12 6 4 3 -7 -1 -19 -7 -28 -7 -8 -10 -17 -7 -21 4 -3 1 -13 -6 -21 -9 -13 -9 -14 1 -8 6 4 12 2 12 -3 0 -6 4 -11 8 -11 10 0 10 216 0 226 -5 4 -8 -8 -9 -27z"/> <path d="M175 888 c-4 -9 -4 -22 0 -27 3 -6 1 -20 -5 -31 -13 -24 -3 -70 15 -70 20 0 27 75 11 112 -11 27 -15 30 -21 16z"/> <path d="M1251 828 c1 -29 0 -58 -2 -64 -2 -6 7 -21 21 -32 14 -11 22 -24 17 -28 -4 -4 -23 8 -43 27 -35 33 -35 33 -23 7 7 -16 16 -28 20 -28 12 0 22 -61 11 -72 -12 -12 -52 24 -53 50 -2 37 -6 62 -12 68 -3 3 -3 -25 0 -63 5 -66 20 -103 30 -75 4 10 10 10 30 -3 33 -22 65 -55 54 -55 -6 0 -13 5 -16 10 -10 16 -25 12 -19 -5 4 -8 1 -15 -5 -15 -6 0 -11 -7 -11 -15 0 -34 -29 -13 -39 28 -9 36 -10 37 -7 7 2 -19 9 -55 15 -79 7 -24 9 -46 6 -49 -2 -3 -8 9 -11 27 -4 17 -11 34 -17 38 -6 4 -8 -2 -5 -15 10 -36 -2 -25 -23 23 -22 49 -34 61 -19 18 10 -27 9 -27 -6 -8 -16 20 -16 19 -9 -5 9 -28 94 -120 112 -120 9 0 11 12 7 44 -6 41 7 86 24 86 5 0 49 -40 98 -90 61 -61 98 -90 113 -90 18 0 22 4 16 18 -24 57 -28 72 -23 78 12 12 46 -7 109 -62 112 -98 136 -107 100 -35 -24 46 -27 71 -8 71 43 -1 107 -38 175 -101 41 -38 84 -75 95 -81 18 -9 19 -8 13 13 -16 51 -18 69 -8 69 29 0 72 -26 119 -72 51 -51 75 -59 54 -20 -6 11 -8 22 -5 25 6 6 18 1 169 -68 74 -34 80 -35 92 -19 7 10 12 38 11 63 l-2 46 -3 -47 c-5 -56 -23 -63 -48 -20 -14 23 -16 24 -12 4 4 -15 1 -20 -6 -15 -25 14 -72 49 -92 66 -17 16 -20 16 -23 3 -3 -14 -6 -14 -26 -1 -16 11 -30 12 -54 6 -19 -6 -34 -6 -37 0 -4 5 2 9 12 10 10 0 2 5 -17 11 -34 10 -95 54 -95 69 0 4 -4 11 -9 16 -5 5 -6 2 -1 -6 10 -18 -23 -7 -94 30 -59 32 -102 39 -82 15 7 -8 20 -12 30 -9 10 3 36 -6 57 -19 22 -14 47 -27 57 -31 9 -3 17 -11 17 -17 0 -6 -5 -8 -10 -5 -6 4 -17 1 -25 -5 -18 -15 -60 9 -70 40 -6 18 -12 22 -31 19 -3 -1 -19 12 -35 27 -26 25 -41 24 -21 -2 4 -5 -1 -1 -10 9 -16 17 -18 17 -18 3 0 -14 -7 -12 -40 9 -22 14 -45 25 -52 25 -9 0 -8 -3 2 -10 11 -7 12 -12 3 -21 -13 -13 -33 -4 -33 17 0 8 -5 14 -10 14 -6 0 -1 -18 10 -40 l21 -40 -61 44 c-51 38 -65 44 -97 40 -46 -6 -46 -5 -33 -39 14 -36 4 -45 -11 -11 -7 15 -18 25 -25 22 -6 -2 -17 7 -23 20 -6 14 -15 23 -20 20 -4 -3 -19 6 -31 19 -13 14 -21 25 -17 25 3 0 15 -10 27 -22 11 -12 20 -17 20 -12 0 6 -12 21 -26 35 -45 42 -64 83 -63 133 2 40 4 44 18 33 14 -10 14 -10 3 5 -8 9 -11 22 -7 28 3 5 2 10 -2 10 -8 0 -33 91 -33 122 0 9 -5 20 -11 23 -7 5 -9 -11 -8 -47z"/> <path d="M810 816 c0 -8 -6 -21 -13 -28 -24 -24 -37 -56 -39 -95 l-1 -38 -6 45 c-7 49 -24 57 -29 14 -4 -29 24 -114 37 -114 9 0 21 74 21 126 0 19 4 34 10 34 11 0 24 -65 16 -79 -10 -16 5 -61 20 -61 8 0 14 7 14 15 0 8 -4 15 -9 15 -17 0 -18 84 -1 98 13 10 12 11 -4 6 -17 -6 -18 -3 -11 34 4 23 4 42 1 42 -3 0 -6 -6 -6 -14z"/> <path d="M931 804 c-1 -6 4 -35 9 -65 11 -57 3 -84 -43 -149 -19 -27 -25 -29 -39 -8 -5 8 -6 -9 -2 -42 4 -30 8 -57 10 -59 7 -9 24 13 34 47 18 56 41 102 51 102 13 0 55 -89 63 -131 8 -44 44 -95 58 -81 5 5 16 36 25 68 8 32 20 62 26 66 6 4 8 11 3 15 -5 4 -11 3 -13 -3 -2 -6 -10 -20 -18 -30 -13 -16 -16 -17 -25 -4 -12 19 -13 80 -1 80 5 0 16 -7 24 -15 13 -12 17 -12 26 -1 9 11 4 15 -25 19 -21 4 -40 4 -44 2 -4 -3 -2 -37 6 -77 8 -39 12 -74 9 -76 -3 -3 -8 9 -11 26 -4 18 -11 29 -17 25 -6 -4 -8 6 -4 28 4 19 2 50 -3 69 l-10 35 4 -42 c2 -24 0 -43 -5 -43 -5 0 -9 6 -9 13 0 8 -13 32 -28 53 -21 29 -26 45 -21 64 10 34 11 65 2 56 -4 -4 -13 10 -19 31 -7 21 -12 33 -13 27z"/> <path d="M1113 768 c-4 -7 -14 -24 -21 -37 -10 -19 -10 -22 1 -13 10 8 16 5 27 -11 8 -12 13 -29 11 -37 -2 -8 0 -12 3 -9 11 11 16 50 5 44 -9 -6 -14 21 -11 58 2 20 -4 22 -15 5z"/> <path d="M241 753 c35 -47 75 -83 91 -83 10 0 18 4 18 8 0 11 -80 77 -104 85 -17 7 -17 5 -5 -10z"/> <path d="M183 735 c-3 -9 -3 -33 1 -54 3 -21 1 -53 -5 -71 -13 -35 -50 -80 -68 -80 -6 0 -11 -5 -11 -10 0 -13 30 2 54 26 12 12 16 12 16 2 1 -7 10 3 20 22 15 27 18 46 14 85 -5 38 -3 47 6 39 6 -6 12 -18 14 -26 1 -8 9 -26 18 -40 15 -23 15 -28 2 -49 l-16 -24 20 23 c14 16 22 18 26 10 3 -7 3 -2 0 12 -3 14 -14 36 -23 50 -10 14 -24 42 -31 63 -15 39 -27 47 -37 22z"/> <path d="M3 684 c1 -24 2 -44 4 -44 1 0 19 11 39 25 25 17 51 25 83 26 38 0 42 2 23 9 -12 5 -45 8 -72 5 -28 -2 -50 0 -50 5 0 4 -6 10 -14 13 -12 5 -14 -4 -13 -39z"/> <path d="M1877 723 c-13 -12 -6 -48 13 -73 11 -14 20 -31 20 -37 0 -7 9 -13 21 -13 13 0 18 -4 13 -12 -11 -18 -16 -78 -6 -78 4 0 13 5 20 12 9 9 12 7 12 -12 1 -37 11 -104 17 -110 3 -3 3 45 1 106 l-4 111 -45 56 c-45 57 -51 62 -62 50z"/> <path d="M1994 704 c-4 -14 -3 -46 1 -72 4 -26 10 -92 14 -147 4 -55 8 -88 9 -73 1 15 12 34 24 42 12 9 18 16 13 16 -11 0 16 20 27 20 3 0 4 -22 1 -49 -4 -35 0 -60 11 -82 9 -18 16 -38 16 -46 0 -8 4 -11 10 -8 6 4 4 18 -6 37 -13 26 -15 48 -10 116 5 62 4 82 -4 77 -7 -4 -30 11 -56 36 -39 39 -44 48 -44 89 0 25 5 51 12 58 9 9 9 12 0 12 -6 0 -15 -12 -18 -26z"/> <path d="M511 706 c-10 -12 -10 -23 -1 -53 19 -57 30 -63 32 -15 1 23 2 50 2 59 1 22 -18 27 -33 9z"/> <path d="M2306 669 c16 -17 38 -35 49 -41 11 -6 2 8 -20 31 -21 22 -43 41 -49 41 -5 0 3 -14 20 -31z"/> <path d="M556 610 c-4 -27 -2 -47 5 -57 14 -16 61 -111 65 -130 3 -16 76 -94 82 -88 2 2 -10 25 -27 50 -44 66 -61 100 -91 189 l-27 79 -7 -43z"/> <path d="M648 645 c-18 -19 49 -162 93 -200 13 -11 21 -16 16 -11 -4 5 0 18 10 28 15 17 15 18 -4 18 -20 0 -46 38 -88 128 -11 24 -23 41 -27 37z"/> <path d="M2130 636 c0 -2 16 -30 35 -62 19 -32 35 -63 35 -69 0 -21 60 -106 71 -100 7 5 6 12 -4 23 -7 10 -23 36 -34 60 -18 37 -19 42 -4 42 14 1 14 2 -1 11 -10 5 -18 16 -18 23 0 7 -11 18 -25 24 -14 6 -25 16 -25 22 0 14 10 12 45 -11 17 -11 46 -27 66 -36 23 -11 41 -29 47 -47 7 -16 14 -27 18 -24 3 3 -4 24 -15 47 -25 48 -108 101 -158 101 -18 0 -33 -2 -33 -4z"/> <path d="M45 520 c-22 -26 -41 -54 -44 -62 -2 -7 7 1 19 17 13 17 37 45 54 63 16 17 26 32 20 32 -5 -1 -27 -23 -49 -50z"/> <path d="M229 520 c-2 -16 -5 -22 -23 -63 l-17 -39 -22 26 c-29 33 -39 33 -83 -6 -48 -42 -84 -101 -84 -135 0 -24 4 -19 26 27 26 57 89 130 111 130 8 0 13 -14 13 -40 0 -22 3 -40 6 -40 18 0 47 26 74 65 25 37 29 48 20 65 -12 22 -19 26 -21 10z"/> <path d="M1430 511 c0 -19 12 -41 23 -41 8 0 7 4 -1 12 -9 9 -7 14 6 24 16 12 15 13 -5 14 -13 0 -23 -4 -23 -9z"/> <path d="M1537 484 c26 -20 54 -42 62 -48 12 -9 13 -8 5 6 -9 16 -97 78 -110 78 -3 0 16 -16 43 -36z"/> <path d="M2245 500 c3 -5 14 -10 24 -10 10 0 26 -9 36 -20 12 -13 21 -17 25 -10 4 7 12 5 21 -6 12 -15 12 -17 0 -9 -11 6 -13 4 -7 -10 8 -21 -8 -35 -40 -35 -30 0 -51 -27 -35 -43 10 -9 11 -9 6 4 -9 23 24 21 59 -4 15 -11 34 -34 42 -51 15 -36 18 -18 5 37 -7 29 -6 39 6 45 26 15 -7 75 -56 100 -43 23 -97 30 -86 12z"/> <path d="M2117 443 c-2 -32 0 -65 5 -73 7 -11 8 -8 4 10 -6 28 12 64 21 43 2 -7 16 -13 30 -13 19 0 24 4 19 16 -3 9 -6 20 -6 25 0 5 -6 9 -13 9 -7 0 -18 9 -25 20 -20 33 -29 23 -35 -37z"/> <path d="M411 439 c-1 -29 -4 -56 -7 -60 -3 -5 -1 -9 5 -9 9 0 14 20 25 98 2 12 -2 22 -9 22 -7 0 -13 -19 -14 -51z"/> <path d="M574 434 c1 -12 14 -36 29 -53 15 -18 27 -36 27 -40 0 -8 16 -28 71 -88 16 -18 29 -35 29 -38 0 -4 11 -18 25 -33 14 -15 48 -58 76 -97 28 -38 56 -73 62 -77 7 -4 32 -8 55 -8 l44 0 -25 28 c-92 103 -107 116 -107 100 0 -10 -4 -18 -8 -18 -11 0 -96 106 -158 195 -66 96 -90 125 -102 125 -6 0 -13 6 -16 13 -2 6 -4 3 -2 -9z"/> <path d="M769 407 c9 -11 16 -36 20 -68 1 -3 11 -5 24 -4 28 3 24 31 -9 62 -27 25 -54 33 -35 10z"/> <path d="M2216 383 c-11 -14 -14 -23 -8 -19 8 5 10 -2 6 -26 l-6 -33 20 30 c11 17 16 34 12 39 -5 5 -6 15 -3 22 8 21 0 16 -21 -13z"/> <path d="M360 299 c-19 -24 -53 -50 -79 -62 -66 -29 -151 -94 -151 -116 0 -10 -7 -37 -15 -60 -20 -57 -10 -51 16 10 17 39 38 63 92 105 38 30 75 54 83 54 17 0 17 -2 2 -35 -8 -19 -9 -28 0 -37 8 -8 13 -3 18 18 3 16 22 58 41 93 18 35 32 65 30 67 -2 2 -19 -15 -37 -37z"/> <path d="M457 295 c-16 -12 -16 -13 6 -18 24 -7 167 -147 167 -165 0 -6 5 -14 12 -18 8 -5 9 -2 4 11 -5 14 2 11 29 -10 86 -65 29 24 -62 99 -37 30 -84 69 -103 85 -30 25 -38 27 -53 16z"/> <path d="M398 221 c-34 -60 -34 -63 -3 -55 14 3 25 2 25 -2 0 -5 14 -25 30 -44 17 -19 38 -54 48 -77 16 -39 20 -43 52 -42 19 1 27 3 18 6 -11 3 -22 21 -29 46 -8 31 -26 57 -70 98 -32 31 -59 59 -59 62 0 14 34 6 67 -14 47 -29 51 -18 8 19 -19 17 -35 36 -35 42 0 26 -28 5 -52 -39z"/> <path d="M1210 257 c-30 -5 -64 -16 -75 -24 -18 -13 -16 -14 20 -6 73 15 207 10 244 -9 45 -23 58 -23 36 2 -35 38 -130 54 -225 37z"/> <path d="M872 213 c6 -7 20 -13 33 -13 22 0 115 -65 115 -81 0 -5 5 -9 10 -9 6 0 10 12 9 28 0 15 -3 21 -6 15 -8 -21 -20 -15 -41 19 -17 26 -30 34 -76 43 -45 9 -53 9 -44 -2z"/> <path d="M1580 190 c-15 -29 -27 -40 -43 -40 -12 0 -33 -8 -46 -17 -23 -16 -24 -16 -19 5 8 28 3 28 -34 -3 -38 -32 -73 -41 -113 -26 -44 15 -45 15 -45 -20 l0 -31 46 7 c36 5 54 2 85 -14 48 -25 101 -31 107 -11 3 7 21 32 41 54 40 44 61 85 61 116 0 32 -18 23 -40 -20z m-48 -78 c-11 -11 -21 -25 -24 -32 -2 -7 -10 -11 -17 -9 -11 4 -10 8 3 21 9 9 16 21 16 27 0 9 30 21 38 15 2 -1 -5 -11 -16 -22z"/> <path d="M80 185 c-14 -8 -21 -14 -16 -15 5 0 -1 -11 -13 -24 -16 -17 -20 -30 -15 -50 3 -14 9 -26 13 -26 8 1 66 118 60 124 -2 2 -15 -2 -29 -9z"/> <path d="M1080 127 c-8 -17 -21 -31 -28 -30 -17 4 -15 -38 4 -65 15 -22 17 -23 29 -5 7 10 15 34 18 53 3 19 8 45 12 58 12 35 -18 27 -35 -11z"/> <path d="M1167 133 c-4 -3 -7 -12 -7 -19 0 -9 7 -10 30 -1 17 6 30 15 30 19 0 10 -44 11 -53 1z"/> <path d="M1611 96 c57 -51 103 -86 107 -81 10 10 -71 85 -92 85 -10 0 -17 -2 -15 -4z"/> <path d="M1221 35 c-18 -8 -42 -15 -52 -15 -10 0 -21 -5 -24 -10 -4 -6 24 -9 77 -9 46 1 70 4 55 6 -22 4 -27 8 -22 24 7 22 9 22 -34 4z"/> <path d="M630 10 c0 -6 35 -10 88 -9 61 1 78 4 57 9 -45 11 -145 11 -145 0z"/> </g> </svg> 