<?xml version="1.0" standalone="no"?>
<!DOCTYPE svg PUBLIC "-//W3C//DTD SVG 20010904//EN"
 "http://www.w3.org/TR/2001/REC-SVG-20010904/DTD/svg10.dtd">
<svg version="1.0" xmlns="http://www.w3.org/2000/svg"
 width="300.000000pt" height="300.000000pt" viewBox="0 0 300.000000 300.000000"
 preserveAspectRatio="xMidYMid meet">
<metadata>
Created by potrace 1.10, written by Peter Selinger 2001-2011
</metadata>
<g transform="translate(0.000000,300.000000) scale(0.100000,-0.100000)"
fill="#000000" stroke="none">
<path d="M1557 2742 c-26 -3 -55 -37 -42 -50 3 -4 20 1 36 11 32 18 54 22 45
9 -2 -4 -1 -14 5 -22 6 -12 9 -9 9 10 0 25 2 26 76 27 58 1 77 -3 81 -14 5
-11 8 -12 14 -2 4 7 17 14 30 16 18 3 20 1 10 -11 -10 -12 -9 -15 11 -13 13 0
25 4 28 8 3 4 23 10 45 13 22 3 32 3 23 0 -38 -11 -17 -25 27 -18 30 4 45 3
45 -5 0 -6 -7 -8 -17 -4 -11 4 -14 3 -9 -5 9 -15 43 -16 51 -2 3 6 15 10 26
10 18 0 18 -1 -3 -22 -13 -13 -30 -22 -38 -21 -9 2 -10 0 -2 -3 6 -3 12 -15
12 -27 0 -20 0 -20 -15 -1 -8 10 -14 15 -15 9 0 -16 13 -29 42 -44 15 -8 25
-18 22 -23 -3 -4 0 -8 5 -8 13 0 14 10 1 30 -6 9 -5 17 2 21 6 4 7 12 3 18 -5
9 -10 9 -21 0 -8 -7 -14 -7 -14 -1 0 5 6 15 14 21 11 10 17 8 25 -6 9 -15 12
-16 20 -3 6 9 6 19 0 26 -6 8 -5 14 6 18 33 12 11 23 -82 39 -89 15 -382 27
-456 19z"/>
<path d="M2117 2688 c-10 -27 -6 -31 23 -32 16 -1 30 3 30 7 0 4 12 -2 28 -13
15 -11 38 -22 52 -25 14 -2 44 -9 67 -16 l42 -11 -34 -37 c-50 -51 -43 -62 7
-13 23 23 46 42 50 42 13 0 9 -17 -7 -34 -8 -8 -15 -22 -15 -30 0 -14 2 -14
18 2 11 9 18 19 16 22 -1 3 15 5 37 5 21 0 39 -3 39 -7 0 -5 8 -8 18 -8 9 -1
3 -7 -16 -15 -18 -8 -51 -33 -74 -55 -34 -35 -38 -43 -25 -53 8 -7 17 -19 20
-27 4 -12 6 -11 6 3 1 10 5 16 9 13 4 -2 9 4 9 15 2 25 22 51 34 43 5 -3 9 0
9 5 0 6 7 11 15 11 8 0 15 5 15 10 0 13 -1 13 -38 -5 -17 -9 -34 -25 -37 -35
-4 -11 -11 -20 -16 -20 -13 0 3 30 29 53 23 21 78 38 98 30 8 -3 18 -18 21
-34 3 -16 11 -29 17 -29 6 -1 0 -10 -14 -21 -16 -13 -26 -17 -28 -9 -5 15 -42
-18 -42 -38 0 -9 -7 -13 -20 -9 -11 3 -20 1 -20 -5 0 -5 -4 -6 -10 -3 -5 3
-10 1 -10 -4 0 -6 -11 -11 -25 -11 -16 0 -25 6 -25 15 0 8 -5 15 -11 15 -6 0
-38 23 -71 50 -51 43 -57 50 -36 51 18 1 19 2 4 6 -28 7 -42 -12 -22 -32 18
-19 21 -45 5 -45 -6 0 -9 -6 -6 -14 5 -12 1 -12 -23 0 -19 10 -35 12 -52 5
-33 -12 -73 -62 -88 -106 -10 -30 -9 -40 4 -60 9 -14 23 -25 30 -25 8 0 16 -7
20 -15 3 -8 0 -15 -7 -15 -7 0 -17 -10 -22 -22 -11 -26 -49 -39 -39 -15 7 19
-8 28 -25 17 -11 -6 -9 -13 10 -32 13 -14 25 -33 27 -44 2 -15 1 -16 -7 -5 -8
12 -12 12 -25 2 -9 -7 -22 -11 -30 -8 -15 6 -76 -28 -76 -43 0 -5 -14 -25 -31
-44 -26 -30 -35 -34 -60 -29 -24 5 -36 0 -60 -23 -21 -20 -26 -30 -17 -36 9
-5 6 -8 -8 -8 -12 0 -35 -12 -51 -27 -17 -16 -36 -28 -44 -28 -8 0 -14 -9 -14
-20 -1 -11 -4 -26 -8 -33 -5 -6 -5 -12 -1 -12 4 0 -1 -9 -11 -20 -12 -13 -14
-20 -6 -20 10 0 12 -36 10 -160 -2 -90 0 -159 5 -157 11 4 16 301 5 318 -6 10
6 27 38 56 26 24 50 43 54 43 4 0 22 14 40 31 73 68 71 72 68 -128 -2 -170 -2
-178 17 -178 15 0 18 6 15 25 -2 14 -5 95 -8 180 l-4 155 32 33 c17 17 49 42
70 54 22 12 39 27 39 34 0 13 22 24 46 24 12 0 14 -21 12 -121 -2 -66 -6 -123
-10 -126 -12 -7 -9 -41 3 -49 18 -11 29 18 22 58 -3 21 -2 89 2 151 l7 114 66
47 c105 75 227 151 321 202 129 70 141 80 141 119 0 45 -31 67 -180 133 -149
66 -264 104 -286 95 -12 -4 -15 -3 -10 5 4 7 3 12 -2 12 -6 0 -12 -6 -15 -12z
m195 -308 c3 11 9 11 27 -2 12 -9 18 -19 13 -22 -6 -3 -13 0 -15 6 -3 7 -6 3
-6 -10 -1 -13 -5 -21 -10 -17 -5 3 -12 1 -16 -5 -12 -20 -25 1 -21 33 3 18 3
26 0 20 -7 -16 -34 -17 -34 -2 0 7 8 18 18 25 15 11 18 10 28 -13 7 -16 13
-21 16 -13z m-80 -7 c25 -29 30 -70 13 -103 l-16 -30 53 31 c29 18 61 41 70
51 16 18 19 18 34 4 9 -9 11 -16 4 -16 -6 0 -30 -13 -53 -29 -23 -15 -63 -40
-88 -54 l-46 -25 23 49 c28 58 32 87 5 44 -31 -50 -58 -68 -103 -69 -33 -1
-43 3 -46 17 -3 15 0 16 23 7 26 -10 27 -9 21 12 -3 13 -6 34 -7 48 0 23 -1
23 -8 5 -5 -11 -6 -24 -3 -30 3 -5 -2 -4 -11 4 -18 14 -12 36 17 61 13 10 16
10 16 -3 0 -21 23 -27 45 -11 18 14 18 14 -2 14 -12 0 -23 8 -25 18 -7 26 62
30 84 5z"/>
<path d="M2183 2313 c-23 -21 -47 -63 -36 -63 15 1 38 25 50 53 15 32 13 33
-14 10z"/>
<path d="M2140 2630 c-6 -4 -10 -18 -8 -30 2 -18 10 -24 30 -24 29 -2 41 14
32 38 -7 17 -37 26 -54 16z"/>
<path d="M1585 2614 c-11 -8 -29 -14 -40 -13 -41 3 -45 0 -35 -25 5 -13 6 -33
3 -45 -3 -12 -1 -27 5 -34 8 -9 6 -21 -8 -42 -22 -33 -26 -50 -10 -40 6 3 10
1 10 -4 0 -6 -5 -11 -11 -11 -5 0 -8 -4 -5 -8 3 -5 -4 -16 -15 -25 -11 -10
-17 -22 -14 -28 4 -6 13 -3 23 9 16 18 57 27 46 11 -9 -15 38 -31 82 -27 25 2
44 -1 45 -7 0 -5 5 0 11 13 6 12 20 22 30 22 11 0 16 5 13 10 -4 6 5 10 20 10
17 0 24 -4 19 -12 -5 -7 -3 -8 6 -3 10 6 9 11 -5 22 -11 7 -14 13 -8 13 6 0
13 7 17 15 7 19 -3 47 -15 39 -5 -3 -9 1 -9 10 0 8 -3 22 -7 32 -5 13 -3 15 7
9 8 -5 11 -4 6 3 -4 6 -13 9 -20 6 -7 -3 -19 2 -26 11 -10 12 -10 15 4 15 9 0
16 8 16 18 0 14 2 15 10 2 5 -8 12 -11 16 -7 4 4 3 12 -4 19 -8 8 -15 8 -25 0
-8 -7 -17 -9 -21 -5 -4 4 -9 -3 -13 -15 -4 -18 -13 -22 -47 -23 -24 -1 -31 -3
-16 -6 14 -2 40 -6 57 -9 69 -11 64 -82 -10 -135 -30 -22 -50 -29 -81 -28 -34
2 -36 3 -11 6 17 3 35 9 40 15 7 7 6 9 -1 5 -6 -4 -27 -2 -47 4 -29 8 -37 15
-37 34 0 15 7 26 20 30 11 3 20 10 20 15 0 11 49 37 69 36 25 -1 24 -26 -1
-27 -12 -1 -26 -1 -30 0 -10 1 -18 -30 -14 -54 1 -11 11 -22 20 -23 15 -3 16
-1 6 18 -9 17 -9 25 1 34 9 8 10 8 5 -1 -4 -7 -2 -13 3 -13 6 0 11 5 11 11 0
5 4 8 9 5 8 -5 35 43 28 51 -3 2 -21 7 -41 10 -29 4 -45 1 -69 -16 l-32 -22
27 24 27 25 -24 -2 c-13 0 -23 -3 -22 -6 2 -5 -8 -10 -17 -10 -3 0 0 13 5 30
6 16 15 28 19 25 5 -3 13 2 18 12 9 14 16 15 49 7 22 -6 37 -15 35 -23 -1 -7
2 -10 7 -7 5 3 7 15 4 25 -4 15 2 21 26 26 47 10 37 22 -16 19 -26 -2 -52 1
-58 6 -6 5 -18 2 -30 -6z"/>
<path d="M2263 2572 l-2 -37 15 28 c8 15 22 27 31 27 23 0 11 10 -18 15 -22 4
-24 1 -26 -33z"/>
<path d="M1738 2587 c10 -11 36 -13 97 -8 29 3 -26 21 -64 21 -35 0 -41 -3
-33 -13z"/>
<path d="M1945 2560 c3 -5 1 -10 -5 -10 -6 0 -8 -5 -5 -10 4 -7 12 -7 25 0 13
7 19 6 24 -5 3 -9 -1 -15 -10 -15 -8 0 -12 -4 -9 -10 3 -5 14 -10 24 -10 49 0
85 -105 44 -129 -10 -6 -13 -11 -8 -11 6 0 -3 -7 -20 -16 -59 -32 -165 -11
-165 33 0 9 -3 14 -6 10 -12 -12 9 -48 38 -63 32 -16 115 -16 152 1 14 6 17 5
12 -3 -4 -7 -1 -12 8 -12 19 0 30 17 14 23 -10 3 -8 12 5 36 10 17 17 41 15
54 -1 12 2 28 6 36 6 10 5 12 -2 7 -8 -5 -12 1 -12 16 0 17 -3 19 -9 9 -7 -12
-14 -10 -36 8 -15 11 -26 22 -24 22 19 6 49 4 49 -3 0 -5 4 -7 9 -4 12 8 42
-4 36 -14 -3 -5 4 -6 15 -3 24 6 25 0 4 -21 -19 -20 -5 -21 31 -2 15 8 33 12
40 10 7 -3 15 1 18 9 5 14 -19 17 -40 4 -6 -4 -16 0 -23 8 -9 11 -9 15 -1 15
7 0 9 5 6 10 -8 13 -45 13 -45 1 0 -6 -16 -3 -36 5 -25 10 -40 12 -48 5 -9 -7
-17 -5 -29 9 -17 20 -53 29 -42 10z"/>
<path d="M1863 2553 c-7 -2 -13 -11 -13 -19 0 -14 -29 -13 -77 1 -14 5 -23 3
-23 -3 0 -13 55 -26 93 -23 19 2 27 -2 27 -13 0 -9 6 -13 14 -10 8 3 12 12 9
20 -3 7 1 16 9 19 23 9 18 35 -6 34 -12 0 -27 -3 -33 -6z"/>
<path d="M1955 2470 c-3 -5 -17 -10 -29 -10 -25 0 -76 -35 -76 -52 0 -6 8 -17
18 -25 9 -8 11 -12 5 -8 -8 4 -11 1 -7 -8 3 -8 15 -17 27 -21 19 -4 20 -3 6 7
-9 7 -15 17 -13 22 1 6 5 22 8 37 4 18 16 30 38 38 38 15 35 14 68 6 24 -7 24
-6 6 8 -23 18 -42 20 -51 6z"/>
<path d="M2163 2455 c-28 -32 -4 -48 32 -22 18 14 13 37 -8 37 -7 -1 -18 -7
-24 -15z"/>
<path d="M1920 2415 c-6 -8 -9 -19 -5 -25 7 -12 50 -9 62 4 4 5 -2 7 -13 4
-17 -4 -20 -2 -17 13 6 23 -10 25 -27 4z"/>
<path d="M1777 2345 c-10 -14 -27 -25 -37 -25 -22 0 -27 -15 -8 -26 7 -5 8 -3
3 6 -5 8 -3 11 6 8 8 -3 13 -11 12 -17 -5 -18 25 -12 30 7 10 35 17 72 15 72
-2 0 -11 -12 -21 -25z"/>
<path d="M1806 2301 c10 -10 29 -14 54 -12 13 1 13 2 0 11 -19 13 -67 13 -54
1z"/>
<path d="M1578 2283 c-15 -10 -30 -24 -33 -32 -5 -11 -2 -11 13 2 10 9 26 17
34 17 9 0 21 7 28 15 18 21 -6 20 -42 -2z"/>
<path d="M1944 2291 c-2 -2 -4 -10 -4 -17 0 -9 7 -9 30 2 17 9 30 17 30 19 0
4 -51 1 -56 -4z"/>
<path d="M1633 2260 c-38 -23 -44 -57 -15 -83 25 -23 61 -21 89 5 20 18 23 19
23 5 0 -10 8 -17 18 -17 14 0 15 2 2 10 -8 5 -13 10 -10 11 36 6 44 9 53 18 8
8 0 11 -28 11 -28 0 -36 3 -28 11 16 16 -15 49 -47 49 -14 0 -40 -9 -57 -20z
m85 -12 c5 -28 -34 -58 -75 -57 l-38 1 35 10 c38 11 60 25 60 39 0 15 -44 10
-68 -6 -19 -14 -21 -14 -16 -1 13 33 96 45 102 14z"/>
<path d="M1906 2271 c-3 -5 5 -16 19 -25 38 -25 33 -62 -15 -107 -44 -42 -87
-55 -151 -46 -37 5 -39 4 -25 -11 8 -10 16 -21 18 -27 4 -13 108 -14 108 0 0
5 18 19 40 29 22 11 40 25 40 32 0 14 34 37 42 28 3 -3 8 4 11 16 3 13 0 20
-10 20 -8 0 -11 4 -8 10 6 10 -5 28 -37 57 -9 9 -15 20 -12 25 3 4 1 8 -5 8
-5 0 -12 -4 -15 -9z"/>
<path d="M1441 2247 c-6 -8 -8 -17 -4 -20 3 -4 -1 -7 -9 -7 -20 0 -30 -37 -17
-62 11 -21 34 -23 68 -4 14 8 32 12 40 9 12 -4 13 -3 3 4 -17 12 -5 41 19 48
17 6 15 9 -18 26 -44 22 -66 24 -82 6z m57 -20 c2 -9 -8 -28 -22 -42 -26 -26
-56 -33 -56 -14 0 5 4 8 9 4 13 -8 53 46 46 63 -3 8 0 12 7 10 7 -3 14 -12 16
-21z"/>
<path d="M1867 2201 c-3 -13 -17 -22 -41 -27 -37 -6 -44 -26 -13 -32 11 -2 17
3 17 15 0 15 2 16 10 3 5 -8 10 -10 10 -4 0 7 9 14 20 17 12 3 20 14 20 26 0
26 -16 27 -23 2z"/>
<path d="M1550 2110 c21 -7 22 -8 5 -9 -12 -1 -37 -10 -58 -20 -46 -23 -48
-18 -4 9 17 11 26 20 19 20 -22 0 -72 -57 -72 -82 0 -25 34 -53 52 -42 7 4 8
3 4 -4 -4 -7 -2 -12 4 -12 7 0 10 6 8 13 -3 6 -11 12 -19 12 -7 0 -15 8 -17
18 -2 10 3 17 12 17 9 0 16 5 16 11 0 5 -5 7 -12 3 -7 -5 -8 -3 -4 5 5 7 14
10 21 7 7 -2 16 1 18 9 3 7 21 16 39 20 18 4 39 12 46 18 9 7 11 6 9 -4 -2 -8
-2 -11 0 -6 9 14 23 -4 23 -29 0 -38 -17 -62 -60 -84 -47 -24 -78 -25 -108 -4
-12 8 -22 11 -22 6 0 -5 12 -14 28 -21 15 -8 35 -18 45 -23 12 -6 27 -4 47 5
20 11 31 12 39 4 8 -8 11 -8 11 1 0 7 7 12 16 12 8 0 13 4 10 9 -3 5 -16 7
-29 5 -20 -4 -21 -4 -2 5 11 5 29 12 40 16 15 5 16 8 6 14 -10 6 -9 10 5 15
12 5 14 10 6 18 -6 6 -8 16 -6 23 10 24 -45 55 -95 54 -38 -1 -42 -2 -21 -9z"/>
<path d="M1960 2108 c0 -9 31 -15 58 -10 37 7 25 19 -18 18 -22 -1 -40 -4 -40
-8z"/>
<path d="M1396 2058 c-9 -12 -16 -34 -16 -47 0 -25 1 -25 14 -6 12 18 28 75
20 75 -1 0 -10 -10 -18 -22z"/>
<path d="M1580 2060 c0 -5 -10 -18 -22 -30 -30 -27 -32 -49 -5 -42 12 3 16 7
9 10 -17 5 -15 22 3 22 8 0 19 9 25 19 13 25 13 31 0 31 -5 0 -10 -4 -10 -10z"/>
<path d="M1725 2009 c-28 -14 -60 -59 -43 -59 8 0 24 7 36 15 12 8 25 15 30
15 4 -1 8 8 10 20 4 22 -3 24 -33 9z"/>
<path d="M1378 1953 c-8 -10 -18 -25 -22 -33 -4 -8 1 -5 12 8 11 12 25 22 31
22 5 0 13 5 16 10 11 17 -21 11 -37 -7z"/>
<path d="M1590 1910 c-12 -8 -11 -10 7 -10 12 0 25 -5 28 -11 4 -6 13 -8 20
-5 8 3 16 0 19 -7 3 -7 5 -3 3 8 -1 11 -10 20 -19 20 -9 0 -20 4 -24 8 -10 9
-16 9 -34 -3z"/>
<path d="M1362 1854 c-42 -25 -78 -76 -67 -95 4 -5 0 -21 -9 -34 -9 -13 -16
-30 -16 -37 1 -7 9 2 18 20 10 18 21 29 25 25 5 -4 5 1 1 11 -7 18 -6 18 18 2
18 -12 32 -14 49 -8 22 8 21 9 -14 16 -20 4 -37 9 -37 12 0 3 14 19 30 36 17
16 30 26 30 22 0 -4 6 0 13 10 8 10 28 18 56 19 l43 3 -5 -37 c-3 -26 -1 -39
9 -43 7 -3 16 -1 19 5 4 5 11 6 17 3 8 -5 9 -1 5 10 -4 10 -7 21 -7 24 0 4 -5
0 -11 -8 -8 -12 -10 -9 -6 11 8 56 -89 76 -161 33z"/>
<path d="M1573 1827 c-16 -9 -20 -16 -13 -27 5 -8 10 -11 10 -5 0 5 5 4 11 -2
7 -7 8 -19 4 -30 -4 -10 -7 -31 -7 -48 2 -28 1 -29 -8 -7 l-10 23 -30 -21
c-17 -12 -38 -32 -46 -45 -9 -13 -22 -21 -29 -18 -8 2 -25 -7 -38 -21 -13 -14
-30 -26 -37 -26 -7 0 -10 -3 -7 -6 3 -4 2 -15 -4 -26 -10 -18 -11 -18 -30 6
-16 20 -25 23 -59 19 -30 -4 -40 -2 -40 8 0 11 -2 11 -10 -1 -18 -28 -12 -40
15 -30 20 7 25 6 25 -5 0 -8 -7 -15 -15 -15 -9 0 -20 -12 -26 -27 -6 -15 -16
-31 -22 -35 -9 -6 -8 -11 3 -18 12 -8 14 -33 12 -149 -3 -92 0 -141 7 -145 8
-5 11 34 11 131 0 76 4 143 8 149 4 5 23 20 44 32 l36 22 6 -47 c3 -27 10
-104 16 -173 5 -69 14 -126 20 -128 5 -2 10 -11 10 -20 0 -11 3 -13 8 -6 8 13
122 25 122 12 0 -4 9 -8 21 -8 14 0 19 5 16 14 -5 11 9 13 76 10 45 -2 93 -5
106 -7 13 -1 26 3 28 8 4 13 -212 21 -220 8 -3 -4 -40 -8 -83 -8 -75 0 -77 1
-79 25 -2 14 -6 95 -10 180 -6 143 -5 156 12 172 10 9 31 28 47 43 15 14 30
24 32 22 2 -2 4 -68 5 -147 0 -97 3 -140 10 -133 7 7 10 68 10 152 l-1 141 34
35 c20 19 38 35 42 35 8 0 -4 -403 -13 -439 -4 -17 -2 -22 8 -19 11 4 15 46
21 199 7 187 21 304 39 315 5 3 5 14 -1 24 -11 21 2 36 23 24 9 -6 9 -5 0 7
-6 8 -11 19 -12 24 0 15 -23 16 -48 2z m-229 -299 c6 -4 1 -6 -12 -5 -12 0
-22 4 -22 8 0 3 -12 4 -27 2 l-28 -4 25 15 c14 8 28 12 32 10 5 -3 9 1 9 8 1
7 4 4 6 -7 3 -11 10 -23 17 -27z"/>
<path d="M1397 1784 c-16 -9 -27 -17 -25 -19 8 -8 57 8 62 21 7 18 -2 17 -37
-2z"/>
<path d="M1477 1773 c-3 -3 -3 -12 0 -21 4 -14 3 -15 -5 -2 -9 12 -14 11 -32
-5 -14 -13 -36 -20 -66 -20 -39 0 -44 -3 -44 -22 0 -23 14 -31 24 -14 4 5 0
11 -6 14 -7 2 16 3 51 1 58 -2 67 0 88 22 13 14 23 29 23 33 0 11 -26 22 -33
14z"/>
<path d="M1338 1653 c-10 -2 -18 -11 -18 -19 0 -11 5 -11 25 -2 14 6 25 15 25
20 0 8 -4 9 -32 1z"/>
<path d="M1280 1324 c0 -81 4 -123 10 -119 6 4 10 57 10 126 0 73 -4 119 -10
119 -6 0 -10 -49 -10 -126z"/>
<path d="M1775 1171 c-3 -5 -1 -12 4 -15 5 -4 13 -2 16 4 4 6 16 8 27 4 14 -4
18 -2 14 5 -9 13 -53 15 -61 2z"/>
<path d="M1290 1148 c0 -13 8 -18 28 -18 25 -1 26 -1 7 -12 -38 -22 -47 -51
-14 -46 33 5 47 33 31 59 -12 18 -12 23 0 30 8 5 1 8 -19 6 -24 -1 -33 -7 -33
-19z"/>
<path d="M1938 1160 c-10 -6 -18 -15 -18 -20 0 -10 73 -6 90 5 14 9 70 -4 70
-16 0 -5 -9 -9 -20 -9 -11 0 -20 -7 -20 -15 0 -8 -6 -15 -12 -16 -7 0 -1 -5
15 -11 35 -13 34 -27 -3 -41 -24 -9 -30 -17 -28 -36 2 -17 -2 -25 -15 -27 -10
-1 -26 -5 -35 -9 -14 -5 -14 -7 -2 -15 8 -5 11 -12 7 -16 -3 -4 -13 -1 -22 6
-24 20 -27 6 -5 -20 19 -22 23 -23 74 -11 68 15 86 33 61 61 -9 10 -27 21 -39
23 -15 2 -9 7 24 17 25 8 53 13 63 12 11 -1 15 2 12 9 -4 6 3 13 14 16 37 10
0 38 -48 37 -35 0 -39 1 -29 15 7 9 24 26 38 38 l25 22 -61 1 c-34 0 -74 2
-90 5 -16 3 -37 0 -46 -5z m185 -100 c5 -4 2 -10 -6 -13 -8 -3 -23 4 -34 15
-18 20 -18 21 7 13 14 -4 29 -11 33 -15z m-53 -106 c0 -15 -23 -27 -80 -39
-31 -7 -33 -6 -21 8 7 9 10 21 6 26 -8 14 27 1 38 -13 5 -7 6 -3 3 8 -4 11 -2
23 5 26 17 11 49 0 49 -16z"/>
<path d="M2156 1161 c-19 -7 -19 -8 3 -14 19 -5 21 -8 11 -26 -9 -18 -8 -21 9
-21 10 0 21 7 25 15 7 19 23 19 43 0 8 -8 20 -12 26 -8 7 4 18 8 25 9 10 2 11
-1 1 -12 -9 -11 -7 -14 12 -15 13 -1 28 -1 33 0 6 1 24 5 40 7 31 6 31 5 7 -8
-14 -7 -26 -19 -29 -26 -3 -11 0 -12 17 -3 20 11 26 8 21 -14 -1 -5 2 -6 7 -2
4 5 9 13 9 18 3 20 4 21 17 11 13 -11 47 -16 87 -13 23 2 23 3 -10 17 -19 9
-75 24 -124 35 -49 11 -108 29 -132 39 -45 21 -67 23 -98 11z"/>
<path d="M1130 1140 c-13 -11 -20 -23 -17 -26 9 -10 65 16 71 32 8 21 -27 17
-54 -6z"/>
<path d="M1191 1137 c-11 -15 -5 -27 14 -27 6 0 11 9 12 20 2 23 -10 26 -26 7z"/>
<path d="M1447 1133 c-4 -3 2 -12 13 -20 11 -8 20 -21 20 -29 0 -19 6 -18 40
7 29 22 81 23 135 4 16 -6 17 -5 5 4 -8 6 -13 11 -10 11 37 6 80 5 80 -1 0 -4
-7 -15 -16 -23 -13 -13 -13 -16 -1 -16 17 0 40 24 31 33 -3 3 4 3 16 0 14 -4
18 -8 10 -13 -9 -6 -9 -9 0 -15 7 -4 16 -2 20 5 6 10 9 9 13 -1 4 -10 8 -11
14 -2 8 12 26 16 57 14 17 -1 17 -2 1 -27 -16 -24 -16 -25 3 -15 65 35 42 61
-57 65 -39 1 -76 7 -81 12 -7 7 -29 8 -58 3 -26 -4 -49 -5 -52 -4 -14 8 -80
14 -80 7 0 -12 -68 -14 -75 -2 -7 11 -19 13 -28 3z"/>
<path d="M1408 1122 c-19 -4 -23 -20 -10 -37 10 -14 72 -15 72 -1 -1 17 -43
43 -62 38z"/>
<path d="M960 1110 c0 -5 -9 -10 -19 -10 -11 0 -23 -4 -26 -10 -10 -15 16 -11
60 9 38 18 38 19 13 20 -16 1 -28 -3 -28 -9z"/>
<path d="M1253 1112 c-29 -4 -31 -38 -2 -47 26 -8 31 -3 27 27 -2 17 -8 22
-25 20z"/>
<path d="M1983 1103 c4 -6 -12 -15 -33 -22 -39 -12 -55 -31 -25 -31 8 0 15 5
15 10 0 6 9 10 19 10 11 0 23 5 26 10 4 6 11 7 17 4 6 -4 9 -1 6 6 -2 8 -10
16 -18 18 -7 3 -10 0 -7 -5z"/>
<path d="M1136 1085 c-17 -18 -42 -20 -52 -4 -10 17 -85 1 -111 -23 -29 -27
-29 -38 0 -34 32 4 77 24 77 35 0 6 12 6 28 2 54 -14 151 6 137 30 -9 14 -62
11 -79 -6z"/>
<path d="M1561 1071 c-9 -6 -10 -11 -2 -15 6 -4 11 -2 11 5 0 8 4 8 15 -1 8
-7 15 -19 15 -26 0 -8 5 -14 11 -14 5 0 8 4 4 9 -3 5 3 12 12 14 14 4 14 5 -3
6 -12 0 -24 8 -28 16 -6 17 -15 19 -35 6z"/>
<path d="M809 1063 c-1 -5 -1 -12 0 -16 1 -5 -8 -6 -19 -2 -12 4 -20 2 -20 -5
0 -7 -7 -9 -17 -6 -9 4 -20 1 -24 -5 -9 -15 -39 -21 -39 -8 0 6 -4 7 -10 4 -5
-3 -10 -1 -10 5 0 8 9 10 25 6 18 -5 25 -2 25 9 0 18 -36 20 -73 3 -29 -14
-38 -32 -10 -21 10 4 14 2 9 -5 -3 -6 2 -15 11 -21 17 -9 17 -10 -2 -17 -11
-4 -23 -11 -26 -16 -3 -5 -18 -10 -33 -12 -16 -2 -32 -9 -37 -17 -6 -10 -9
-10 -9 -1 0 6 -4 12 -10 12 -13 0 -13 -37 1 -42 6 -2 2 -11 -9 -21 -18 -16
-20 -16 -26 -2 -3 9 -2 13 4 10 6 -4 10 7 10 25 0 23 -6 33 -24 40 -13 5 -26
14 -28 21 -3 9 -6 8 -11 -3 -4 -12 2 -19 24 -27 18 -6 29 -17 29 -28 0 -14 -2
-15 -9 -5 -6 10 -10 7 -15 -14 -5 -18 -3 -30 6 -35 20 -13 26 -11 50 16 12 14
25 25 30 25 9 0 54 30 101 67 20 17 36 21 54 17 16 -4 28 -2 34 7 6 10 30 14
83 14 59 0 78 4 95 19 28 25 27 35 -4 32 -27 -3 -47 -16 -24 -16 12 0 12 -2
-1 -10 -9 -5 -19 -5 -27 2 -7 6 -24 8 -37 6 -17 -4 -23 -1 -19 9 3 7 0 13 -6
13 -6 0 -12 -3 -12 -7z"/>
<path d="M2189 1068 c-5 -17 -6 -38 -2 -38 2 0 11 7 20 15 15 16 38 11 28 -6
-3 -5 1 -6 9 -3 9 3 16 2 16 -4 0 -6 -6 -12 -12 -15 -7 -3 -4 -5 7 -4 11 0 32
-3 48 -6 16 -5 27 -3 27 3 0 5 -4 10 -10 10 -5 0 -26 11 -46 25 -30 20 -81 34
-85 23z"/>
<path d="M1348 1042 c-16 -9 -28 -22 -28 -29 0 -20 59 -45 96 -41 19 2 34 1
34 -2 0 -9 67 -6 77 4 10 9 -25 36 -47 36 -8 0 -27 7 -40 16 -18 11 -16 8 5
-10 21 -18 25 -26 14 -26 -9 0 -26 9 -39 20 -13 11 -29 20 -37 20 -16 0 -17
17 0 23 6 3 8 6 2 6 -5 0 -22 -7 -37 -17z"/>
<path d="M1684 1050 c-12 -5 -25 -13 -28 -18 -7 -12 22 -38 31 -28 4 4 1 11
-7 17 -11 7 -8 8 10 4 29 -6 56 8 46 24 -8 13 -23 13 -52 1z"/>
<path d="M2523 1046 c-34 -12 -65 -40 -76 -68 -9 -25 0 -22 40 12 34 30 83 41
83 18 0 -9 4 -8 11 2 9 12 10 11 6 -7 -3 -16 0 -23 9 -23 8 0 14 -4 14 -9 0
-14 -37 -23 -60 -16 -11 3 -20 2 -20 -3 0 -5 -10 -12 -22 -16 -18 -5 -20 -8
-9 -15 9 -6 22 -4 37 6 14 8 39 13 61 11 35 -3 38 -1 41 25 6 54 -61 102 -115
83z"/>
<path d="M1755 1040 c4 -6 -9 -17 -27 -25 l-33 -14 43 -1 c35 0 42 3 42 19 0
10 -7 22 -16 25 -9 3 -12 2 -9 -4z"/>
<path d="M1110 1026 c-6 -6 -10 -17 -9 -25 0 -10 4 -7 9 7 5 12 15 22 22 22 9
0 9 -3 0 -12 -20 -20 -14 -38 13 -38 23 0 65 30 65 48 0 10 -89 9 -100 -2z"/>
<path d="M2340 1015 c-1 -11 -3 -24 -5 -30 -1 -5 -3 -16 -3 -23 -3 -18 -64
-42 -114 -43 -30 -2 -35 -3 -15 -6 28 -4 38 -23 12 -23 -8 0 -15 -5 -15 -11 0
-8 -4 -8 -14 0 -11 9 -16 9 -22 0 -4 -8 -3 -9 4 -5 7 4 12 1 12 -8 0 -19 -11
-21 -28 -4 -9 9 -12 9 -12 -1 0 -7 -4 -10 -8 -7 -5 3 -9 -1 -9 -9 0 -12 9 -13
41 -8 23 3 49 10 58 14 9 5 33 9 52 9 19 0 60 9 91 21 63 24 105 19 105 -10 0
-32 -11 -51 -29 -51 -10 0 -28 -12 -42 -26 -16 -17 -31 -24 -46 -21 -12 2 -20
0 -17 -5 3 -5 -13 -6 -35 -2 -28 4 -41 3 -41 -5 0 -6 -7 -11 -15 -11 -8 0 -15
-4 -15 -9 0 -5 20 -5 46 0 82 15 120 29 144 49 13 11 29 20 37 20 7 0 13 5 13
11 0 5 5 7 12 3 7 -5 8 -3 4 5 -5 7 -1 20 8 29 15 17 8 45 -10 41 -21 -4 -35
2 -29 11 4 6 -4 23 -17 38 -23 27 -46 30 -59 9 -4 -5 -12 0 -19 13 -8 15 -8
20 -1 16 6 -4 11 -2 11 3 0 6 -4 11 -9 11 -5 0 -12 8 -14 18 -4 15 -5 14 -7
-3z m57 -76 c23 7 33 6 37 -4 4 -11 -38 -27 -79 -29 -5 -1 -18 -9 -27 -18 -19
-19 -78 -25 -78 -9 0 6 10 8 22 6 15 -3 31 6 52 29 17 18 33 29 37 25 3 -5 19
-5 36 0z"/>
<path d="M510 1000 c-39 -8 -34 -11 25 -14 22 -1 50 -6 63 -10 16 -5 22 -3 22
7 0 7 -6 14 -13 14 -7 0 -24 2 -37 5 -14 3 -41 2 -60 -2z"/>
<path d="M2147 998 c-24 -15 0 -17 38 -3 l40 14 -33 -1 c-18 -1 -38 -6 -45
-10z"/>
<path d="M995 990 c-11 -5 -14 -9 -7 -9 6 -1 11 -6 10 -12 -2 -6 3 -13 10 -14
7 -2 8 -1 2 2 -13 6 -3 23 13 19 7 -1 9 -1 4 1 -4 3 -5 9 -1 14 6 11 -4 11
-31 -1z"/>
<path d="M1925 984 c-55 -20 -64 -32 -41 -50 26 -19 40 -18 32 2 -7 19 19 43
47 44 9 0 17 5 17 10 0 13 -6 12 -55 -6z"/>
<path d="M2200 988 c-44 -12 -59 -24 -55 -46 2 -13 10 -16 36 -14 19 2 41 8
49 14 11 6 4 8 -22 4 -62 -8 -55 19 7 31 11 2 24 8 29 13 12 12 3 12 -44 -2z"/>
<path d="M1310 982 c0 -14 46 -42 67 -41 13 0 11 4 -8 12 -14 7 -33 18 -43 26
-9 7 -16 9 -16 3z"/>
<path d="M1611 976 c-13 -16 4 -27 35 -22 11 2 22 -2 26 -8 5 -7 8 -5 8 6 0 9
6 19 13 22 6 3 0 4 -15 2 -16 -2 -28 1 -28 5 0 14 -26 10 -39 -5z"/>
<path d="M677 957 c-29 -24 -36 -50 -12 -41 8 4 13 10 10 14 -3 5 5 16 17 24
12 9 19 18 17 21 -3 3 -18 -5 -32 -18z"/>
<path d="M767 956 c15 -20 22 -22 41 -13 22 10 21 11 -15 24 -21 7 -39 13 -41
13 -2 0 5 -11 15 -24z"/>
<path d="M873 963 c3 -5 -2 -15 -11 -23 -14 -13 -15 -12 -9 3 3 9 2 17 -3 17
-6 0 -10 -9 -10 -20 0 -23 65 -46 104 -36 31 8 35 40 7 56 -23 12 -84 14 -78
3z"/>
<path d="M1773 957 c-7 -14 -23 -19 -69 -20 -32 -1 -72 2 -89 6 -29 8 -29 8
-12 -10 24 -25 148 -26 173 -1 9 9 14 22 12 29 -3 10 -7 9 -15 -4z"/>
<path d="M1095 950 c-49 -19 -58 -71 -13 -69 17 1 18 2 6 6 -21 5 -22 12 -4
35 7 10 17 14 22 9 5 -5 17 -1 28 10 19 19 19 19 0 18 -10 0 -28 -4 -39 -9z"/>
<path d="M1168 952 c7 -2 10 -8 6 -13 -3 -5 2 -9 10 -9 9 0 16 5 16 11 0 6 7
9 15 5 8 -3 15 -1 15 4 0 5 -17 9 -37 8 -21 -1 -32 -3 -25 -6z"/>
<path d="M1247 934 c2 -7 1 -19 -3 -25 -5 -9 -10 -7 -15 7 -7 18 -8 18 -15 -3
-3 -13 -14 -23 -23 -23 -14 0 -14 2 -1 10 13 8 12 10 -2 10 -10 0 -18 -6 -18
-12 0 -9 -4 -8 -10 2 -6 10 -10 11 -10 3 0 -7 -3 -12 -7 -12 -19 3 -27 -2 -15
-9 21 -14 125 5 139 24 18 24 16 31 -6 37 -13 3 -18 1 -14 -9z"/>
<path d="M1412 928 c-19 -19 -14 -25 18 -26 34 -1 39 12 12 27 -13 7 -23 6
-30 -1z"/>
<path d="M2590 901 c14 -12 33 -19 43 -17 10 3 22 -4 28 -16 10 -18 9 -20 -7
-14 -17 7 -17 6 1 -12 11 -11 24 -17 29 -14 5 3 6 0 2 -7 -6 -9 -11 -9 -21 -1
-15 12 -49 1 -53 -18 -1 -9 5 -11 23 -6 22 6 25 3 25 -23 0 -31 -64 -108 -81
-97 -5 3 -21 -4 -35 -15 -15 -12 -33 -21 -40 -21 -8 0 -14 -5 -14 -11 0 -6 -7
-8 -16 -5 -9 4 -13 2 -8 -5 4 -7 0 -9 -14 -5 -11 4 -23 2 -27 -3 -7 -12 -136
-54 -143 -46 -3 3 -1 5 4 5 6 0 19 7 30 15 16 13 13 13 -20 -1 -21 -8 -45 -13
-52 -10 -8 3 -14 2 -14 -3 0 -5 -18 -13 -40 -19 -23 -5 -40 -6 -40 -1 0 5 5 9
12 9 6 0 8 3 4 7 -4 5 -13 1 -19 -8 -7 -9 -33 -20 -57 -23 -34 -6 -41 -5 -30
4 12 9 10 10 -10 4 -14 -4 -28 -11 -31 -17 -4 -5 -14 -7 -22 -4 -8 3 -18 3
-21 -1 -4 -3 -14 -7 -24 -8 -9 -1 -40 -5 -69 -8 -34 -5 -54 -3 -58 5 -6 8 -10
8 -16 -2 -6 -10 -53 -14 -189 -16 -99 -1 -184 -4 -188 -7 -5 -3 -14 -1 -22 4
-8 5 -22 5 -32 -1 -10 -5 -18 -6 -18 -1 0 11 -53 9 -62 -3 -5 -6 -11 -5 -17 4
-7 11 -31 12 -114 7 -79 -4 -107 -3 -111 7 -5 9 -7 9 -12 0 -3 -7 -12 -13 -20
-13 -9 0 -12 4 -9 10 3 5 2 10 -4 10 -5 0 -12 -4 -15 -8 -3 -5 -31 -5 -63 0
-32 5 -76 11 -98 14 -74 8 -83 13 -90 45 -5 21 -12 29 -23 27 -22 -4 -29 -38
-8 -38 9 0 16 -4 16 -10 0 -9 -47 5 -103 31 -20 9 -26 17 -21 31 4 12 0 18
-11 18 -11 0 -15 -5 -11 -15 3 -9 0 -15 -10 -15 -9 0 -12 -5 -8 -12 5 -8 2 -9
-10 -5 -10 4 -21 7 -24 7 -4 1 4 7 17 14 15 8 20 16 12 20 -6 4 -11 2 -11 -3
0 -6 -7 -11 -15 -11 -8 0 -15 -6 -15 -12 0 -7 -7 -2 -16 10 -8 12 -22 22 -31
22 -11 0 -14 7 -11 25 3 14 1 25 -3 25 -5 0 -9 -9 -9 -19 0 -10 -7 -22 -16
-25 -22 -9 -31 -7 -16 3 11 6 10 11 -3 25 -21 21 -36 21 -29 -1 5 -15 3 -15
-10 1 -9 11 -16 31 -17 45 -1 23 -2 23 -7 6 -20 -60 -71 2 -63 75 1 6 16 19
34 30 41 26 23 26 -25 1 -19 -11 -39 -17 -42 -13 -4 3 -4 -1 0 -11 3 -10 1
-17 -5 -17 -22 0 30 -80 67 -104 108 -68 156 -88 303 -125 249 -64 376 -76
789 -76 378 1 506 9 745 51 176 31 312 67 392 105 73 35 149 114 159 165 11
61 -13 112 -56 119 -14 2 -38 7 -55 10 l-30 7 25 -21z"/>
<path d="M301 886 c-17 -10 -20 -15 -10 -18 16 -6 59 11 59 24 0 12 -21 9 -49
-6z"/>
<path d="M585 890 c-4 -6 -1 -17 5 -25 9 -11 9 -15 1 -15 -6 0 -11 -5 -11 -11
0 -8 4 -8 13 -1 7 6 26 12 42 15 16 2 31 9 33 16 2 6 0 11 -5 10 -26 -5 -63 2
-58 11 3 6 2 10 -4 10 -5 0 -13 -5 -16 -10z"/>
<path d="M732 889 c-29 -11 -26 -45 3 -42 11 2 30 4 42 5 12 1 20 5 17 9 -2 4
2 10 8 12 8 3 4 6 -7 7 -14 2 -11 5 10 10 29 7 28 8 -10 8 -22 0 -50 -3 -63
-9z"/>
<path d="M1275 886 c-42 -30 34 -63 102 -44 42 12 42 25 -2 44 -43 18 -76 18
-100 0z"/>
<path d="M390 883 c1 -9 99 -58 117 -58 7 0 17 -5 22 -10 8 -8 1 -11 -22 -13
-44 -3 -93 -20 -107 -38 -17 -19 -8 -18 43 7 35 17 53 20 83 14 32 -6 35 -9
19 -15 -14 -5 -3 -9 40 -14 33 -5 76 -15 95 -23 27 -11 167 -43 189 -43 2 0
-2 6 -8 14 -12 14 -75 31 -98 27 -7 -1 -13 2 -13 6 0 5 -15 8 -32 8 -25 0 -36
6 -43 22 -11 26 -35 39 -35 19 0 -8 -6 -16 -14 -19 -18 -7 -77 34 -71 50 2 7
-2 10 -11 6 -7 -3 -14 0 -14 7 0 7 -6 10 -14 7 -8 -3 -28 7 -45 24 -28 26 -82
41 -81 22z"/>
<path d="M1604 878 c-4 -5 0 -14 7 -19 19 -12 59 -11 59 1 0 5 11 -2 25 -15
21 -21 33 -25 89 -25 53 0 65 3 69 18 4 15 5 15 6 0 1 -13 9 -15 43 -11 49 5
58 9 58 27 0 8 -18 13 -56 14 -48 1 -57 -1 -61 -18 -7 -26 -33 -26 -33 -1 0
24 -24 33 -87 31 -26 -1 -63 0 -80 3 -18 4 -35 1 -39 -5z m120 -20 c-5 -8 5
-9 36 -5 29 4 39 2 29 -4 -16 -10 -50 -12 -74 -3 -13 5 -14 8 -3 15 18 12 20
11 12 -3z"/>
<path d="M2000 879 c0 -5 -4 -7 -10 -4 -5 3 -10 1 -10 -5 0 -15 42 -8 48 8 2
6 -3 12 -12 12 -9 0 -16 -5 -16 -11z"/>
<path d="M890 874 c0 -14 -44 -34 -78 -35 -15 0 -21 -3 -14 -6 6 -2 12 -8 12
-13 0 -11 -76 -40 -106 -40 -16 0 -23 -4 -18 -11 8 -13 102 -5 116 9 5 5 22 6
38 4 23 -3 28 -7 20 -17 -8 -10 -3 -10 27 1 21 7 46 13 56 14 9 0 17 5 17 11
0 6 -8 8 -17 5 -10 -2 -28 -7 -41 -11 -13 -4 -29 -1 -37 5 -8 7 -22 10 -30 6
-9 -3 -15 0 -15 9 0 8 17 19 40 25 44 12 58 26 41 43 -7 7 -11 7 -11 1z"/>
<path d="M1435 859 c-5 -7 24 -23 38 -21 4 1 7 -3 7 -9 0 -6 6 -9 13 -6 6 2
20 0 29 -4 13 -7 16 -5 15 10 -1 11 -6 17 -14 14 -7 -3 -20 1 -29 8 -18 14
-52 20 -59 8z"/>
<path d="M2399 868 c-9 -31 -6 -40 14 -34 12 3 26 6 31 6 6 0 1 7 -10 15 -17
13 -33 19 -35 13z"/>
<path d="M1070 843 c-37 -15 -39 -40 -4 -53 31 -12 89 -4 104 15 10 12 4 44
-9 46 -29 6 -66 3 -91 -8z m80 -18 c-13 -16 -80 -29 -91 -18 -5 5 -1 9 9 10
33 2 67 13 70 23 2 6 8 7 13 4 6 -4 6 -11 -1 -19z"/>
<path d="M2089 853 c-1 -5 -1 -12 0 -16 1 -4 -4 -7 -11 -6 -7 1 -28 1 -46 0
-26 -1 -33 -5 -30 -18 2 -10 9 -19 16 -19 6 -1 17 -2 22 -3 6 0 10 -7 10 -15
0 -20 -55 -35 -120 -33 -52 2 -55 4 -60 31 -5 28 -5 28 -23 8 -17 -18 -17 -21
-2 -36 20 -20 154 -23 188 -4 12 7 28 13 35 14 27 5 23 12 -20 38 l-43 26 47
0 c26 0 50 5 53 10 3 6 1 10 -5 10 -6 0 -8 5 -5 10 3 6 4 10 1 10 -3 0 -7 -3
-7 -7z"/>
<path d="M2308 814 c-40 -21 -34 -26 10 -10 20 8 44 17 52 19 8 3 4 6 -10 6
-14 0 -37 -7 -52 -15z"/>
<path d="M1338 813 c10 -4 10 -8 0 -21 -10 -12 -10 -14 0 -8 17 10 15 -9 -3
-24 -12 -10 -15 -10 -15 2 0 14 -11 18 -53 19 -9 0 -15 4 -12 10 10 16 -32 10
-45 -6 -10 -11 -10 -19 -2 -27 6 -6 9 -16 8 -22 -2 -6 -1 -8 1 -4 2 3 31 4 64
1 55 -5 61 -4 66 16 3 11 10 21 15 21 5 0 6 5 3 10 -10 16 23 24 40 10 15 -13
10 -35 -6 -25 -5 4 -9 1 -9 -5 0 -7 -7 -9 -16 -6 -24 9 -12 -15 17 -32 21 -12
22 -12 7 0 -17 14 -16 16 8 26 30 14 37 15 30 3 -9 -13 26 -23 38 -11 7 7 5
10 -6 10 -9 0 -27 14 -39 31 -16 23 -27 30 -45 26 -13 -2 -24 0 -24 4 0 5 -8
9 -17 8 -12 0 -13 -2 -5 -6z"/>
<path d="M1935 801 c-11 -5 -24 -6 -29 -3 -5 3 -7 -2 -3 -11 3 -9 1 -18 -6
-20 -7 -2 -5 -3 4 -2 9 1 24 -2 33 -7 12 -7 16 -6 14 4 -2 7 -7 16 -13 20 -6
4 -2 8 8 8 9 0 17 5 17 10 0 6 -1 10 -2 9 -2 0 -12 -4 -23 -8z"/>
<path d="M2143 800 c-28 -11 -30 -36 -3 -45 20 -6 85 8 110 25 36 24 -56 41
-107 20z"/>
<path d="M2527 804 c-3 -3 -2 -16 2 -28 5 -11 7 -28 5 -36 -2 -8 2 -2 9 13 12
25 15 26 26 13 19 -23 34 -20 21 5 -7 13 -19 19 -33 17 -13 -2 -21 2 -19 10 2
13 -1 15 -11 6z"/>
<path d="M1699 777 c-14 -18 -29 -22 -100 -26 -55 -2 -77 -6 -64 -12 42 -16
181 -7 169 12 -3 5 6 9 20 9 14 0 26 5 26 11 0 5 -4 8 -9 4 -6 -3 -13 1 -18 9
-6 11 -11 10 -24 -7z"/>
<path d="M1035 770 c12 -20 -48 -45 -111 -45 l-62 0 36 -18 c25 -12 42 -15 52
-9 10 6 20 5 28 -4 7 -8 29 -14 49 -14 41 0 35 16 -7 22 -25 3 -25 3 6 19 20
10 37 13 45 8 21 -13 29 -11 22 7 -3 8 -12 13 -19 10 -8 -3 -14 1 -14 8 0 8
-7 17 -16 20 -8 3 -12 2 -9 -4z"/>
<path d="M2440 730 c0 -4 9 -15 20 -25 18 -16 20 -16 20 -2 0 10 5 17 12 17 6
0 9 3 6 6 -9 9 -58 12 -58 4z"/>
<path d="M1723 720 c-24 -3 -45 -9 -49 -12 -9 -9 6 -48 18 -48 5 0 8 7 5 15
-5 11 -1 12 19 5 39 -15 100 -12 114 5 24 29 -30 47 -107 35z"/>
<path d="M2388 723 c-9 -2 -20 -13 -23 -24 -3 -10 -8 -28 -11 -39 -3 -11 -1
-20 5 -20 6 0 11 6 11 14 0 10 10 14 30 14 17 -1 35 3 41 9 6 6 -3 8 -26 7
-41 -4 -48 17 -12 34 22 11 16 13 -15 5z"/>
<path d="M1983 713 c-27 -10 -11 -23 27 -23 43 0 54 14 18 24 -26 6 -28 6 -45
-1z"/>
<path d="M2317 707 c-3 -9 -2 -17 3 -17 6 0 10 -4 10 -10 0 -5 -14 -10 -32
-10 -33 0 -32 -13 2 -15 29 -2 45 21 33 47 -8 19 -10 20 -16 5z"/>
<path d="M1902 700 c-44 -10 -56 -25 -13 -16 18 3 42 6 53 6 10 0 16 5 13 10
-7 11 -7 11 -53 0z"/>
<path d="M1090 690 l-25 -6 27 -7 c14 -4 41 -5 60 -2 18 3 27 3 21 -1 -21 -9
-15 -23 7 -17 28 8 25 22 -7 28 -51 11 -58 11 -83 5z"/>
<path d="M1240 688 l-25 -11 25 -7 c45 -14 93 -12 87 4 -4 10 0 12 14 9 10 -3
19 -11 19 -18 0 -16 82 -22 185 -15 l70 5 -42 13 c-35 10 -51 10 -84 1 -36
-11 -42 -11 -51 4 -5 9 -17 17 -26 17 -13 0 -14 -2 -4 -9 11 -7 11 -9 -1 -14
-7 -3 -20 -1 -28 4 -8 5 -9 9 -4 10 6 0 1 4 -10 9 -28 12 -95 11 -125 -2z"/>
<path d="M2253 692 c-33 -3 -69 -32 -40 -32 8 0 17 -3 20 -7 2 -5 2 -2 1 4 -2
7 9 15 24 19 46 10 47 10 37 15 -6 2 -24 3 -42 1z"/>
<path d="M2120 680 c0 -5 5 -10 11 -10 6 0 9 -8 7 -18 -4 -15 -1 -18 17 -14
13 2 25 12 28 22 3 13 0 16 -13 13 -10 -3 -21 0 -24 6 -9 14 -26 14 -26 1z"/>
<path d="M791 661 c-11 -7 -11 -9 0 -14 14 -5 10 -7 -37 -22 -8 -3 -12 -9 -9
-15 4 -6 11 -7 17 -4 7 5 9 2 6 -8 -13 -32 30 -59 78 -48 22 5 42 3 60 -6 26
-14 26 -14 11 8 -15 23 -27 25 -77 13 -31 -7 -63 16 -54 39 4 9 18 23 33 31
18 10 21 14 9 15 -9 0 -18 4 -20 10 -2 5 -9 6 -17 1z"/>
<path d="M1980 650 c0 -11 5 -12 45 -12 43 0 51 4 25 12 -36 12 -70 12 -70 0z"/>
<path d="M1717 643 c-4 -3 -7 -17 -7 -30 0 -30 20 -20 21 10 0 21 1 21 9 2 5
-14 2 -30 -11 -51 -11 -17 -19 -40 -19 -50 1 -17 2 -16 13 4 7 12 17 19 22 15
4 -4 5 -2 1 4 -4 7 -2 22 4 34 21 38 -7 89 -33 62z"/>
<path d="M1147 593 c-11 -10 -8 -43 4 -43 5 0 7 -5 3 -12 -4 -7 -3 -8 5 -4 9
6 9 11 0 22 -11 14 1 20 15 7 12 -12 36 -12 36 0 0 7 -9 18 -20 25 -16 10 -20
10 -20 0 0 -10 -2 -10 -8 0 -5 7 -11 9 -15 5z"/>
<path d="M1534 588 c-5 -7 -2 -8 7 -3 8 4 4 -2 -8 -14 -22 -20 -39 -29 -30
-13 3 4 -1 13 -9 20 -11 10 -14 10 -14 -1 0 -19 26 -41 39 -33 5 3 11 3 14 -1
2 -5 2 -2 1 4 -2 9 9 11 36 9 22 -2 38 0 34 5 -3 5 1 9 8 9 7 1 -5 7 -27 15
-48 18 -42 17 -51 3z"/>
</g>
</svg>
