<?xml version="1.0" standalone="no"?>
<!DOCTYPE svg PUBLIC "-//W3C//DTD SVG 20010904//EN"
 "http://www.w3.org/TR/2001/REC-SVG-20010904/DTD/svg10.dtd">
<svg version="1.0" xmlns="http://www.w3.org/2000/svg"
 width="665.000000pt" height="375.000000pt" viewBox="0 0 665.000000 375.000000"
 preserveAspectRatio="xMidYMid meet">
<metadata>
Created by potrace 1.10, written by Peter Selinger 2001-2011
</metadata>
<g transform="translate(0.000000,375.000000) scale(0.100000,-0.100000)"
fill="#d400ff" stroke="none">
<path d="M1985 3343 c-172 -21 -482 -138 -502 -188 -2 -8 -13 -17 -24 -20 -10
-4 -19 -10 -19 -14 0 -4 -20 -29 -44 -55 -32 -35 -53 -74 -82 -149 -37 -96
-39 -108 -38 -207 1 -98 3 -111 39 -192 20 -49 43 -88 49 -88 7 0 23 -19 36
-42 37 -66 103 -138 127 -138 7 0 13 -4 13 -10 0 -5 18 -19 39 -30 22 -11 61
-34 88 -52 43 -30 166 -88 185 -88 4 0 8 4 8 10 0 5 -3 9 -7 8 -20 -4 -131 49
-194 92 -33 22 -59 38 -59 35 0 -3 -9 3 -21 14 -12 11 -18 24 -15 30 5 7 1 8
-10 4 -13 -5 -16 -3 -11 10 3 9 2 17 -3 17 -6 0 -10 -7 -10 -15 0 -11 -8 -8
-30 12 -16 14 -30 32 -30 39 0 6 -7 14 -15 17 -8 4 -23 23 -35 44 -26 49 -43
77 -51 83 -25 19 -81 209 -58 194 5 -3 9 -11 9 -18 0 -8 7 -20 17 -27 15 -13
15 -12 5 8 -12 22 -33 71 -37 86 -2 4 -3 8 -4 10 -7 9 -8 78 -1 107 5 21 9 27
10 15 3 -32 8 -78 12 -100 6 -35 32 -95 41 -95 4 0 5 -4 2 -10 -3 -5 -1 -10 5
-10 6 0 8 -4 5 -10 -3 -6 1 -7 10 -3 11 4 13 8 6 13 -11 6 -22 39 -24 72 -1
13 -5 14 -14 6 -10 -8 -13 -3 -15 23 0 19 0 42 0 52 1 10 -2 15 -8 12 -6 -3
-7 1 -4 9 3 9 10 16 14 16 14 0 19 -27 7 -40 -10 -10 -8 -12 6 -6 10 3 20 6
23 6 2 0 1 7 -2 15 -4 8 -1 15 5 15 6 0 8 7 5 15 -4 10 4 20 27 30 19 8 30 15
24 15 -5 0 -1 7 9 15 11 8 16 15 12 15 -5 0 -3 6 3 14 10 12 35 5 155 -44 78
-33 162 -62 187 -65 37 -4 32 -2 -25 15 -37 11 -89 30 -115 41 -48 21 -55 24
-136 60 -60 26 -122 31 -130 11 -3 -8 -11 -12 -18 -9 -10 4 -12 -6 -10 -40 2
-29 0 -42 -7 -38 -5 3 -10 1 -10 -4 0 -6 -4 -11 -9 -11 -5 0 -7 15 -4 33 3 17
6 42 7 55 0 12 4 22 7 22 13 0 17 39 5 51 -8 9 -7 10 8 5 14 -5 17 -2 12 9 -3
9 -2 14 3 11 4 -3 19 6 31 19 17 18 19 25 9 25 -8 1 -2 7 13 16 15 8 32 24 39
35 6 12 17 18 25 15 9 -3 12 -1 9 4 -3 6 0 10 8 10 8 0 17 6 20 13 7 19 224
124 234 113 3 -3 15 0 27 6 11 7 24 12 27 11 3 -1 48 7 100 18 108 22 364 26
373 6 3 -8 5 -8 5 1 1 7 6 10 11 7 10 -6 119 -25 165 -28 29 -3 169 -50 176
-60 3 -5 8 -8 10 -7 10 4 145 -49 187 -73 17 -11 32 -23 32 -29 0 -5 5 -6 10
-3 6 3 10 1 10 -4 0 -6 4 -11 10 -11 17 0 150 -102 144 -111 -3 -5 4 -9 16 -9
12 0 19 -4 16 -8 -3 -5 12 -24 32 -44 53 -50 87 -92 84 -103 -2 -5 3 -14 11
-20 13 -9 20 -31 34 -97 3 -15 9 -25 14 -22 5 3 9 1 9 -5 0 -5 -5 -11 -12 -13
-7 -3 -8 -9 -3 -19 17 -26 -3 -93 -37 -131 -51 -55 -61 -70 -63 -93 -4 -35 2
-29 70 71 60 87 60 87 59 158 -1 122 -64 225 -224 369 -236 212 -578 331 -942
326 -57 -1 -116 -4 -133 -6z m-575 -297 c0 -3 -4 -8 -10 -11 -5 -3 -10 -1 -10
4 0 6 5 11 10 11 6 0 10 -2 10 -4z m40 -122 c0 -9 -28 -34 -38 -34 -6 0 -12
-6 -15 -12 -2 -7 -8 -10 -12 -6 -11 10 28 57 48 58 9 0 17 -3 17 -6z"/>
<path d="M2396 3247 c3 -10 9 -15 12 -12 3 3 0 11 -7 18 -10 9 -11 8 -5 -6z"/>
<path d="M1879 3233 c-13 -16 -12 -17 4 -4 16 13 21 21 13 21 -2 0 -10 -8 -17
-17z"/>
<path d="M2081 3214 c0 -11 3 -14 6 -6 3 7 2 16 -1 19 -3 4 -6 -2 -5 -13z"/>
<path d="M2220 3221 c0 -6 4 -13 10 -16 6 -3 7 1 4 9 -7 18 -14 21 -14 7z"/>
<path d="M1690 3201 c0 -6 4 -13 10 -16 6 -3 7 1 4 9 -7 18 -14 21 -14 7z"/>
<path d="M1799 3202 c8 -6 11 -17 8 -26 -3 -8 -2 -18 2 -20 4 -3 8 7 7 21 -1
14 -8 28 -16 30 -12 4 -13 3 -1 -5z"/>
<path d="M1734 3178 l-19 -23 23 19 c21 18 27 26 19 26 -2 0 -12 -10 -23 -22z"/>
<path d="M2245 3191 c-3 -5 -2 -12 3 -15 5 -3 9 1 9 9 0 17 -3 19 -12 6z"/>
<path d="M1650 3183 c0 -6 4 -14 10 -18 19 -12 -1 -32 -27 -27 -22 4 -24 2
-18 -17 6 -20 -6 -27 -37 -22 -5 0 -8 -3 -8 -9 0 -5 5 -10 11 -10 20 0 49 21
49 36 0 10 6 13 19 9 13 -4 20 0 24 15 4 14 10 18 24 13 10 -3 15 -3 11 1 -3
4 -14 9 -23 10 -9 1 -21 9 -26 17 -5 9 -9 10 -9 2z"/>
<path d="M1775 3180 c3 -5 8 -10 11 -10 2 0 4 5 4 10 0 6 -5 10 -11 10 -5 0
-7 -4 -4 -10z"/>
<path d="M1620 3165 c-7 -8 -16 -12 -21 -9 -5 3 -27 -12 -48 -33 -33 -32 -36
-39 -24 -49 13 -9 13 -14 3 -35 -12 -21 -12 -23 2 -11 12 9 23 10 43 2 15 -6
31 -8 36 -5 13 8 -11 31 -34 32 -43 4 -45 48 -3 59 11 3 31 19 44 35 24 29 25
42 2 14z"/>
<path d="M2411 3171 c-8 -5 -9 -11 -3 -15 5 -3 12 1 16 9 6 17 6 18 -13 6z"/>
<path d="M2252 3140 c0 -14 2 -19 5 -12 2 6 2 18 0 25 -3 6 -5 1 -5 -13z"/>
<path d="M1970 3116 c0 -2 8 -10 18 -17 15 -13 16 -12 3 4 -13 16 -21 21 -21
13z"/>
<path d="M1819 3076 c13 -16 51 -41 51 -33 0 2 -15 14 -32 27 -21 15 -28 17
-19 6z"/>
<path d="M2850 3021 c0 -6 4 -13 10 -16 6 -3 7 1 4 9 -7 18 -14 21 -14 7z"/>
<path d="M1727 2979 c7 -7 15 -10 18 -7 3 3 -2 9 -12 12 -14 6 -15 5 -6 -5z"/>
<path d="M2090 2961 c-98 -27 -132 -46 -167 -98 -75 -113 -67 -188 32 -288 33
-34 86 -78 117 -98 53 -35 63 -38 120 -36 35 1 92 -3 128 -10 166 -30 178 -31
273 -21 86 10 236 37 213 39 -6 1 0 10 11 20 18 17 20 29 17 101 -4 100 -14
119 -14 27 0 -54 -3 -67 -15 -67 -9 0 -18 -7 -21 -15 -4 -10 -19 -14 -45 -13
-21 1 -45 -4 -53 -11 -9 -7 -17 -8 -20 -2 -4 6 -18 3 -36 -6 -24 -11 -34 -12
-45 -3 -10 8 -19 9 -32 1 -16 -9 -15 -10 10 -11 15 0 27 -5 27 -11 0 -7 12 -9
36 -4 28 5 35 3 32 -7 -11 -31 -141 2 -279 72 -67 34 -136 61 -165 65 -72 11
-122 33 -187 83 -31 25 -59 43 -62 40 -8 -8 70 -67 129 -98 30 -15 53 -30 51
-32 -2 -1 18 -4 44 -5 26 -2 65 -10 87 -19 60 -25 108 -47 114 -53 5 -6 60
-32 120 -59 l25 -11 -26 0 c-14 -1 -72 7 -130 16 -57 9 -137 17 -176 16 -48 0
-70 3 -66 10 3 5 1 7 -5 4 -15 -10 -43 3 -35 17 3 6 3 8 -2 4 -16 -15 -171
123 -160 143 4 5 1 8 -6 7 -7 -2 -14 2 -14 7 -1 6 -5 22 -9 36 -13 44 -14 64
-4 76 5 7 6 18 2 24 -4 7 -3 9 3 6 6 -4 13 6 16 23 5 25 67 105 67 87 0 -3 28
6 61 19 34 14 64 23 67 20 3 -3 12 0 20 7 13 10 14 9 7 -3 -7 -12 -6 -13 6 -4
17 14 59 25 59 16 0 -4 14 -7 30 -7 17 0 30 4 30 8 0 5 6 5 13 0 6 -4 17 -8
22 -8 54 -3 135 -19 135 -26 0 -5 16 -9 36 -9 64 0 273 -107 258 -132 -3 -4 1
-8 8 -8 15 0 43 -29 43 -45 1 -16 28 -65 36 -65 4 0 5 10 2 23 -4 18 -3 19 6
7 6 -8 11 -10 11 -4 0 12 -59 84 -105 128 -37 35 -183 106 -219 106 -14 0 -26
4 -26 9 0 4 -17 11 -37 15 -21 3 -60 10 -88 15 -77 15 -203 11 -275 -8z m733
-457 c11 -11 -3 -24 -18 -18 -8 4 -12 10 -9 15 6 11 18 12 27 3z m-38 -23 c3
-5 1 -12 -4 -15 -5 -3 -11 1 -15 9 -6 16 9 21 19 6z m-26 -17 c8 -7 -30 -16
-44 -10 -27 10 -17 27 13 20 15 -4 29 -8 31 -10z"/>
<path d="M1440 2960 c0 -5 5 -10 11 -10 5 0 7 5 4 10 -3 6 -8 10 -11 10 -2 0
-4 -4 -4 -10z"/>
<path d="M2996 2893 c-6 -14 -5 -15 5 -6 7 7 10 15 7 18 -3 3 -9 -2 -12 -12z"/>
<path d="M1398 2800 c-9 -22 -15 -40 -13 -40 14 0 50 48 47 63 -6 27 -16 20
-34 -23z"/>
<path d="M1450 2820 c0 -5 5 -10 11 -10 5 0 7 5 4 10 -3 6 -8 10 -11 10 -2 0
-4 -4 -4 -10z"/>
<path d="M1551 2786 c14 -7 39 -16 55 -19 28 -6 28 -6 4 4 -14 6 -33 15 -42
20 -10 5 -23 9 -30 9 -7 0 -1 -6 13 -14z"/>
<path d="M1986 2764 c23 -21 51 -54 63 -71 17 -25 35 -36 74 -47 74 -20 127
-28 127 -19 0 4 -15 9 -33 10 -70 5 -117 25 -155 67 -20 23 -55 55 -77 70
l-40 29 41 -39z"/>
<path d="M3197 2789 c7 -7 15 -10 18 -7 3 3 -2 9 -12 12 -14 6 -15 5 -6 -5z"/>
<path d="M2820 2781 c0 -6 4 -11 9 -11 18 0 114 -107 131 -145 23 -55 32 -116
18 -132 -8 -10 -6 -13 7 -13 16 0 17 7 12 54 -7 68 -44 140 -99 192 -60 56
-78 69 -78 55z"/>
<path d="M1405 2740 c3 -5 8 -10 11 -10 2 0 4 5 4 10 0 6 -5 10 -11 10 -5 0
-7 -4 -4 -10z"/>
<path d="M1693 2743 c9 -2 23 -2 30 0 6 3 -1 5 -18 5 -16 0 -22 -2 -12 -5z"/>
<path d="M1458 2688 c4 -4 21 -3 37 1 30 9 30 9 -7 8 -20 -1 -34 -5 -30 -9z"/>
<path d="M1610 2686 c0 -2 7 -7 16 -10 8 -3 12 -2 9 4 -6 10 -25 14 -25 6z"/>
<path d="M2261 2612 c0 -4 46 -29 101 -57 139 -69 158 -77 158 -65 0 5 -5 10
-11 10 -11 0 -70 28 -170 82 -57 31 -79 39 -78 30z"/>
<path d="M1384 2598 c-4 -7 -4 -10 1 -6 4 4 15 2 24 -5 14 -11 14 -10 2 6 -16
20 -18 21 -27 5z"/>
<path d="M3218 2572 c4 -11 1 -13 -8 -7 -9 5 -11 4 -6 -3 10 -16 14 -15 25 6
7 14 6 19 -4 19 -7 0 -11 -7 -7 -15z"/>
<path d="M3301 2558 c0 -20 -5 -48 -11 -62 -6 -18 -6 -26 1 -26 6 0 9 -6 6
-12 -2 -7 -11 -11 -18 -10 -8 2 -11 0 -7 -4 4 -4 3 -13 -4 -21 -8 -11 -7 -12
5 -8 12 5 14 -1 12 -32 -1 -21 -7 -51 -14 -66 -6 -16 -11 -44 -11 -63 0 -19
-4 -34 -10 -34 -5 0 -10 12 -10 28 0 20 -3 23 -9 13 -5 -8 -8 -22 -6 -32 2
-10 -1 -18 -8 -16 -6 1 -12 -4 -13 -10 -1 -7 -2 -16 -3 -19 0 -4 -8 -1 -16 6
-13 11 -14 10 -9 -4 8 -20 13 -20 37 1 18 17 19 17 16 -7 -2 -13 -14 -29 -25
-35 -12 -6 -29 -17 -38 -24 -9 -8 -19 -11 -23 -7 -3 3 -15 -1 -25 -11 -17 -15
-18 -15 -18 5 0 12 0 25 1 28 0 4 -5 10 -11 14 -9 6 -9 13 -1 28 6 11 11 40
11 64 0 24 9 61 20 83 11 21 19 39 17 41 -7 5 -106 47 -130 54 -16 5 -38 5
-50 0 -21 -8 -10 -15 20 -11 7 1 26 -5 42 -14 17 -8 39 -15 51 -15 11 0 20 -4
20 -10 0 -5 7 -7 15 -4 19 8 19 -1 -1 -31 -9 -14 -13 -25 -10 -25 4 0 2 -9 -4
-19 -5 -11 -12 -40 -15 -66 -2 -25 -9 -54 -15 -65 -8 -16 -8 -18 4 -14 26 10
30 -35 6 -61 l-22 -24 48 15 c27 8 59 19 71 26 43 22 34 0 -29 -66 -65 -70
-180 -166 -198 -166 -5 0 -10 -4 -10 -9 0 -11 -62 -49 -140 -86 -173 -82 -476
-88 -732 -15 -21 6 -42 18 -47 27 -7 13 -20 16 -54 14 -27 -1 -58 4 -76 13
-39 21 -52 20 -23 0 35 -25 224 -93 309 -112 110 -24 410 -24 507 1 98 25 208
83 324 171 141 107 213 187 246 273 63 164 84 289 67 393 -7 47 -9 50 -10 18z"/>
<path d="M2925 2550 c3 -5 8 -10 11 -10 2 0 4 5 4 10 0 6 -5 10 -11 10 -5 0
-7 -4 -4 -10z"/>
<path d="M1425 2542 c-8 -8 86 -102 102 -102 7 0 10 -6 8 -13 -3 -6 3 -17 13
-24 15 -9 19 -8 19 3 0 8 -7 14 -14 14 -8 0 -12 4 -8 9 3 6 -3 15 -14 21 -11
6 -18 16 -15 24 7 17 -22 41 -31 26 -5 -8 -13 -6 -27 6 -18 17 -18 19 -2 24
16 6 15 7 -3 12 -12 3 -24 3 -28 0z m85 -63 c0 -5 -4 -9 -8 -9 -5 0 -9 7 -9
15 0 8 4 12 9 9 4 -3 8 -9 8 -15z"/>
<path d="M3250 2498 c-14 -22 -36 -52 -50 -68 -44 -49 -80 -133 -80 -185 l0
-47 20 23 c20 24 20 24 35 5 8 -11 15 -15 15 -9 0 5 -8 17 -18 26 -14 13 -21
14 -30 5 -8 -8 -10 -2 -7 22 5 35 32 100 41 100 6 0 -3 -77 -10 -89 -3 -4 9
-5 27 -2 18 3 25 6 15 9 -15 3 -15 7 -5 23 10 16 9 21 -2 28 -8 5 -11 16 -8
26 4 9 3 14 -3 10 -24 -15 -7 19 30 58 34 38 66 94 58 102 -2 2 -14 -15 -28
-37z"/>
<path d="M2911 2515 c2 -36 -1 -43 -18 -49 -10 -2 0 -3 21 0 22 2 42 7 45 11
3 3 -4 3 -17 0 -16 -4 -22 -2 -19 6 2 7 0 21 -4 32 -9 20 -9 20 -8 0z"/>
<path d="M2833 2460 c-10 -15 -9 -17 8 -13 20 5 25 18 11 27 -4 2 -13 -4 -19
-14z"/>
<path d="M1321 2434 c0 -11 3 -14 6 -6 3 7 2 16 -1 19 -3 4 -6 -2 -5 -13z"/>
<path d="M1340 2401 c0 -24 25 -83 32 -76 3 3 8 -8 12 -25 4 -20 10 -29 17
-24 8 4 9 3 5 -4 -9 -15 77 -143 145 -216 40 -44 56 -55 72 -50 12 4 17 2 13
-4 -3 -5 2 -9 12 -8 11 1 16 -5 14 -17 -2 -10 7 -27 20 -38 42 -37 141 -99
157 -99 9 0 0 8 -19 18 -19 9 -42 24 -50 32 -9 8 -32 26 -53 40 -41 28 -44 35
-21 44 15 6 15 8 -1 26 -11 12 -26 18 -36 15 -9 -3 -23 0 -30 8 -8 7 -22 16
-31 20 -10 3 -18 16 -18 27 0 23 -25 53 -53 63 -10 4 -15 11 -12 17 7 11 -31
80 -43 79 -28 -4 -40 3 -35 21 3 12 0 20 -7 20 -7 0 -10 7 -6 15 3 8 1 14 -3
12 -11 -3 -56 62 -66 94 -7 23 -7 24 8 4 16 -20 16 -20 10 3 -7 27 -33 30 -33
3z m159 -243 c-1 -20 -2 -21 -6 -3 -3 11 -9 24 -14 30 -16 16 -10 27 6 11 8
-8 14 -25 14 -38z m51 -48 c0 -5 -2 -10 -4 -10 -3 0 -8 5 -11 10 -3 6 -1 10 4
10 6 0 11 -4 11 -10z m20 -30 c0 -5 -2 -10 -4 -10 -3 0 -8 5 -11 10 -3 6 -1
10 4 10 6 0 11 -4 11 -10z m119 -84 c9 -11 8 -15 -6 -20 -10 -4 -14 -4 -10 0
4 4 2 13 -4 21 -7 8 -8 13 -1 13 5 0 15 -6 21 -14z"/>
<path d="M2228 2379 c190 -90 354 -129 475 -111 109 17 167 42 189 83 10 19
23 33 28 31 6 -1 10 2 10 8 0 6 -8 10 -18 10 -12 0 -23 -13 -31 -36 -20 -55
-98 -84 -234 -86 -79 -1 -227 28 -227 44 0 5 -5 6 -11 2 -7 -4 -20 4 -30 17
-10 13 -19 19 -19 12 0 -7 -7 -10 -15 -7 -8 4 -12 11 -8 18 4 6 -2 4 -12 -4
-11 -9 -16 -10 -11 -2 5 8 -2 14 -23 18 -17 4 -31 10 -31 14 0 7 -88 31 -108
29 -4 0 30 -18 76 -40z"/>
<path d="M3239 2400 c-1 -8 -1 -21 0 -29 2 -7 -2 -10 -7 -7 -5 3 -4 -11 2 -30
l11 -35 7 48 c4 27 3 52 -2 57 -7 7 -10 5 -11 -4z"/>
<path d="M1581 2377 c2 -1 13 -9 24 -17 19 -14 19 -14 6 3 -7 9 -18 17 -24 17
-6 0 -8 -1 -6 -3z"/>
<path d="M2481 2358 c-1 -20 14 -24 25 -6 4 6 3 8 -4 4 -5 -3 -13 0 -15 6 -3
8 -6 6 -6 -4z"/>
<path d="M2615 2360 c4 -6 11 -8 16 -5 14 9 11 15 -7 15 -8 0 -12 -5 -9 -10z"/>
<path d="M2658 2363 c7 -3 16 -2 19 1 4 3 -2 6 -13 5 -11 0 -14 -3 -6 -6z"/>
<path d="M2986 2355 c10 -8 24 -14 29 -14 6 0 1 6 -9 14 -11 8 -24 15 -30 15
-5 0 -1 -7 10 -15z"/>
<path d="M1577 2333 c-2 -4 9 -18 24 -31 16 -13 29 -18 29 -12 0 6 5 8 12 4 7
-4 8 -3 4 4 -4 6 -13 9 -20 6 -8 -3 -21 4 -29 16 -8 12 -17 18 -20 13z"/>
<path d="M1720 2300 c0 -5 8 -7 18 -3 9 3 14 3 10 -2 -9 -9 20 -34 40 -35 6 0
12 5 12 11 0 5 -4 8 -9 5 -4 -3 -16 3 -26 14 -19 21 -45 27 -45 10z"/>
<path d="M1814 2258 c-7 -11 -11 -8 53 -38 29 -13 56 -20 60 -17 3 4 4 8 2 10
-46 27 -110 53 -115 45z"/>
<path d="M1973 2185 c0 -8 37 -25 86 -40 47 -15 103 -34 125 -42 21 -7 58 -15
83 -17 24 -2 47 -7 50 -10 4 -3 18 -6 32 -6 22 1 19 3 -14 15 -22 8 -56 17
-75 20 -19 3 -62 12 -95 21 -33 8 -72 18 -87 21 -16 3 -28 10 -28 15 0 5 -4 7
-8 4 -5 -3 -22 3 -39 13 -21 14 -30 15 -30 6z"/>
<path d="M1870 2078 c0 -4 6 -8 13 -9 6 0 22 -2 35 -5 12 -2 22 0 22 5 0 5
-16 11 -35 13 -19 2 -35 0 -35 -4z"/>
<path d="M1966 2080 c-18 -6 -18 -7 -2 -13 10 -4 26 -7 36 -7 10 0 20 -5 22
-11 2 -7 9 -5 17 5 12 14 11 16 -8 16 -11 0 -24 0 -27 -1 -4 0 -10 4 -13 9 -3
5 -15 6 -25 2z"/>
<path d="M1668 2074 c-4 -3 -4 -12 -2 -19 3 -7 -3 -15 -13 -18 -12 -3 -8 -5
10 -6 17 -1 39 -12 54 -28 31 -34 9 1 -26 40 -27 30 -19 37 12 10 19 -17 19
-17 16 2 -4 19 -38 32 -51 19z"/>
<path d="M2495 2060 c-3 -5 1 -10 10 -10 9 0 13 5 10 10 -3 6 -8 10 -10 10 -2
0 -7 -4 -10 -10z"/>
<path d="M2950 2043 c-55 -25 -71 -31 -135 -53 -33 -11 -61 -24 -63 -30 -2 -5
-19 -14 -38 -20 -19 -6 -34 -16 -34 -21 0 -14 9 -11 56 21 24 16 61 34 81 39
54 15 153 57 166 70 14 14 10 13 -33 -6z"/>
<path d="M2698 2043 c6 -2 18 -2 25 0 6 3 1 5 -13 5 -14 0 -19 -2 -12 -5z"/>
<path d="M1725 1959 c-4 -6 -5 -11 -4 -12 37 -22 89 -44 75 -33 -11 9 -25 16
-30 16 -6 0 -4 5 4 10 12 8 10 10 -10 10 -20 0 -22 2 -10 10 13 8 13 10 -2 10
-9 0 -20 -5 -23 -11z"/>
<path d="M2645 1891 c-19 -17 -142 -41 -211 -41 -85 0 -175 -10 -169 -19 2 -4
34 -4 71 0 37 4 92 5 122 3 30 -2 60 0 66 4 6 5 36 14 66 21 54 12 110 41 79
41 -8 0 -19 -4 -24 -9z"/>
<path d="M2001 1817 c10 -10 64 -15 89 -7 13 4 99 1 128 -4 33 -6 45 7 16 18
-9 3 -67 6 -130 6 -94 0 -113 -2 -103 -13z"/>
</g>
</svg>
