<?xml version="1.0" encoding="UTF-8"?>
<svg xmlns="http://www.w3.org/2000/svg" xmlns:xlink="http://www.w3.org/1999/xlink" width="32px" height="32px" viewBox="0 0 32 32" version="1.1">
<g id="surface1">
<path style=" stroke:none;fill-rule:nonzero;fill:rgb(100%,100%,100%);fill-opacity:1;" d="M 15.042969 31.957031 L 0.835938 1.183594 L 31.613281 15.386719 Z M 15.042969 31.957031 "/>
<path style=" stroke:none;fill-rule:nonzero;fill:rgb(0%,0%,0%);fill-opacity:1;" d="M 0.886719 1.21875 C 0.875 1.378906 0.929688 1.644531 1.011719 1.824219 C 1.183594 2.175781 2.058594 4.554688 2.953125 7.105469 C 3.273438 8.011719 3.820312 9.472656 4.179688 10.359375 C 4.535156 11.234375 5.097656 12.707031 5.441406 13.613281 C 5.769531 14.519531 6.28125 15.765625 6.558594 16.386719 C 6.835938 17.003906 7.425781 18.445312 7.863281 19.585938 C 8.289062 20.726562 8.886719 22.242188 9.171875 22.945312 C 9.460938 23.648438 10.015625 25.035156 10.398438 26.039062 C 10.792969 27.03125 11.230469 28.035156 11.371094 28.246094 C 11.507812 28.472656 11.625 28.78125 11.625 28.941406 C 11.625 29.335938 12.382812 30.847656 12.851562 31.394531 C 13.609375 32.277344 14.324219 32.246094 16.339844 31.277344 C 17.003906 30.957031 18.070312 30.453125 18.699219 30.15625 C 20.105469 29.503906 21.566406 28.492188 22.988281 27.210938 C 23.574219 26.691406 24.394531 25.964844 24.800781 25.613281 C 25.921875 24.652344 28.289062 22.253906 28.597656 21.773438 C 29.566406 20.289062 30.089844 19.4375 30.25 19.148438 C 30.539062 18.582031 31.148438 16.269531 31.148438 15.734375 C 31.148438 15.042969 31.019531 14.765625 30.441406 14.144531 C 29.921875 13.589844 29.492188 13.378906 28.375 13.144531 C 27.59375 12.972656 25.769531 12.214844 22.335938 10.625 C 18.558594 8.867188 15.316406 7.394531 11.785156 5.824219 C 7.199219 3.789062 3.902344 2.285156 2.433594 1.546875 C 1.738281 1.195312 1.121094 0.917969 1.046875 0.917969 C 0.96875 0.917969 0.894531 1.046875 0.886719 1.21875 Z M 2.324219 1.761719 C 2.890625 2.039062 4.320312 2.699219 5.492188 3.210938 C 6.667969 3.734375 7.679688 4.195312 7.734375 4.257812 C 7.796875 4.3125 7.660156 4.277344 7.425781 4.183594 C 7.199219 4.085938 6.921875 4.011719 6.804688 4.011719 C 6.699219 4.011719 6.304688 3.863281 5.941406 3.679688 C 5.097656 3.253906 3.820312 2.773438 4.097656 3 C 4.214844 3.085938 4.523438 3.234375 4.789062 3.328125 C 5.054688 3.425781 5.589844 3.640625 5.972656 3.808594 C 6.355469 3.96875 7.09375 4.234375 7.605469 4.386719 C 8.4375 4.628906 8.617188 4.738281 9.207031 5.292969 C 9.726562 5.78125 10.027344 5.964844 10.65625 6.175781 C 11.09375 6.335938 11.476562 6.445312 11.5 6.414062 C 11.5625 6.347656 10.761719 5.964844 10.292969 5.835938 C 10.015625 5.761719 9.683594 5.546875 9.386719 5.238281 L 8.90625 4.75 L 9.707031 5.121094 C 10.144531 5.324219 11.851562 6.101562 13.492188 6.839844 C 17.429688 8.621094 17.523438 8.671875 17.398438 8.757812 C 17.332031 8.789062 17.300781 8.875 17.332031 8.929688 C 17.375 8.984375 17.34375 9.027344 17.28125 9.027344 C 17.214844 9.027344 17.183594 9.058594 17.207031 9.101562 C 17.238281 9.152344 17.214844 9.28125 17.164062 9.398438 C 17.089844 9.601562 17.078125 9.601562 17.078125 9.367188 C 17.066406 9.226562 17.121094 9.027344 17.171875 8.917969 C 17.238281 8.800781 17.238281 8.695312 17.183594 8.652344 C 16.863281 8.460938 16.875 9.792969 17.183594 10.773438 C 17.386719 11.402344 17.535156 11.640625 18.039062 12.152344 C 18.816406 12.929688 19.660156 13.335938 20.5 13.34375 C 21.011719 13.34375 21.152344 13.304688 21.503906 13.015625 C 21.941406 12.664062 22.273438 12.097656 22.453125 11.425781 L 22.558594 10.976562 L 23.414062 11.382812 C 23.882812 11.605469 24.917969 12.066406 25.71875 12.394531 C 27.0625 12.960938 27.167969 13.027344 27.265625 13.355469 C 27.347656 13.601562 27.347656 13.738281 27.265625 13.824219 C 27.210938 13.878906 27.199219 13.933594 27.242188 13.933594 C 27.296875 13.933594 27.273438 14.007812 27.199219 14.09375 C 27.09375 14.21875 27.09375 14.253906 27.210938 14.253906 C 27.328125 14.253906 27.328125 14.273438 27.199219 14.359375 C 26.976562 14.507812 26.902344 14.488281 26.859375 14.285156 C 26.835938 14.15625 26.792969 14.1875 26.6875 14.414062 C 26.558594 14.679688 26.570312 14.699219 26.710938 14.570312 C 26.816406 14.488281 26.878906 14.476562 26.878906 14.550781 C 26.878906 14.613281 26.964844 14.648438 27.070312 14.605469 C 27.222656 14.550781 27.210938 14.570312 27.039062 14.710938 C 26.878906 14.847656 26.871094 14.882812 26.988281 14.890625 C 27.125 14.890625 27.125 14.914062 26.988281 14.988281 C 26.902344 15.050781 26.792969 15.0625 26.730469 15.03125 C 26.675781 14.988281 26.65625 15.042969 26.699219 15.136719 C 26.742188 15.246094 26.804688 15.394531 26.835938 15.480469 C 26.871094 15.5625 26.847656 15.640625 26.785156 15.640625 C 26.71875 15.640625 26.667969 15.703125 26.667969 15.789062 C 26.667969 15.863281 26.570312 15.957031 26.453125 15.992188 C 26.273438 16.035156 26.238281 15.992188 26.238281 15.660156 C 26.230469 14.839844 25.953125 13.472656 25.75 13.324219 C 25.535156 13.164062 25.214844 13.144531 25.128906 13.28125 C 25.023438 13.441406 25.460938 16.054688 25.644531 16.320312 C 25.835938 16.628906 26.070312 16.597656 26.367188 16.234375 C 26.613281 15.9375 26.601562 16.128906 26.347656 16.597656 C 26.230469 16.800781 26.113281 17.058594 26.070312 17.152344 C 26.039062 17.261719 25.960938 17.34375 25.910156 17.34375 C 25.855469 17.34375 25.8125 17.421875 25.8125 17.503906 C 25.8125 17.644531 25.769531 17.65625 25.601562 17.558594 C 25.375 17.441406 25.34375 17.472656 25.386719 17.824219 C 25.40625 17.996094 25.386719 18.007812 25.238281 17.890625 C 25.121094 17.78125 25.066406 17.78125 25.066406 17.867188 C 25.066406 17.941406 24.949219 18.101562 24.800781 18.242188 C 24.652344 18.378906 24.535156 18.550781 24.535156 18.613281 C 24.535156 18.691406 24.492188 18.710938 24.425781 18.679688 C 24.375 18.648438 24.320312 18.710938 24.320312 18.828125 C 24.320312 18.957031 24.257812 19.050781 24.171875 19.050781 C 24.085938 19.050781 23.980469 19.105469 23.9375 19.179688 C 23.882812 19.253906 23.902344 19.265625 24 19.210938 C 24.085938 19.160156 24.117188 19.179688 24.085938 19.277344 C 24.054688 19.363281 23.957031 19.425781 23.882812 19.414062 C 23.796875 19.402344 23.667969 19.46875 23.59375 19.542969 C 23.488281 19.660156 23.488281 19.691406 23.625 19.691406 C 23.710938 19.691406 23.785156 19.746094 23.785156 19.808594 C 23.785156 19.863281 23.742188 19.894531 23.703125 19.863281 C 23.660156 19.839844 23.550781 19.851562 23.464844 19.917969 C 23.359375 19.980469 23.347656 20.011719 23.445312 20.011719 C 23.507812 20.011719 23.574219 20.054688 23.574219 20.117188 C 23.574219 20.171875 23.507812 20.226562 23.425781 20.226562 C 23.339844 20.226562 23.167969 20.355469 23.050781 20.503906 C 22.910156 20.683594 22.828125 20.726562 22.828125 20.628906 C 22.828125 20.546875 22.753906 20.472656 22.667969 20.472656 C 22.496094 20.472656 22.441406 20.609375 22.601562 20.671875 C 22.65625 20.683594 22.632812 20.800781 22.550781 20.90625 C 22.398438 21.109375 22.398438 21.109375 22.398438 20.886719 C 22.398438 20.757812 22.347656 20.652344 22.28125 20.652344 C 22.21875 20.652344 22.199219 20.75 22.238281 20.867188 C 22.28125 21.003906 22.261719 21.078125 22.164062 21.078125 C 22.058594 21.078125 22.058594 21.101562 22.175781 21.175781 C 22.367188 21.304688 22.59375 21.21875 22.644531 20.992188 C 22.675781 20.867188 22.699219 20.875 22.710938 21.046875 C 22.71875 21.304688 22.484375 21.421875 22.101562 21.34375 C 21.929688 21.3125 21.867188 21.355469 21.855469 21.515625 C 21.835938 21.859375 21.8125 21.910156 21.726562 21.996094 C 21.683594 22.039062 21.652344 22.015625 21.652344 21.941406 C 21.652344 21.835938 21.589844 21.847656 21.386719 21.976562 C 21.246094 22.070312 21.035156 22.144531 20.90625 22.144531 C 20.714844 22.144531 20.640625 22.304688 20.683594 22.59375 C 20.683594 22.648438 20.617188 22.679688 20.535156 22.679688 C 20.449219 22.679688 20.363281 22.722656 20.363281 22.785156 C 20.351562 22.839844 20.339844 22.957031 20.332031 23.019531 C 20.320312 23.09375 20.234375 23.148438 20.128906 23.125 C 20.03125 23.105469 19.957031 23.136719 19.96875 23.179688 C 19.988281 23.234375 19.894531 23.382812 19.765625 23.53125 C 19.625 23.671875 19.519531 23.734375 19.519531 23.679688 C 19.519531 23.628906 19.425781 23.574219 19.316406 23.574219 C 19.167969 23.574219 19.09375 23.671875 19.039062 23.925781 C 19.007812 24.117188 18.945312 24.269531 18.902344 24.269531 C 18.675781 24.234375 18.570312 24.300781 18.625 24.429688 C 18.65625 24.511719 18.632812 24.609375 18.570312 24.652344 C 18.507812 24.683594 18.453125 24.671875 18.453125 24.621094 C 18.453125 24.566406 18.347656 24.535156 18.21875 24.546875 C 18.078125 24.566406 17.984375 24.628906 18.003906 24.707031 C 18.015625 24.78125 17.972656 24.898438 17.910156 24.984375 C 17.8125 25.101562 17.824219 25.132812 17.921875 25.132812 C 18.015625 25.132812 18.003906 25.195312 17.878906 25.335938 C 17.769531 25.453125 17.609375 25.515625 17.492188 25.484375 C 17.34375 25.441406 17.269531 25.503906 17.214844 25.71875 C 17.171875 25.898438 17.097656 25.976562 17.003906 25.941406 C 16.917969 25.910156 16.851562 25.953125 16.851562 26.050781 C 16.851562 26.167969 16.789062 26.1875 16.617188 26.144531 C 16.4375 26.082031 16.40625 26.101562 16.457031 26.242188 C 16.5 26.347656 16.46875 26.414062 16.375 26.414062 C 16.289062 26.414062 16.214844 26.371094 16.214844 26.316406 C 16.214844 26.261719 16.117188 26.242188 15.988281 26.273438 C 15.820312 26.316406 15.808594 26.359375 15.914062 26.421875 C 16.011719 26.488281 15.9375 26.519531 15.710938 26.519531 C 15.519531 26.519531 15.359375 26.5625 15.359375 26.605469 C 15.359375 26.65625 15.1875 26.699219 14.988281 26.710938 C 14.785156 26.722656 14.613281 26.679688 14.613281 26.625 C 14.613281 26.488281 14.273438 26.613281 14.113281 26.808594 C 14.046875 26.890625 13.8125 26.96875 13.601562 26.976562 C 13.246094 26.988281 13.226562 27 13.398438 27.125 C 13.503906 27.203125 13.652344 27.265625 13.726562 27.265625 C 13.800781 27.265625 13.867188 27.308594 13.867188 27.371094 C 13.867188 27.523438 13.726562 27.511719 13.566406 27.351562 C 13.484375 27.265625 13.441406 27.265625 13.441406 27.339844 C 13.441406 27.488281 12.929688 27.585938 12.875 27.445312 C 12.851562 27.382812 12.726562 27.371094 12.554688 27.414062 C 12.351562 27.457031 12.289062 27.53125 12.339844 27.648438 C 12.394531 27.789062 12.363281 27.808594 12.179688 27.746094 C 12 27.691406 11.945312 27.722656 11.945312 27.875 C 11.9375 28.160156 11.347656 26.976562 10.710938 25.355469 C 10.390625 24.566406 10.132812 23.894531 10.132812 23.875 C 10.132812 23.839844 10.21875 23.894531 10.316406 23.980469 C 10.976562 24.554688 12.320312 24.726562 12.886719 24.3125 C 13.460938 23.882812 13.621094 22.796875 13.171875 22.273438 C 13.035156 22.101562 12.9375 21.933594 12.980469 21.890625 C 13.011719 21.859375 12.8125 21.824219 12.523438 21.824219 C 12.234375 21.824219 11.925781 21.773438 11.839844 21.71875 C 11.722656 21.644531 11.777344 21.613281 12.054688 21.613281 C 12.480469 21.613281 13.609375 21.898438 13.28125 21.933594 C 13.164062 21.933594 13.332031 22.027344 13.664062 22.136719 C 13.996094 22.242188 14.484375 22.488281 14.761719 22.679688 C 15.199219 22.96875 15.328125 23.007812 15.59375 22.933594 C 15.882812 22.847656 15.957031 22.742188 16.214844 21.984375 C 16.714844 20.546875 16.832031 20.117188 16.726562 20.054688 C 16.671875 20.023438 16.214844 19.882812 15.703125 19.746094 C 15.1875 19.605469 14.65625 19.445312 14.507812 19.394531 L 14.238281 19.285156 L 14.582031 19.160156 C 15.050781 18.988281 15.574219 18.261719 15.574219 17.78125 C 15.574219 16.886719 14.667969 15.617188 13.769531 15.246094 C 13.246094 15.019531 12.019531 15.03125 11.285156 15.246094 C 10.367188 15.523438 8.574219 16.78125 8.789062 16.992188 C 8.832031 17.035156 8.949219 16.984375 9.046875 16.855469 C 9.246094 16.609375 9.601562 16.332031 9.601562 16.417969 C 9.601562 16.589844 8.9375 17.144531 8.800781 17.089844 C 8.597656 17.015625 8.320312 17.429688 8.160156 18.058594 L 8.042969 18.539062 L 7.585938 17.28125 C 7.136719 16.054688 6.632812 14.753906 4.800781 10.039062 C 4.320312 8.800781 3.625 6.957031 3.242188 5.910156 C 2.871094 4.875 2.390625 3.660156 2.1875 3.203125 C 1.609375 1.941406 1.835938 2.136719 2.464844 3.4375 C 2.773438 4.078125 3.125 4.726562 3.265625 4.898438 C 3.402344 5.058594 3.542969 5.398438 3.585938 5.664062 C 3.617188 5.933594 3.691406 6.144531 3.753906 6.144531 C 3.988281 6.144531 3.59375 4.941406 3.265625 4.664062 C 3.179688 4.589844 3.050781 4.355469 2.976562 4.140625 C 2.804688 3.597656 2.039062 2.304688 1.855469 2.230469 C 1.769531 2.199219 1.601562 1.984375 1.484375 1.75 C 1.367188 1.515625 1.238281 1.34375 1.214844 1.378906 C 1.183594 1.410156 1.355469 1.816406 1.589844 2.285156 C 2.015625 3.136719 2.398438 4.085938 3.667969 7.53125 C 4.042969 8.554688 4.746094 10.402344 5.226562 11.640625 C 5.707031 12.867188 6.644531 15.339844 7.308594 17.132812 C 7.96875 18.925781 8.800781 21.101562 9.152344 21.984375 C 9.503906 22.859375 10.015625 24.183594 10.292969 24.917969 C 10.570312 25.65625 11.007812 26.699219 11.265625 27.253906 C 11.722656 28.226562 11.839844 28.726562 11.457031 27.992188 C 11.03125 27.203125 9.589844 23.660156 8.214844 20.011719 C 7.839844 19.042969 7.285156 17.621094 6.964844 16.867188 C 6.644531 16.097656 6.039062 14.5625 5.601562 13.453125 C 5.171875 12.332031 4.554688 10.765625 4.234375 9.964844 C 3.902344 9.164062 3.414062 7.839844 3.136719 7.03125 C 2.859375 6.21875 2.527344 5.292969 2.398438 4.972656 C 2.261719 4.652344 1.953125 3.808594 1.707031 3.105469 C 1.460938 2.402344 1.207031 1.761719 1.152344 1.699219 C 1.046875 1.570312 1.097656 1.238281 1.226562 1.238281 C 1.257812 1.238281 1.75 1.472656 2.324219 1.761719 Z M 17.621094 9.195312 C 17.535156 9.367188 17.535156 9.878906 17.621094 10.59375 C 17.632812 10.667969 17.683594 10.730469 17.738281 10.730469 C 17.800781 10.730469 17.824219 10.765625 17.78125 10.796875 C 17.652344 10.925781 18.675781 12.035156 19.265625 12.40625 C 19.519531 12.566406 19.734375 12.738281 19.734375 12.78125 C 19.734375 12.992188 19.457031 12.960938 19.007812 12.695312 C 18.273438 12.269531 18.015625 12.011719 18.089844 11.757812 C 18.132812 11.574219 18.121094 11.5625 18.039062 11.691406 C 17.824219 12.011719 17.238281 10.230469 17.34375 9.570312 C 17.449219 8.917969 17.503906 8.78125 17.609375 8.886719 C 17.683594 8.960938 17.695312 9.066406 17.621094 9.195312 Z M 19.105469 9.558594 C 19.765625 9.847656 20.332031 10.058594 20.375 10.039062 C 20.414062 10.007812 20.90625 10.199219 21.449219 10.464844 C 22.003906 10.722656 22.398438 10.945312 22.324219 10.945312 C 22.261719 10.945312 22.164062 11.050781 22.121094 11.179688 C 21.984375 11.640625 21.535156 12.234375 21.195312 12.4375 C 20.511719 12.867188 19.808594 12.695312 18.753906 11.882812 C 18.238281 11.488281 17.707031 10.433594 17.707031 9.816406 C 17.707031 9.386719 17.78125 9.027344 17.878906 9.027344 C 17.898438 9.027344 18.453125 9.261719 19.105469 9.558594 Z M 21.609375 12.621094 C 21.523438 12.78125 21.449219 12.886719 21.441406 12.832031 C 21.441406 12.789062 21.34375 12.855469 21.226562 12.972656 C 21.011719 13.183594 20.652344 13.238281 20.074219 13.121094 C 19.863281 13.078125 19.765625 13.003906 19.808594 12.90625 C 19.839844 12.8125 19.957031 12.789062 20.171875 12.832031 C 20.523438 12.898438 21.34375 12.628906 21.558594 12.375 C 21.761719 12.128906 21.792969 12.277344 21.609375 12.621094 Z M 27.902344 13.582031 C 27.871094 13.75 27.871094 13.816406 27.902344 13.738281 C 27.9375 13.675781 28.011719 13.644531 28.074219 13.675781 C 28.136719 13.71875 28.160156 13.664062 28.105469 13.515625 C 28.019531 13.226562 28.148438 13.226562 29.023438 13.503906 C 29.898438 13.78125 30.410156 14.199219 30.453125 14.667969 C 30.464844 14.871094 30.527344 15.050781 30.59375 15.09375 C 30.730469 15.179688 30.71875 15.777344 30.570312 15.882812 C 30.496094 15.949219 30.515625 15.957031 30.632812 15.925781 C 30.816406 15.863281 30.988281 16.226562 30.828125 16.332031 C 30.785156 16.363281 30.710938 16.566406 30.667969 16.78125 C 30.625 17.003906 30.550781 17.21875 30.484375 17.25 C 30.433594 17.28125 30.378906 17.582031 30.367188 17.910156 C 30.355469 18.496094 30.355469 18.496094 30.21875 18.199219 C 30.046875 17.78125 29.953125 17.78125 30.101562 18.199219 C 30.230469 18.570312 30.121094 19.191406 29.972656 18.945312 C 29.867188 18.765625 29.878906 18.742188 29.546875 19.445312 C 29.398438 19.757812 29.226562 20.011719 29.152344 20.011719 C 29.089844 20.011719 29.054688 20.109375 29.089844 20.226562 C 29.121094 20.34375 29.089844 20.4375 29.023438 20.4375 C 28.960938 20.4375 28.90625 20.375 28.894531 20.300781 C 28.886719 20.085938 28.691406 20.640625 28.671875 20.972656 C 28.640625 21.335938 28.480469 21.28125 28.480469 20.90625 C 28.480469 20.769531 28.4375 20.652344 28.382812 20.652344 C 28.320312 20.652344 28.320312 20.78125 28.375 20.960938 C 28.414062 21.132812 28.4375 21.292969 28.414062 21.324219 C 28.382812 21.34375 28.339844 21.484375 28.320312 21.613281 C 28.296875 21.738281 28.246094 21.878906 28.203125 21.921875 C 28.160156 21.953125 28.160156 21.890625 28.203125 21.773438 C 28.257812 21.601562 28.234375 21.601562 28.0625 21.816406 C 27.957031 21.964844 27.882812 22.136719 27.914062 22.210938 C 27.980469 22.371094 27.777344 22.507812 27.679688 22.359375 C 27.542969 22.136719 27.414062 22.261719 27.402344 22.648438 C 27.390625 22.945312 27.371094 22.976562 27.339844 22.785156 C 27.273438 22.421875 27.09375 22.253906 27.09375 22.5625 C 27.09375 22.691406 27.050781 22.765625 26.988281 22.730469 C 26.933594 22.699219 26.878906 22.753906 26.878906 22.859375 C 26.878906 23.019531 26.859375 23.03125 26.773438 22.890625 C 26.699219 22.773438 26.667969 22.816406 26.667969 23.074219 C 26.667969 23.488281 26.570312 23.765625 26.441406 23.679688 C 26.390625 23.648438 26.347656 23.714844 26.347656 23.820312 C 26.347656 23.957031 26.316406 23.96875 26.261719 23.875 C 26.1875 23.777344 26.101562 23.808594 25.878906 24.011719 C 25.71875 24.160156 25.621094 24.332031 25.652344 24.386719 C 25.695312 24.449219 25.664062 24.480469 25.578125 24.472656 C 25.503906 24.449219 25.449219 24.511719 25.472656 24.609375 C 25.484375 24.707031 25.417969 24.84375 25.332031 24.917969 C 25.140625 25.078125 25.121094 24.90625 25.300781 24.726562 C 25.398438 24.628906 25.386719 24.597656 25.238281 24.597656 C 25.140625 24.597656 25.089844 24.554688 25.121094 24.492188 C 25.152344 24.429688 25.128906 24.386719 25.066406 24.386719 C 24.992188 24.386719 24.96875 24.472656 25.011719 24.589844 C 25.046875 24.707031 25.023438 24.824219 24.96875 24.855469 C 24.90625 24.898438 24.886719 24.992188 24.917969 25.066406 C 24.949219 25.144531 24.894531 25.269531 24.800781 25.34375 C 24.703125 25.429688 24.640625 25.429688 24.640625 25.367188 C 24.640625 25.304688 24.683594 25.226562 24.734375 25.195312 C 24.789062 25.164062 24.8125 25.027344 24.769531 24.898438 C 24.726562 24.707031 24.683594 24.757812 24.574219 25.144531 C 24.492188 25.410156 24.332031 25.71875 24.203125 25.835938 C 23.96875 26.039062 23.96875 26.039062 24.042969 25.835938 C 24.117188 25.632812 24.105469 25.632812 23.902344 25.816406 C 23.785156 25.921875 23.710938 26.050781 23.734375 26.09375 C 23.765625 26.136719 23.710938 26.230469 23.625 26.304688 C 23.488281 26.421875 23.476562 26.414062 23.53125 26.261719 C 23.660156 25.941406 23.476562 26.09375 23.242188 26.519531 C 23.113281 26.742188 22.976562 26.914062 22.933594 26.890625 C 22.890625 26.871094 22.753906 26.988281 22.625 27.167969 C 22.496094 27.339844 22.347656 27.457031 22.28125 27.425781 C 22.230469 27.382812 22.132812 27.488281 22.078125 27.640625 C 22.015625 27.800781 21.921875 27.882812 21.855469 27.839844 C 21.792969 27.808594 21.601562 27.9375 21.429688 28.128906 C 21.121094 28.492188 21.121094 28.492188 21.226562 28.195312 C 21.386719 27.746094 21.355469 27.703125 21.128906 28.078125 C 21.011719 28.269531 20.734375 28.554688 20.511719 28.714844 C 20.289062 28.886719 20.042969 29.109375 19.96875 29.207031 C 19.765625 29.484375 19.585938 29.441406 19.777344 29.164062 C 20.019531 28.824219 19.988281 28.683594 19.734375 28.984375 C 19.625 29.121094 19.53125 29.207031 19.519531 29.164062 C 19.519531 29.121094 19.414062 29.195312 19.273438 29.324219 C 19.136719 29.453125 19.039062 29.589844 19.0625 29.632812 C 19.082031 29.675781 18.945312 29.792969 18.753906 29.890625 C 18.527344 29.996094 18.453125 30.007812 18.539062 29.921875 C 18.601562 29.847656 18.667969 29.6875 18.65625 29.558594 C 18.65625 29.355469 18.644531 29.355469 18.539062 29.589844 C 18.476562 29.730469 18.355469 29.816406 18.28125 29.78125 C 18.199219 29.75 18.113281 29.773438 18.078125 29.824219 C 18.003906 29.953125 17.386719 30.253906 17.207031 30.253906 C 17.128906 30.253906 17.066406 30.292969 17.066406 30.359375 C 17.066406 30.507812 16.671875 30.890625 16.511719 30.890625 C 16.449219 30.890625 16.480469 30.816406 16.597656 30.730469 C 16.703125 30.648438 16.757812 30.582031 16.691406 30.582031 C 16.535156 30.582031 16.203125 30.847656 16.277344 30.925781 C 16.308594 30.957031 16.222656 31.042969 16.085938 31.105469 C 15.882812 31.210938 15.863281 31.210938 15.980469 31.09375 C 16.214844 30.847656 16.117188 30.742188 15.863281 30.976562 C 15.648438 31.179688 14.601562 31.480469 14.324219 31.414062 C 14.28125 31.402344 14.15625 31.425781 14.039062 31.480469 C 13.78125 31.585938 13.71875 31.46875 13.558594 30.605469 C 13.386719 29.6875 12.992188 28.855469 12.523438 28.449219 C 12.179688 28.140625 12.160156 28.109375 12.332031 28.128906 C 12.375 28.128906 12.449219 28.078125 12.492188 27.992188 C 12.566406 27.875 12.609375 27.882812 12.691406 28.011719 C 12.777344 28.152344 12.800781 28.140625 12.800781 27.980469 C 12.800781 27.777344 13.011719 27.722656 13.023438 27.925781 C 13.023438 28 13.066406 27.96875 13.121094 27.851562 C 13.171875 27.722656 13.214844 27.703125 13.214844 27.789062 C 13.226562 27.90625 13.269531 27.894531 13.386719 27.734375 C 13.492188 27.597656 13.535156 27.585938 13.546875 27.679688 C 13.546875 27.800781 13.578125 27.800781 13.707031 27.691406 C 13.792969 27.617188 13.867188 27.597656 13.867188 27.640625 C 13.867188 27.679688 13.941406 27.660156 14.027344 27.585938 C 14.113281 27.511719 14.1875 27.488281 14.1875 27.53125 C 14.1875 27.574219 14.261719 27.554688 14.347656 27.480469 C 14.433594 27.402344 14.507812 27.382812 14.507812 27.4375 C 14.507812 27.488281 14.582031 27.445312 14.667969 27.328125 C 14.742188 27.222656 14.859375 27.167969 14.921875 27.210938 C 14.988281 27.246094 15.039062 27.234375 15.039062 27.179688 C 15.039062 27.0625 15.179688 27.007812 16.214844 26.730469 C 16.480469 26.667969 16.84375 26.488281 17.035156 26.347656 C 17.214844 26.210938 17.398438 26.09375 17.441406 26.09375 C 17.535156 26.09375 17.835938 25.78125 18.238281 25.261719 C 18.539062 24.867188 18.945312 24.492188 20.085938 23.574219 C 20.179688 23.5 20.265625 23.445312 20.265625 23.480469 C 20.265625 23.511719 20.351562 23.445312 20.457031 23.339844 C 20.929688 22.902344 21.109375 22.796875 21.164062 22.925781 C 21.183594 23 21.214844 22.933594 21.214844 22.785156 C 21.226562 22.570312 21.246094 22.550781 21.332031 22.679688 C 21.417969 22.816406 21.441406 22.816406 21.441406 22.65625 C 21.441406 22.5625 21.492188 22.445312 21.566406 22.402344 C 21.644531 22.359375 21.652344 22.371094 21.609375 22.445312 C 21.566406 22.519531 21.589844 22.570312 21.644531 22.570312 C 21.707031 22.570312 21.761719 22.507812 21.761719 22.421875 C 21.761719 22.335938 21.8125 22.230469 21.886719 22.1875 C 21.960938 22.144531 21.972656 22.15625 21.929688 22.230469 C 21.886719 22.304688 21.910156 22.359375 21.960938 22.359375 C 22.027344 22.359375 22.078125 22.261719 22.078125 22.15625 C 22.078125 22.039062 22.132812 21.910156 22.207031 21.867188 C 22.292969 21.816406 22.304688 21.847656 22.261719 21.964844 C 22.230469 22.070312 22.238281 22.144531 22.292969 22.144531 C 22.355469 22.144531 22.398438 22.050781 22.398438 21.941406 C 22.398438 21.707031 22.613281 21.515625 22.625 21.738281 C 22.625 21.816406 22.6875 21.75 22.753906 21.601562 C 22.828125 21.453125 23.03125 21.152344 23.199219 20.949219 C 23.777344 20.269531 23.894531 20.117188 23.894531 20.011719 C 23.894531 19.949219 23.96875 19.90625 24.054688 19.90625 C 24.148438 19.90625 24.214844 19.808594 24.214844 19.660156 C 24.214844 19.46875 24.234375 19.457031 24.320312 19.585938 C 24.394531 19.714844 24.425781 19.671875 24.425781 19.425781 C 24.425781 19.179688 24.457031 19.136719 24.535156 19.265625 C 24.609375 19.394531 24.640625 19.351562 24.640625 19.105469 C 24.640625 18.859375 24.671875 18.816406 24.746094 18.945312 C 24.832031 19.074219 24.851562 19.050781 24.851562 18.859375 C 24.851562 18.722656 24.894531 18.648438 24.960938 18.679688 C 25.023438 18.710938 25.066406 18.667969 25.066406 18.570312 C 25.066406 18.476562 25.121094 18.433594 25.171875 18.464844 C 25.238281 18.496094 25.28125 18.476562 25.28125 18.414062 C 25.28125 18.347656 25.332031 18.328125 25.386719 18.359375 C 25.449219 18.390625 25.492188 18.347656 25.492188 18.253906 C 25.492188 18.136719 25.546875 18.09375 25.652344 18.136719 C 25.738281 18.167969 25.8125 18.136719 25.8125 18.070312 C 25.8125 18.007812 25.921875 17.859375 26.058594 17.730469 C 26.199219 17.601562 26.335938 17.421875 26.378906 17.3125 C 26.410156 17.21875 26.496094 17.132812 26.558594 17.132812 C 26.613281 17.132812 26.667969 17.035156 26.667969 16.90625 C 26.667969 16.78125 26.710938 16.726562 26.785156 16.769531 C 26.859375 16.8125 26.878906 16.769531 26.835938 16.628906 C 26.792969 16.511719 26.835938 16.277344 26.933594 16.109375 C 27.019531 15.9375 27.09375 15.734375 27.09375 15.660156 C 27.09375 15.597656 27.136719 15.53125 27.199219 15.53125 C 27.253906 15.53125 27.273438 15.457031 27.242188 15.371094 C 27.210938 15.285156 27.253906 15.136719 27.347656 15.050781 C 27.445312 14.957031 27.519531 14.816406 27.519531 14.753906 C 27.519531 14.679688 27.464844 14.691406 27.402344 14.785156 C 27.308594 14.914062 27.296875 14.914062 27.347656 14.753906 C 27.382812 14.648438 27.414062 14.507812 27.414062 14.453125 C 27.414062 14.414062 27.488281 14.402344 27.59375 14.433594 C 27.710938 14.476562 27.742188 14.464844 27.691406 14.371094 C 27.636719 14.292969 27.660156 14.027344 27.734375 13.761719 C 27.882812 13.25 28.011719 13.121094 27.902344 13.582031 Z M 25.8125 14.210938 C 25.8125 14.625 25.84375 14.773438 25.929688 14.722656 C 26.027344 14.667969 26.039062 14.808594 26.003906 15.203125 C 25.972656 15.53125 25.984375 15.703125 26.039062 15.617188 C 26.101562 15.53125 26.132812 15.640625 26.132812 15.925781 C 26.132812 16.257812 26.089844 16.386719 25.972656 16.386719 C 25.800781 16.386719 25.75 16.195312 25.664062 15.265625 C 25.632812 14.914062 25.578125 14.402344 25.535156 14.113281 C 25.472656 13.6875 25.492188 13.613281 25.644531 13.613281 C 25.78125 13.613281 25.8125 13.730469 25.8125 14.210938 Z M 13.972656 15.574219 C 14.761719 15.96875 15.585938 17.292969 15.425781 17.921875 C 15.328125 18.328125 14.761719 18.914062 14.347656 19.050781 C 13.878906 19.203125 13.289062 19.03125 13.054688 18.679688 C 12.929688 18.488281 12.929688 18.390625 13.023438 18.15625 C 13.183594 17.816406 13.109375 17.730469 12.757812 17.816406 C 12.46875 17.890625 12.296875 18.273438 12.414062 18.570312 C 12.511719 18.839844 13.921875 19.445312 15.308594 19.820312 C 16.011719 20 16.597656 20.160156 16.609375 20.171875 C 16.652344 20.195312 15.882812 22.414062 15.796875 22.488281 C 15.753906 22.53125 15.5625 22.453125 15.359375 22.316406 C 14.902344 22.007812 14.539062 21.898438 13.097656 21.613281 C 12.054688 21.410156 11.9375 21.398438 11.636719 21.546875 C 11.265625 21.75 11.15625 22.027344 11.253906 22.53125 C 11.328125 22.933594 11.839844 23.339844 12.203125 23.296875 C 12.449219 23.265625 12.566406 23 12.339844 23 C 12.265625 23 12.105469 22.902344 11.988281 22.773438 C 11.785156 22.550781 11.796875 22.550781 12.085938 22.292969 C 12.46875 21.964844 12.585938 21.976562 12.949219 22.347656 C 13.226562 22.636719 13.246094 22.722656 13.207031 23.210938 C 13.121094 24.097656 12.554688 24.4375 11.476562 24.277344 C 10.558594 24.140625 10.070312 23.542969 9.761719 22.210938 C 9.675781 21.792969 9.355469 20.90625 9.066406 20.226562 C 8.777344 19.554688 8.511719 18.882812 8.480469 18.730469 C 8.339844 18.167969 9.855469 16.226562 10.828125 15.722656 C 11.894531 15.160156 13.035156 15.105469 13.972656 15.574219 Z M 8.90625 17.324219 C 8.84375 17.367188 8.683594 17.644531 8.542969 17.953125 C 8.246094 18.605469 8.277344 18.890625 8.746094 19.894531 C 8.929688 20.269531 9.046875 20.597656 9.011719 20.628906 C 8.90625 20.738281 8.769531 20.503906 8.492188 19.757812 C 8.203125 19 8.148438 18.488281 8.308594 18.070312 C 8.363281 17.933594 8.414062 17.773438 8.425781 17.71875 C 8.480469 17.453125 8.660156 17.238281 8.832031 17.238281 C 8.9375 17.238281 8.96875 17.269531 8.90625 17.324219 Z M 9.121094 20.867188 C 9.089844 20.917969 9.109375 20.972656 9.171875 20.972656 C 9.238281 20.972656 9.257812 21.015625 9.226562 21.078125 C 9.195312 21.132812 9.207031 21.183594 9.257812 21.183594 C 9.3125 21.183594 9.355469 21.25 9.355469 21.3125 C 9.355469 21.386719 9.375 21.496094 9.386719 21.558594 C 9.472656 21.890625 9.355469 21.933594 9.214844 21.613281 C 8.863281 20.824219 8.851562 20.757812 9.023438 20.757812 C 9.109375 20.757812 9.152344 20.800781 9.121094 20.867188 Z M 14.847656 22.273438 C 15.125 22.390625 15.414062 22.550781 15.476562 22.636719 C 15.679688 22.882812 15.222656 22.828125 14.890625 22.5625 C 14.742188 22.445312 14.355469 22.253906 14.046875 22.136719 C 13.515625 21.933594 13.515625 21.921875 13.921875 21.984375 C 14.15625 22.027344 14.570312 22.15625 14.847656 22.273438 Z M 14.773438 26.839844 C 14.953125 26.902344 14.921875 26.933594 14.59375 27 C 14.367188 27.042969 14.207031 27.117188 14.238281 27.160156 C 14.324219 27.285156 14.070312 27.414062 13.984375 27.296875 C 13.953125 27.234375 13.84375 27.160156 13.761719 27.117188 C 13.664062 27.085938 13.695312 27.074219 13.835938 27.09375 C 13.996094 27.125 14.089844 27.074219 14.132812 26.933594 C 14.207031 26.722656 14.410156 26.691406 14.773438 26.839844 Z M 12.457031 28.683594 C 12.703125 28.929688 12.769531 29.066406 12.691406 29.183594 C 12.609375 29.324219 12.574219 29.3125 12.425781 29.132812 C 12.308594 28.984375 12.265625 28.960938 12.277344 29.078125 C 12.308594 29.378906 12.265625 29.515625 12.171875 29.460938 C 12.0625 29.386719 12.136719 28.992188 12.296875 28.78125 C 12.351562 28.714844 12.363281 28.652344 12.308594 28.640625 C 12.257812 28.640625 12.128906 28.621094 12.019531 28.597656 C 11.871094 28.566406 11.839844 28.609375 11.894531 28.738281 C 11.980469 28.949219 11.980469 28.972656 11.945312 29.238281 C 11.9375 29.398438 11.902344 29.378906 11.828125 29.132812 C 11.710938 28.75 11.785156 28.332031 11.980469 28.332031 C 12.054688 28.332031 12.265625 28.492188 12.457031 28.683594 Z M 13.046875 29.65625 C 13.054688 29.804688 13.109375 29.933594 13.152344 29.933594 C 13.207031 29.933594 13.214844 29.976562 13.183594 30.015625 C 13.152344 30.070312 13.195312 30.335938 13.28125 30.605469 C 13.367188 30.890625 13.386719 31.105469 13.332031 31.105469 C 13.269531 31.105469 13.226562 31.0625 13.226562 31 C 13.226562 30.945312 13.152344 30.925781 13.066406 30.957031 C 12.980469 31 12.90625 30.96875 12.90625 30.902344 C 12.90625 30.839844 12.777344 30.582031 12.617188 30.347656 C 12.425781 30.058594 12.375 29.890625 12.457031 29.847656 C 12.523438 29.804688 12.628906 29.632812 12.691406 29.460938 C 12.832031 29.101562 13.023438 29.207031 13.046875 29.65625 Z M 12.523438 29.539062 C 12.5 29.613281 12.382812 29.730469 12.277344 29.792969 C 12.105469 29.898438 12.0625 29.890625 12.019531 29.707031 C 11.980469 29.539062 11.988281 29.515625 12.105469 29.613281 C 12.214844 29.707031 12.265625 29.675781 12.320312 29.503906 C 12.351562 29.386719 12.425781 29.3125 12.480469 29.34375 C 12.535156 29.378906 12.554688 29.460938 12.523438 29.539062 Z M 13.257812 31.246094 C 13.300781 31.210938 13.332031 31.246094 13.332031 31.320312 C 13.332031 31.394531 13.417969 31.5625 13.523438 31.679688 C 13.664062 31.851562 13.621094 31.839844 13.34375 31.628906 C 13.140625 31.480469 12.949219 31.285156 12.917969 31.203125 C 12.886719 31.085938 12.90625 31.074219 13.035156 31.179688 C 13.121094 31.253906 13.226562 31.285156 13.257812 31.246094 Z M 13.257812 31.246094 "/>
<path style=" stroke:none;fill-rule:nonzero;fill:rgb(0%,0%,0%);fill-opacity:1;" d="M 3.039062 3.765625 C 3.265625 4.171875 3.542969 4.589844 3.660156 4.707031 C 3.828125 4.875 3.808594 4.8125 3.585938 4.4375 C 3.433594 4.171875 3.199219 3.757812 3.082031 3.5 C 2.953125 3.253906 2.804688 3.050781 2.753906 3.050781 C 2.699219 3.050781 2.828125 3.371094 3.039062 3.765625 Z M 3.039062 3.765625 "/>
<path style=" stroke:none;fill-rule:nonzero;fill:rgb(0%,0%,0%);fill-opacity:1;" d="M 5.023438 3.800781 C 5.183594 3.839844 5.621094 4.054688 5.996094 4.269531 C 6.378906 4.480469 6.816406 4.652344 6.976562 4.652344 C 7.15625 4.652344 7.425781 4.800781 7.734375 5.089844 C 8 5.335938 8.214844 5.484375 8.214844 5.421875 C 8.214844 5.195312 7.382812 4.578125 6.976562 4.492188 C 6.753906 4.449219 6.273438 4.257812 5.910156 4.054688 C 5.558594 3.851562 5.140625 3.691406 5.003906 3.703125 C 4.746094 3.714844 4.746094 3.714844 5.023438 3.800781 Z M 5.023438 3.800781 "/>
<path style=" stroke:none;fill-rule:nonzero;fill:rgb(0%,0%,0%);fill-opacity:1;" d="M 5.28125 5.792969 C 5.109375 5.824219 4.917969 5.878906 4.863281 5.933594 C 4.757812 6.039062 5.601562 5.941406 5.921875 5.816406 C 6.113281 5.738281 6.101562 5.730469 5.867188 5.738281 C 5.71875 5.75 5.460938 5.773438 5.28125 5.792969 Z M 5.28125 5.792969 "/>
<path style=" stroke:none;fill-rule:nonzero;fill:rgb(0%,0%,0%);fill-opacity:1;" d="M 6.71875 5.804688 C 6.804688 5.859375 7.070312 5.941406 7.296875 5.984375 C 7.785156 6.070312 8.574219 6.445312 9.023438 6.808594 C 9.195312 6.945312 9.429688 7.125 9.546875 7.210938 C 9.761719 7.371094 9.761719 7.371094 9.546875 7.105469 C 9.207031 6.679688 9.054688 6.582031 8.257812 6.199219 C 7.574219 5.867188 6.304688 5.546875 6.71875 5.804688 Z M 6.71875 5.804688 "/>
<path style=" stroke:none;fill-rule:nonzero;fill:rgb(0%,0%,0%);fill-opacity:1;" d="M 5.441406 6.21875 C 4.351562 6.378906 3.839844 6.636719 3.839844 7 C 3.839844 7.210938 4.363281 8.503906 4.375 8.300781 C 4.375 8.226562 4.425781 8.195312 4.480469 8.226562 C 4.554688 8.269531 4.566406 8.34375 4.492188 8.417969 C 4.425781 8.503906 4.789062 9.558594 5.609375 11.640625 C 6.28125 13.335938 6.878906 14.839844 6.933594 14.96875 C 7.0625 15.277344 7.605469 15.414062 8.351562 15.308594 C 10.164062 15.0625 11.308594 13.601562 11.308594 11.542969 C 11.308594 9.71875 10.367188 8.042969 8.734375 6.96875 C 7.863281 6.378906 6.441406 6.058594 5.441406 6.21875 Z M 4.511719 6.796875 C 4.179688 7.019531 4.054688 7.050781 4.054688 6.890625 C 4.054688 6.765625 4.609375 6.464844 4.726562 6.539062 C 4.777344 6.570312 4.683594 6.691406 4.511719 6.796875 Z M 8.136719 6.808594 C 8.84375 7.136719 9.867188 8.078125 10.347656 8.8125 C 10.933594 9.730469 11.113281 10.433594 11.070312 11.691406 C 11.039062 12.664062 10.996094 12.898438 10.742188 13.421875 C 10.230469 14.453125 9.40625 15 8.03125 15.167969 C 7.542969 15.234375 7.476562 15.210938 7.328125 14.988281 C 7.242188 14.847656 7.136719 14.625 7.09375 14.488281 C 7.03125 14.261719 7.0625 14.253906 7.53125 14.253906 C 8.554688 14.253906 9.589844 13.398438 9.972656 12.226562 C 10.15625 11.691406 10.1875 9.996094 10.015625 9.878906 C 9.984375 9.847656 9.824219 9.570312 9.664062 9.261719 C 9.332031 8.609375 8.726562 7.90625 8.308594 7.679688 C 7.957031 7.511719 7.328125 7.488281 7.03125 7.640625 C 6.527344 7.917969 6.410156 8.640625 6.613281 10.113281 C 6.742188 10.957031 6.613281 12.992188 6.464844 12.597656 C 6.421875 12.480469 6.175781 11.832031 5.910156 11.160156 C 5.652344 10.488281 5.441406 9.835938 5.441406 9.730469 C 5.441406 9.621094 5.609375 9.34375 5.8125 9.101562 C 6.078125 8.789062 6.1875 8.566406 6.1875 8.3125 C 6.1875 7.679688 5.515625 7.277344 4.863281 7.511719 C 4.523438 7.648438 4.414062 7.597656 4.351562 7.277344 C 4.332031 7.117188 4.457031 6.988281 4.90625 6.753906 C 5.449219 6.464844 5.558594 6.453125 6.507812 6.488281 C 7.339844 6.519531 7.625 6.570312 8.136719 6.808594 Z M 5.546875 7.734375 C 5.546875 7.789062 5.652344 7.851562 5.78125 7.882812 C 5.910156 7.925781 5.984375 7.980469 5.941406 8.023438 C 5.898438 8.066406 5.921875 8.160156 5.984375 8.234375 C 6.101562 8.386719 5.941406 8.8125 5.761719 8.8125 C 5.707031 8.8125 5.566406 8.992188 5.460938 9.207031 C 5.257812 9.589844 5.246094 9.601562 5.171875 9.335938 C 5.121094 9.195312 5.097656 8.917969 5.109375 8.726562 C 5.121094 8.449219 5.078125 8.355469 4.917969 8.3125 C 4.683594 8.257812 4.535156 7.925781 4.640625 7.746094 C 4.726562 7.617188 5.546875 7.605469 5.546875 7.734375 Z M 7.617188 7.765625 C 7.667969 7.875 7.691406 7.875 7.742188 7.777344 C 7.785156 7.679688 7.863281 7.679688 8.0625 7.765625 C 8.203125 7.832031 8.320312 7.925781 8.320312 7.96875 C 8.320312 8.011719 8.40625 8.078125 8.511719 8.109375 C 8.609375 8.140625 8.789062 8.34375 8.894531 8.546875 C 9.011719 8.75 9.140625 8.917969 9.195312 8.917969 C 9.246094 8.917969 9.269531 8.960938 9.238281 9.015625 C 9.207031 9.066406 9.289062 9.226562 9.429688 9.378906 C 9.621094 9.589844 9.652344 9.664062 9.535156 9.707031 C 9.449219 9.738281 9.386719 9.824219 9.386719 9.898438 C 9.386719 10.015625 9.40625 10.015625 9.472656 9.898438 C 9.535156 9.804688 9.601562 9.847656 9.707031 10.058594 C 9.910156 10.496094 9.953125 11.050781 9.792969 11.050781 C 9.695312 11.050781 9.707031 11.085938 9.8125 11.160156 C 9.929688 11.234375 9.941406 11.265625 9.835938 11.265625 C 9.726562 11.265625 9.738281 11.308594 9.855469 11.4375 C 10.046875 11.617188 9.996094 11.800781 9.761719 11.800781 C 9.558594 11.800781 9.460938 11.980469 9.609375 12.078125 C 9.695312 12.117188 9.707031 12.109375 9.664062 12.035156 C 9.621094 11.957031 9.644531 11.90625 9.695312 11.90625 C 9.835938 11.90625 9.835938 11.9375 9.75 12.160156 C 9.71875 12.257812 9.644531 12.3125 9.601562 12.277344 C 9.546875 12.246094 9.484375 12.375 9.441406 12.566406 C 9.300781 13.261719 9.269531 13.3125 9.109375 13.175781 C 9.023438 13.109375 8.960938 12.972656 8.949219 12.875 C 8.949219 12.78125 8.894531 12.84375 8.84375 13.027344 C 8.789062 13.195312 8.769531 13.410156 8.800781 13.484375 C 8.863281 13.65625 8.277344 14.015625 7.820312 14.101562 C 7.222656 14.21875 6.953125 14.082031 6.816406 13.621094 C 6.675781 13.164062 6.761719 12.640625 6.953125 12.683594 C 7.105469 12.714844 7.660156 13.761719 7.550781 13.804688 C 7.5 13.824219 7.464844 13.890625 7.464844 13.941406 C 7.464844 13.996094 7.585938 13.976562 7.734375 13.910156 C 8.042969 13.773438 8.097656 13.398438 7.839844 13.183594 C 7.703125 13.066406 7.703125 13.027344 7.808594 12.941406 C 7.914062 12.875 7.902344 12.867188 7.765625 12.898438 C 7.667969 12.929688 7.457031 12.855469 7.285156 12.726562 C 7.125 12.597656 6.976562 12.503906 6.964844 12.511719 C 6.945312 12.535156 6.878906 12.546875 6.816406 12.546875 C 6.730469 12.546875 6.730469 12.492188 6.828125 12.386719 C 6.902344 12.300781 6.921875 12.226562 6.878906 12.226562 C 6.835938 12.226562 6.859375 12.160156 6.921875 12.078125 C 7.019531 11.957031 7.019531 11.917969 6.910156 11.863281 C 6.785156 11.800781 6.976562 11.832031 7.710938 11.980469 C 7.894531 12.011719 8 11.992188 8 11.90625 C 8 11.832031 7.925781 11.800781 7.828125 11.839844 C 7.742188 11.875 7.703125 11.863281 7.734375 11.800781 C 7.777344 11.734375 7.605469 11.691406 7.308594 11.691406 C 6.945312 11.691406 6.835938 11.660156 6.902344 11.554688 C 7.039062 11.328125 7.039062 10.507812 6.890625 10.59375 C 6.828125 10.636719 6.835938 10.582031 6.921875 10.476562 C 7.039062 10.335938 7.050781 10.273438 6.953125 10.210938 C 6.890625 10.167969 6.847656 10.027344 6.878906 9.898438 C 6.902344 9.773438 6.890625 9.664062 6.835938 9.664062 C 6.792969 9.664062 6.761719 9.324219 6.761719 8.917969 C 6.773438 8.503906 6.804688 8.171875 6.847656 8.171875 C 6.902344 8.171875 6.933594 8.097656 6.933594 8.011719 C 6.933594 7.917969 7.039062 7.800781 7.179688 7.746094 C 7.5 7.617188 7.542969 7.617188 7.617188 7.765625 Z M 5.492188 10.519531 C 6.207031 12.320312 6.398438 12.824219 6.421875 12.972656 C 6.433594 13.003906 6.507812 13.195312 6.59375 13.386719 C 6.785156 13.867188 6.835938 14.167969 6.710938 14.09375 C 6.65625 14.050781 6.613281 13.964844 6.613281 13.890625 C 6.613281 13.792969 4.949219 9.621094 4.511719 8.609375 C 4.46875 8.523438 4.5 8.480469 4.574219 8.503906 C 4.652344 8.535156 5.054688 9.441406 5.492188 10.519531 Z M 5.492188 10.519531 "/>
<path style=" stroke:none;fill-rule:nonzero;fill:rgb(0%,0%,0%);fill-opacity:1;" d="M 7.070312 8.128906 C 6.964844 8.355469 6.964844 8.386719 7.09375 8.277344 C 7.179688 8.203125 7.253906 8.203125 7.296875 8.269531 C 7.382812 8.394531 7.253906 8.714844 7.148438 8.652344 C 7.03125 8.578125 6.933594 8.855469 7.03125 9.015625 C 7.125 9.164062 7.5625 9.027344 7.777344 8.769531 C 7.851562 8.671875 7.957031 8.628906 8.011719 8.664062 C 8.128906 8.738281 8.128906 8.671875 8 8.332031 C 7.925781 8.140625 7.828125 8.066406 7.703125 8.085938 C 7.585938 8.109375 7.433594 8.066406 7.347656 7.992188 C 7.230469 7.894531 7.167969 7.917969 7.070312 8.128906 Z M 7.894531 8.3125 C 7.894531 8.386719 7.820312 8.546875 7.722656 8.664062 C 7.5625 8.855469 7.5625 8.855469 7.617188 8.664062 C 7.679688 8.480469 7.667969 8.480469 7.5 8.609375 C 7.339844 8.738281 7.328125 8.738281 7.414062 8.597656 C 7.648438 8.171875 7.894531 8.035156 7.894531 8.3125 Z M 7.894531 8.3125 "/>
<path style=" stroke:none;fill-rule:nonzero;fill:rgb(0%,0%,0%);fill-opacity:1;" d="M 7.9375 9.121094 C 7.722656 9.3125 7.5 9.421875 7.347656 9.398438 C 7.210938 9.386719 7.179688 9.398438 7.285156 9.421875 C 7.382812 9.441406 7.464844 9.503906 7.464844 9.570312 C 7.464844 9.621094 7.691406 9.582031 7.980469 9.472656 C 8.332031 9.34375 8.480469 9.226562 8.480469 9.089844 C 8.480469 8.78125 8.296875 8.789062 7.9375 9.121094 Z M 7.9375 9.121094 "/>
<path style=" stroke:none;fill-rule:nonzero;fill:rgb(0%,0%,0%);fill-opacity:1;" d="M 7.925781 9.859375 C 7.242188 10.136719 7.265625 10.199219 8.03125 10.199219 C 8.863281 10.199219 9.300781 10.058594 9.214844 9.824219 C 9.128906 9.613281 8.5 9.621094 7.925781 9.859375 Z M 9.066406 9.878906 C 9.066406 9.996094 8.394531 10.136719 8.191406 10.058594 C 8.117188 10.027344 8.171875 9.996094 8.320312 9.996094 C 8.535156 9.984375 8.554688 9.964844 8.425781 9.878906 C 8.308594 9.804688 8.375 9.773438 8.671875 9.773438 C 8.886719 9.773438 9.066406 9.816406 9.066406 9.878906 Z M 9.066406 9.878906 "/>
<path style=" stroke:none;fill-rule:nonzero;fill:rgb(0%,0%,0%);fill-opacity:1;" d="M 7.894531 10.605469 C 7.894531 10.808594 8.40625 10.933594 8.769531 10.828125 C 9.195312 10.710938 9.171875 10.710938 9.171875 10.839844 C 9.171875 10.890625 9.011719 10.957031 8.832031 10.957031 C 8.574219 10.96875 8.542969 10.988281 8.726562 11.019531 C 8.851562 11.042969 8.9375 11.117188 8.90625 11.167969 C 8.863281 11.222656 8.917969 11.265625 9.011719 11.265625 C 9.109375 11.265625 9.152344 11.308594 9.121094 11.371094 C 9.089844 11.425781 9.109375 11.480469 9.171875 11.480469 C 9.238281 11.480469 9.28125 11.414062 9.269531 11.339844 C 9.257812 11.277344 9.289062 11.117188 9.332031 11.007812 C 9.460938 10.710938 9.128906 10.519531 8.457031 10.519531 C 8.148438 10.519531 7.894531 10.5625 7.894531 10.605469 Z M 7.894531 10.605469 "/>
<path style=" stroke:none;fill-rule:nonzero;fill:rgb(0%,0%,0%);fill-opacity:1;" d="M 7.148438 10.828125 C 7.148438 10.945312 7.777344 11.105469 7.863281 11.019531 C 7.894531 10.988281 7.882812 10.914062 7.839844 10.847656 C 7.753906 10.710938 7.148438 10.691406 7.148438 10.828125 Z M 7.148438 10.828125 "/>
<path style=" stroke:none;fill-rule:nonzero;fill:rgb(0%,0%,0%);fill-opacity:1;" d="M 7.925781 11.585938 C 8.136719 11.765625 8.289062 11.96875 8.257812 12.035156 C 8.214844 12.109375 8.234375 12.117188 8.296875 12.078125 C 8.363281 12.035156 8.566406 12.109375 8.746094 12.234375 C 9.109375 12.511719 9.324219 12.417969 9.257812 12 C 9.214844 11.679688 8.726562 11.402344 8.054688 11.320312 L 7.519531 11.246094 Z M 9.035156 11.863281 C 9.367188 12.320312 9.078125 12.34375 8.5 11.90625 L 8.097656 11.605469 L 8.492188 11.640625 C 8.726562 11.648438 8.949219 11.746094 9.035156 11.863281 Z M 9.035156 11.863281 "/>
<path style=" stroke:none;fill-rule:nonzero;fill:rgb(0%,0%,0%);fill-opacity:1;" d="M 7.863281 12.640625 C 8.351562 13.121094 8.746094 13.21875 8.746094 12.867188 C 8.746094 12.597656 8.382812 12.363281 7.839844 12.277344 L 7.414062 12.203125 Z M 8.160156 12.652344 C 8.257812 12.8125 8.449219 12.78125 8.363281 12.621094 C 8.320312 12.554688 8.375 12.578125 8.480469 12.671875 C 8.597656 12.78125 8.652344 12.886719 8.617188 12.917969 C 8.554688 12.992188 7.894531 12.695312 7.894531 12.597656 C 7.894531 12.503906 8.097656 12.546875 8.160156 12.652344 Z M 8.160156 12.652344 "/>
<path style=" stroke:none;fill-rule:nonzero;fill:rgb(0%,0%,0%);fill-opacity:1;" d="M 6.878906 13.3125 C 6.976562 13.738281 7.148438 13.976562 7.273438 13.847656 C 7.382812 13.738281 7.0625 12.972656 6.902344 12.972656 C 6.847656 12.972656 6.847656 13.132812 6.878906 13.3125 Z M 6.878906 13.3125 "/>
<path style=" stroke:none;fill-rule:nonzero;fill:rgb(0%,0%,0%);fill-opacity:1;" d="M 11.230469 7.488281 C 11.15625 7.691406 11.722656 9.152344 11.851562 9.078125 C 11.902344 9.035156 11.914062 9.078125 11.882812 9.164062 C 11.851562 9.261719 11.957031 9.410156 12.136719 9.546875 C 12.492188 9.792969 12.746094 9.835938 12.851562 9.664062 C 12.960938 9.484375 12.171875 7.542969 11.945312 7.425781 C 11.648438 7.265625 11.308594 7.296875 11.230469 7.488281 Z M 12.160156 7.917969 C 12.296875 8.257812 12.296875 8.375 12.160156 8.171875 C 12.0625 8.035156 12.054688 8.035156 12.054688 8.171875 C 12.054688 8.257812 12.105469 8.40625 12.160156 8.492188 C 12.257812 8.628906 12.265625 8.628906 12.265625 8.492188 C 12.277344 8.320312 12.683594 9.207031 12.683594 9.421875 C 12.691406 9.496094 12.597656 9.558594 12.492188 9.558594 C 12.332031 9.558594 12.214844 9.378906 12 8.8125 C 11.839844 8.394531 11.667969 8.085938 11.617188 8.128906 C 11.5625 8.160156 11.519531 8.160156 11.519531 8.128906 C 11.519531 8.109375 11.488281 7.992188 11.457031 7.882812 C 11.402344 7.722656 11.414062 7.722656 11.507812 7.851562 C 11.605469 7.992188 11.625 7.992188 11.625 7.820312 C 11.625 7.53125 12.042969 7.597656 12.160156 7.917969 Z M 12.160156 7.917969 "/>
<path style=" stroke:none;fill-rule:nonzero;fill:rgb(0%,0%,0%);fill-opacity:1;" d="M 13.632812 8.824219 C 13.40625 8.949219 13.375 9.453125 13.566406 9.644531 C 13.707031 9.78125 14.175781 9.816406 14.355469 9.6875 C 14.613281 9.515625 14.625 9.152344 14.390625 8.929688 C 14.121094 8.683594 13.910156 8.652344 13.632812 8.824219 Z M 13.910156 9.101562 C 13.953125 9.152344 14.039062 9.195312 14.089844 9.195312 C 14.144531 9.207031 14.238281 9.21875 14.292969 9.226562 C 14.464844 9.25 14.421875 9.527344 14.230469 9.601562 C 13.929688 9.71875 13.769531 9.675781 13.652344 9.453125 C 13.492188 9.144531 13.683594 8.886719 13.910156 9.101562 Z M 13.910156 9.101562 "/>
<path style=" stroke:none;fill-rule:nonzero;fill:rgb(0%,0%,0%);fill-opacity:1;" d="M 16.511719 8.875 C 16.382812 9.003906 16.414062 9.570312 16.585938 10.253906 C 16.789062 11.0625 16.84375 11.203125 16.90625 11.136719 C 16.9375 11.105469 16.90625 10.945312 16.851562 10.773438 C 16.789062 10.59375 16.703125 10.082031 16.660156 9.621094 C 16.617188 9.164062 16.554688 8.832031 16.511719 8.875 Z M 16.511719 8.875 "/>
<path style=" stroke:none;fill-rule:nonzero;fill:rgb(0%,0%,0%);fill-opacity:1;" d="M 14.65625 11.320312 C 14.453125 11.46875 14.453125 11.46875 14.675781 11.480469 C 14.804688 11.480469 14.964844 11.402344 15.039062 11.320312 C 15.222656 11.105469 14.945312 11.09375 14.65625 11.320312 Z M 14.65625 11.320312 "/>
<path style=" stroke:none;fill-rule:nonzero;fill:rgb(0%,0%,0%);fill-opacity:1;" d="M 12.128906 11.722656 C 12.097656 11.808594 12.105469 11.9375 12.160156 12.011719 C 12.277344 12.203125 12.609375 12.054688 12.566406 11.832031 C 12.523438 11.597656 12.203125 11.523438 12.128906 11.722656 Z M 12.128906 11.722656 "/>
<path style=" stroke:none;fill-rule:nonzero;fill:rgb(0%,0%,0%);fill-opacity:1;" d="M 13.546875 11.851562 C 12.894531 12.300781 12.585938 12.554688 12.585938 12.683594 C 12.585938 12.75 12.703125 12.683594 12.851562 12.546875 C 13.003906 12.40625 13.398438 12.140625 13.726562 11.949219 C 14.089844 11.734375 14.261719 11.597656 14.132812 11.597656 C 14.015625 11.597656 13.75 11.714844 13.546875 11.851562 Z M 13.546875 11.851562 "/>
<path style=" stroke:none;fill-rule:nonzero;fill:rgb(0%,0%,0%);fill-opacity:1;" d="M 13.84375 12.171875 C 13.683594 12.257812 13.535156 12.429688 13.492188 12.535156 C 13.460938 12.652344 13.332031 12.78125 13.226562 12.8125 C 12.992188 12.886719 12.054688 13.804688 12.054688 13.964844 C 12.054688 14.015625 12.289062 13.816406 12.566406 13.515625 C 12.84375 13.21875 13.152344 12.972656 13.238281 12.972656 C 13.332031 12.972656 13.546875 12.8125 13.71875 12.621094 C 13.886719 12.4375 14.132812 12.226562 14.238281 12.152344 C 14.558594 11.957031 14.199219 11.980469 13.84375 12.171875 Z M 13.84375 12.171875 "/>
<path style=" stroke:none;fill-rule:nonzero;fill:rgb(0%,0%,0%);fill-opacity:1;" d="M 16.9375 13.066406 C 16.96875 13.410156 16.929688 13.539062 16.726562 13.707031 C 16.597656 13.835938 16.351562 14.050781 16.191406 14.199219 C 16 14.359375 15.894531 14.5625 15.894531 14.753906 C 15.894531 15.050781 15.894531 15.050781 16.085938 14.679688 C 16.179688 14.476562 16.394531 14.242188 16.566406 14.167969 C 16.726562 14.09375 16.929688 13.910156 17.023438 13.773438 C 17.207031 13.503906 17.195312 12.75 17.011719 12.683594 C 16.9375 12.664062 16.917969 12.8125 16.9375 13.066406 Z M 16.9375 13.066406 "/>
<path style=" stroke:none;fill-rule:nonzero;fill:rgb(0%,0%,0%);fill-opacity:1;" d="M 14.976562 13.304688 C 14.945312 13.367188 14.964844 13.472656 15.019531 13.527344 C 15.15625 13.664062 15.5 13.441406 15.402344 13.28125 C 15.328125 13.152344 15.070312 13.164062 14.976562 13.304688 Z M 14.976562 13.304688 "/>
<path style=" stroke:none;fill-rule:nonzero;fill:rgb(0%,0%,0%);fill-opacity:1;" d="M 16.117188 13.707031 C 15.925781 13.941406 15.808594 14.144531 15.863281 14.144531 C 16.03125 14.144531 16.554688 13.527344 16.511719 13.386719 C 16.492188 13.3125 16.320312 13.453125 16.117188 13.707031 Z M 16.117188 13.707031 "/>
<path style=" stroke:none;fill-rule:nonzero;fill:rgb(0%,0%,0%);fill-opacity:1;" d="M 21.046875 14.210938 C 20.949219 14.453125 21.164062 14.613281 21.324219 14.421875 C 21.460938 14.253906 21.398438 14.039062 21.214844 14.039062 C 21.164062 14.039062 21.089844 14.113281 21.046875 14.210938 Z M 21.046875 14.210938 "/>
<path style=" stroke:none;fill-rule:nonzero;fill:rgb(0%,0%,0%);fill-opacity:1;" d="M 17.675781 14.414062 C 17.460938 14.5625 17.28125 14.730469 17.28125 14.785156 C 17.28125 14.839844 17.441406 14.773438 17.644531 14.648438 C 17.835938 14.519531 18.089844 14.359375 18.199219 14.285156 C 18.355469 14.1875 18.367188 14.15625 18.238281 14.15625 C 18.144531 14.144531 17.898438 14.261719 17.675781 14.414062 Z M 17.675781 14.414062 "/>
<path style=" stroke:none;fill-rule:nonzero;fill:rgb(0%,0%,0%);fill-opacity:1;" d="M 19.230469 14.347656 C 19.519531 14.464844 19.820312 14.613281 19.902344 14.691406 C 19.988281 14.753906 20.085938 14.785156 20.117188 14.765625 C 20.222656 14.648438 19.519531 14.242188 19.125 14.1875 L 18.71875 14.136719 Z M 19.230469 14.347656 "/>
<path style=" stroke:none;fill-rule:nonzero;fill:rgb(0%,0%,0%);fill-opacity:1;" d="M 12.054688 14.347656 C 11.734375 14.414062 11.796875 14.433594 12.449219 14.488281 C 13.75 14.605469 14.625 15.125 15.222656 16.152344 C 15.371094 16.40625 15.507812 16.589844 15.542969 16.554688 C 15.625 16.480469 15.070312 15.488281 14.804688 15.253906 C 14.464844 14.933594 13.578125 14.507812 13.089844 14.421875 C 12.863281 14.378906 12.617188 14.328125 12.554688 14.316406 C 12.480469 14.292969 12.257812 14.316406 12.054688 14.347656 Z M 12.054688 14.347656 "/>
<path style=" stroke:none;fill-rule:nonzero;fill:rgb(0%,0%,0%);fill-opacity:1;" d="M 23.53125 14.59375 C 23.296875 14.925781 23.316406 15.136719 23.617188 15.414062 C 23.96875 15.757812 24.425781 15.679688 24.628906 15.277344 C 24.757812 15 24.757812 14.925781 24.628906 14.691406 C 24.414062 14.304688 23.777344 14.242188 23.53125 14.59375 Z M 24 14.785156 C 24.097656 14.839844 24.203125 14.839844 24.289062 14.765625 C 24.382812 14.691406 24.449219 14.699219 24.492188 14.839844 C 24.585938 15.09375 24.40625 15.363281 24.105469 15.402344 C 23.777344 15.457031 23.605469 15.265625 23.785156 15.050781 C 23.914062 14.902344 23.902344 14.859375 23.777344 14.773438 C 23.691406 14.722656 23.679688 14.679688 23.734375 14.679688 C 23.796875 14.679688 23.914062 14.722656 24 14.785156 Z M 24 14.785156 "/>
<path style=" stroke:none;fill-rule:nonzero;fill:rgb(0%,0%,0%);fill-opacity:1;" d="M 18.21875 14.613281 C 17.558594 14.859375 17.269531 15.09375 17.046875 15.617188 C 16.886719 15.980469 16.84375 16.234375 16.886719 16.640625 C 16.960938 17.429688 17.140625 17.71875 17.78125 18.167969 C 18.304688 18.53125 18.441406 18.570312 19.03125 18.570312 C 19.585938 18.570312 19.777344 18.519531 20.148438 18.273438 C 21.066406 17.664062 21.300781 16.289062 20.617188 15.445312 C 20.019531 14.710938 18.953125 14.335938 18.21875 14.613281 Z M 17.609375 15.371094 C 17.441406 15.574219 17.269531 15.832031 17.226562 15.949219 C 17.195312 16.078125 17.109375 16.171875 17.054688 16.171875 C 16.917969 16.171875 17.246094 15.425781 17.515625 15.136719 C 17.867188 14.753906 17.960938 14.976562 17.609375 15.371094 Z M 19.820312 15.042969 C 20.523438 15.402344 20.992188 16.277344 20.851562 16.949219 C 20.652344 17.890625 19.882812 18.464844 18.921875 18.390625 C 17.996094 18.316406 17.398438 17.738281 17.3125 16.84375 C 17.246094 16.277344 17.503906 15.617188 17.878906 15.308594 C 17.996094 15.222656 18.039062 15.210938 17.984375 15.285156 C 17.929688 15.382812 17.960938 15.402344 18.070312 15.363281 C 18.164062 15.328125 18.21875 15.246094 18.207031 15.179688 C 18.15625 14.925781 19.382812 14.816406 19.820312 15.042969 Z M 19.820312 15.042969 "/>
<path style=" stroke:none;fill-rule:nonzero;fill:rgb(0%,0%,0%);fill-opacity:1;" d="M 18.433594 15.488281 C 18.046875 15.691406 17.921875 15.949219 17.921875 16.511719 C 17.921875 17.046875 18.230469 17.613281 18.613281 17.792969 C 18.753906 17.859375 18.847656 17.941406 18.828125 17.984375 C 18.761719 18.09375 19.414062 17.941406 19.710938 17.78125 C 20.03125 17.613281 20.160156 17.335938 20.160156 16.789062 C 20.160156 16.234375 19.863281 15.714844 19.425781 15.480469 C 19.03125 15.277344 18.804688 15.277344 18.433594 15.488281 Z M 19.308594 15.832031 C 19.660156 16.195312 19.808594 16.789062 19.667969 17.335938 C 19.585938 17.675781 19.53125 17.71875 19.1875 17.75 C 18.238281 17.824219 17.652344 16.4375 18.347656 15.746094 C 18.644531 15.445312 18.953125 15.480469 19.308594 15.832031 Z M 19.308594 15.832031 "/>
<path style=" stroke:none;fill-rule:nonzero;fill:rgb(0%,0%,0%);fill-opacity:1;" d="M 20.296875 15.949219 C 20.289062 16.078125 20.375 16.226562 20.492188 16.277344 C 20.746094 16.417969 20.757812 16.269531 20.5 15.957031 C 20.308594 15.722656 20.308594 15.722656 20.296875 15.949219 Z M 20.296875 15.949219 "/>
<path style=" stroke:none;fill-rule:nonzero;fill:rgb(0%,0%,0%);fill-opacity:1;" d="M 22.1875 14.519531 C 22.1875 14.550781 22.28125 14.773438 22.398438 15.007812 C 22.515625 15.234375 22.667969 15.679688 22.71875 15.980469 C 22.785156 16.277344 22.910156 16.621094 23.007812 16.726562 C 23.230469 16.972656 23.308594 16.898438 23.148438 16.597656 C 23.082031 16.472656 22.953125 16.117188 22.878906 15.808594 C 22.710938 15.160156 22.1875 14.1875 22.1875 14.519531 Z M 22.1875 14.519531 "/>
<path style=" stroke:none;fill-rule:nonzero;fill:rgb(0%,0%,0%);fill-opacity:1;" d="M 9.835938 15.167969 C 9.578125 15.320312 9.398438 15.46875 9.417969 15.5 C 9.492188 15.5625 10.347656 15.074219 10.347656 14.96875 C 10.347656 14.859375 10.347656 14.859375 9.835938 15.167969 Z M 9.835938 15.167969 "/>
<path style=" stroke:none;fill-rule:nonzero;fill:rgb(0%,0%,0%);fill-opacity:1;" d="M 21.707031 18.09375 C 21.589844 18.453125 19.882812 19.980469 18.945312 20.546875 C 18.324219 20.929688 18.039062 21.164062 18.078125 21.269531 C 18.113281 21.34375 18.132812 21.441406 18.132812 21.460938 C 18.132812 21.496094 18.1875 21.484375 18.261719 21.441406 C 18.324219 21.398438 18.347656 21.410156 18.316406 21.484375 C 18.199219 21.664062 18.347656 21.933594 18.65625 22.082031 C 18.996094 22.261719 19.316406 22.15625 20.234375 21.527344 C 21.152344 20.898438 23.242188 18.699219 23.019531 18.59375 C 22.996094 18.582031 22.859375 18.464844 22.710938 18.328125 C 22.558594 18.199219 22.28125 18.039062 22.101562 17.996094 C 21.824219 17.910156 21.761719 17.933594 21.707031 18.09375 Z M 22.601562 18.453125 C 22.859375 18.722656 22.828125 18.945312 22.550781 18.945312 C 22.464844 18.945312 22.398438 19 22.398438 19.0625 C 22.398438 19.117188 22.464844 19.136719 22.539062 19.09375 C 22.710938 18.988281 21.898438 19.90625 21.609375 20.140625 C 21.492188 20.234375 21.367188 20.300781 21.324219 20.269531 C 21.28125 20.246094 21.195312 20.300781 21.121094 20.386719 C 21.046875 20.472656 21.023438 20.546875 21.078125 20.546875 C 21.121094 20.546875 21.046875 20.664062 20.90625 20.8125 C 20.652344 21.078125 20.40625 21.183594 20.542969 20.949219 C 20.585938 20.875 20.574219 20.867188 20.492188 20.90625 C 20.425781 20.949219 20.394531 21.027344 20.425781 21.078125 C 20.492188 21.183594 19.5 21.867188 19.125 21.976562 C 18.964844 22.027344 18.847656 21.984375 18.730469 21.804688 C 18.632812 21.675781 18.558594 21.515625 18.558594 21.453125 C 18.558594 21.304688 19.070312 21.078125 19.285156 21.152344 C 19.414062 21.183594 19.425781 21.175781 19.339844 21.109375 C 19.242188 21.035156 19.285156 20.972656 19.5 20.84375 C 19.660156 20.75 19.828125 20.671875 19.871094 20.664062 C 19.925781 20.664062 20.054688 20.546875 20.171875 20.394531 C 20.289062 20.246094 20.449219 20.152344 20.523438 20.183594 C 20.597656 20.214844 20.726562 20.152344 20.8125 20.054688 C 20.949219 19.882812 20.9375 19.882812 20.691406 20 C 20.542969 20.085938 20.789062 19.777344 21.214844 19.328125 C 21.652344 18.890625 21.984375 18.496094 21.953125 18.464844 C 21.921875 18.433594 21.417969 18.882812 20.84375 19.457031 C 20.222656 20.078125 19.507812 20.671875 19.105469 20.90625 C 18.015625 21.539062 18.015625 21.304688 19.113281 20.597656 C 19.660156 20.246094 20.492188 19.585938 20.949219 19.125 C 21.417969 18.667969 21.867188 18.328125 21.941406 18.347656 C 22.015625 18.378906 22.101562 18.359375 22.132812 18.304688 C 22.230469 18.144531 22.347656 18.175781 22.601562 18.453125 Z M 22.601562 18.453125 "/>
<path style=" stroke:none;fill-rule:nonzero;fill:rgb(0%,0%,0%);fill-opacity:1;" d="M 16.332031 18.371094 C 16.320312 18.488281 16.46875 18.722656 16.640625 18.890625 C 16.820312 19.0625 16.960938 19.253906 16.960938 19.328125 C 16.960938 19.402344 17.011719 19.5 17.066406 19.53125 C 17.3125 19.679688 17.140625 19.234375 16.8125 18.871094 C 16.617188 18.648438 16.425781 18.390625 16.394531 18.304688 C 16.351562 18.1875 16.332031 18.210938 16.332031 18.371094 Z M 16.332031 18.371094 "/>
<path style=" stroke:none;fill-rule:nonzero;fill:rgb(0%,0%,0%);fill-opacity:1;" d="M 15.1875 19.148438 C 15.285156 19.308594 16.320312 19.832031 16.394531 19.757812 C 16.425781 19.734375 16.191406 19.574219 15.871094 19.402344 C 15.125 19.007812 15.105469 19 15.1875 19.148438 Z M 15.1875 19.148438 "/>
<path style=" stroke:none;fill-rule:nonzero;fill:rgb(0%,0%,0%);fill-opacity:1;" d="M 18.453125 19.480469 C 18.601562 19.523438 18.890625 19.5625 19.09375 19.5625 C 19.433594 19.5625 19.445312 19.554688 19.199219 19.480469 C 19.050781 19.4375 18.761719 19.394531 18.558594 19.394531 C 18.21875 19.394531 18.207031 19.402344 18.453125 19.480469 Z M 18.453125 19.480469 "/>
<path style=" stroke:none;fill-rule:nonzero;fill:rgb(0%,0%,0%);fill-opacity:1;" d="M 18.027344 19.800781 C 18.113281 19.851562 18.398438 19.894531 18.667969 19.894531 L 19.148438 19.882812 L 18.71875 19.789062 C 18.484375 19.746094 18.199219 19.703125 18.078125 19.703125 C 17.898438 19.691406 17.898438 19.714844 18.027344 19.800781 Z M 18.027344 19.800781 "/>
<path style=" stroke:none;fill-rule:nonzero;fill:rgb(0%,0%,0%);fill-opacity:1;" d="M 17.226562 21.996094 C 17.109375 22.113281 17.089844 22.210938 17.164062 22.285156 C 17.300781 22.421875 17.601562 22.304688 17.601562 22.101562 C 17.601562 21.859375 17.417969 21.804688 17.226562 21.996094 Z M 17.226562 21.996094 "/>
<path style=" stroke:none;fill-rule:nonzero;fill:rgb(0%,0%,0%);fill-opacity:1;" d="M 19.679688 22.785156 C 19.648438 22.847656 19.648438 22.933594 19.679688 23 C 19.710938 23.050781 19.667969 23.105469 19.585938 23.105469 C 19.488281 23.105469 19.414062 23.148438 19.414062 23.210938 C 19.414062 23.265625 19.308594 23.320312 19.179688 23.328125 C 19.039062 23.328125 18.996094 23.363281 19.070312 23.394531 C 19.210938 23.445312 19.839844 23.203125 19.839844 23.085938 C 19.839844 23.050781 19.914062 23 20 22.976562 C 20.136719 22.957031 20.128906 22.925781 19.957031 22.816406 C 19.820312 22.730469 19.722656 22.722656 19.679688 22.785156 Z M 19.679688 22.785156 "/>
<path style=" stroke:none;fill-rule:nonzero;fill:rgb(0%,0%,0%);fill-opacity:1;" d="M 16.917969 23.382812 C 16.574219 23.722656 16.777344 24.171875 17.28125 24.171875 C 17.609375 24.171875 17.8125 23.992188 17.8125 23.691406 C 17.8125 23.234375 17.246094 23.042969 16.917969 23.382812 Z M 17.675781 23.671875 C 17.75 23.746094 17.386719 24.066406 17.238281 24.066406 C 17.152344 24.066406 17.035156 24 16.96875 23.917969 C 16.863281 23.800781 16.886719 23.746094 17.023438 23.660156 C 17.207031 23.5625 17.566406 23.574219 17.675781 23.671875 Z M 17.675781 23.671875 "/>
<path style=" stroke:none;fill-rule:nonzero;fill:rgb(0%,0%,0%);fill-opacity:1;" d="M 14.046875 24.460938 C 14.003906 24.492188 13.972656 24.628906 13.972656 24.757812 C 13.972656 24.875 13.921875 25.035156 13.867188 25.089844 C 13.800781 25.152344 13.707031 25.355469 13.652344 25.546875 C 13.566406 25.847656 13.578125 25.878906 13.707031 25.773438 C 13.792969 25.699219 13.867188 25.558594 13.867188 25.453125 C 13.867188 25.34375 13.929688 25.207031 14.015625 25.132812 C 14.101562 25.066406 14.144531 24.941406 14.113281 24.855469 C 14.078125 24.769531 14.113281 24.628906 14.1875 24.546875 C 14.316406 24.386719 14.1875 24.3125 14.046875 24.460938 Z M 14.046875 24.460938 "/>
<path style=" stroke:none;fill-rule:nonzero;fill:rgb(0%,0%,0%);fill-opacity:1;" d="M 14.59375 25.453125 C 14.539062 25.804688 14.773438 25.984375 14.859375 25.65625 C 14.890625 25.527344 14.871094 25.472656 14.792969 25.527344 C 14.730469 25.570312 14.710938 25.503906 14.742188 25.367188 C 14.785156 25.238281 14.773438 25.132812 14.71875 25.132812 C 14.675781 25.132812 14.613281 25.269531 14.59375 25.453125 Z M 14.59375 25.453125 "/>
<path style=" stroke:none;fill-rule:nonzero;fill:rgb(0%,0%,0%);fill-opacity:1;" d="M 14.261719 25.421875 C 14.21875 25.453125 14.1875 25.570312 14.1875 25.675781 C 14.1875 25.78125 14.101562 25.921875 13.984375 25.976562 C 13.84375 26.050781 13.800781 26.167969 13.835938 26.359375 C 13.867188 26.507812 13.941406 26.625 13.996094 26.625 C 14.058594 26.625 14.078125 26.519531 14.046875 26.390625 C 14.003906 26.242188 14.046875 26.113281 14.164062 26.027344 C 14.261719 25.953125 14.347656 25.773438 14.347656 25.621094 C 14.355469 25.3125 14.355469 25.3125 14.261719 25.421875 Z M 14.261719 25.421875 "/>
<path style=" stroke:none;fill-rule:nonzero;fill:rgb(0%,0%,0%);fill-opacity:1;" d="M 18.238281 9.976562 C 18.238281 10.027344 18.324219 10.09375 18.433594 10.125 C 18.601562 10.167969 18.59375 10.175781 18.410156 10.253906 C 18.273438 10.316406 18.164062 10.285156 18.078125 10.15625 C 17.984375 10.039062 17.921875 10.015625 17.867188 10.082031 C 17.835938 10.144531 17.878906 10.230469 17.960938 10.261719 C 18.058594 10.292969 18.101562 10.371094 18.070312 10.421875 C 18.039062 10.476562 18.078125 10.519531 18.175781 10.519531 C 18.261719 10.519531 18.347656 10.570312 18.367188 10.636719 C 18.390625 10.691406 18.484375 10.710938 18.59375 10.679688 C 18.6875 10.636719 18.742188 10.5625 18.710938 10.496094 C 18.675781 10.445312 18.710938 10.402344 18.785156 10.421875 C 18.871094 10.433594 19.007812 10.433594 19.09375 10.421875 C 19.230469 10.414062 19.230469 10.402344 19.09375 10.304688 C 18.988281 10.242188 18.859375 10.261719 18.6875 10.371094 C 18.453125 10.53125 18.441406 10.519531 18.550781 10.316406 C 18.71875 10.007812 18.6875 9.878906 18.453125 9.878906 C 18.335938 9.878906 18.238281 9.921875 18.238281 9.976562 Z M 18.238281 9.976562 "/>
<path style=" stroke:none;fill-rule:nonzero;fill:rgb(0%,0%,0%);fill-opacity:1;" d="M 21.121094 10.519531 C 21.558594 10.742188 21.996094 10.933594 22.070312 10.945312 C 22.15625 10.945312 21.835938 10.753906 21.34375 10.519531 C 20.222656 9.976562 20.074219 9.976562 21.121094 10.519531 Z M 21.121094 10.519531 "/>
<path style=" stroke:none;fill-rule:nonzero;fill:rgb(0%,0%,0%);fill-opacity:1;" d="M 19.308594 10.605469 C 19.039062 10.691406 18.785156 10.957031 18.835938 11.09375 C 18.871094 11.191406 18.996094 11.136719 19.222656 10.925781 C 19.5625 10.613281 19.585938 10.507812 19.308594 10.605469 Z M 19.308594 10.605469 "/>
<path style=" stroke:none;fill-rule:nonzero;fill:rgb(0%,0%,0%);fill-opacity:1;" d="M 19.5625 11.105469 C 19.519531 11.253906 19.53125 11.414062 19.5625 11.457031 C 19.660156 11.542969 19.839844 11.265625 19.839844 11.019531 C 19.839844 10.742188 19.636719 10.808594 19.5625 11.105469 Z M 19.5625 11.105469 "/>
<path style=" stroke:none;fill-rule:nonzero;fill:rgb(0%,0%,0%);fill-opacity:1;" d="M 20.414062 11.210938 C 20.375 11.363281 20.382812 11.523438 20.414062 11.5625 C 20.511719 11.648438 20.691406 11.371094 20.691406 11.125 C 20.691406 10.847656 20.492188 10.914062 20.414062 11.210938 Z M 20.414062 11.210938 "/>
<path style=" stroke:none;fill-rule:nonzero;fill:rgb(0%,0%,0%);fill-opacity:1;" d="M 19.96875 11.339844 C 19.808594 11.617188 19.808594 11.90625 19.945312 11.90625 C 20.0625 11.90625 20.203125 11.445312 20.136719 11.246094 C 20.105469 11.160156 20.042969 11.191406 19.96875 11.339844 Z M 19.96875 11.339844 "/>
<path style=" stroke:none;fill-rule:nonzero;fill:rgb(0%,0%,0%);fill-opacity:1;" d="M 20.96875 11.320312 C 21.011719 11.402344 20.980469 11.480469 20.917969 11.480469 C 20.851562 11.480469 20.800781 11.53125 20.800781 11.597656 C 20.800781 11.679688 20.84375 11.679688 20.9375 11.597656 C 21.046875 11.511719 21.121094 11.523438 21.207031 11.605469 C 21.417969 11.820312 21.484375 11.597656 21.28125 11.371094 C 21.054688 11.117188 20.886719 11.09375 20.96875 11.320312 Z M 20.96875 11.320312 "/>
<path style=" stroke:none;fill-rule:nonzero;fill:rgb(0%,0%,0%);fill-opacity:1;" d="M 18.933594 11.480469 C 18.828125 11.597656 18.761719 11.714844 18.785156 11.746094 C 18.859375 11.808594 19.308594 11.488281 19.308594 11.363281 C 19.308594 11.203125 19.136719 11.253906 18.933594 11.480469 Z M 18.933594 11.480469 "/>
<path style=" stroke:none;fill-rule:nonzero;fill:rgb(0%,0%,0%);fill-opacity:1;" d="M 20.585938 11.820312 C 20.585938 12.066406 20.703125 12.332031 20.8125 12.332031 C 20.960938 12.332031 20.929688 12.078125 20.746094 11.839844 C 20.617188 11.671875 20.597656 11.660156 20.585938 11.820312 Z M 20.585938 11.820312 "/>
<path style=" stroke:none;fill-rule:nonzero;fill:rgb(0%,0%,0%);fill-opacity:1;" d="M 28.726562 14.007812 C 28.609375 14.113281 28.535156 14.261719 28.554688 14.328125 C 28.585938 14.402344 28.554688 14.464844 28.480469 14.464844 C 28.414062 14.464844 28.382812 14.507812 28.414062 14.5625 C 28.511719 14.710938 28.375 15 28.203125 15 C 28.117188 15 28.085938 15.0625 28.117188 15.160156 C 28.160156 15.246094 28.128906 15.320312 28.0625 15.320312 C 28 15.320312 27.980469 15.394531 28.011719 15.480469 C 28.054688 15.5625 28.019531 15.640625 27.957031 15.640625 C 27.894531 15.640625 27.839844 15.691406 27.839844 15.757812 C 27.839844 15.808594 27.5 16.375 27.082031 16.992188 C 26.550781 17.792969 26.367188 18.15625 26.441406 18.230469 C 26.527344 18.316406 26.558594 18.285156 26.558594 18.113281 C 26.558594 17.976562 26.625 17.878906 26.730469 17.878906 C 26.816406 17.878906 26.859375 17.824219 26.828125 17.773438 C 26.710938 17.582031 26.878906 17.429688 27.050781 17.570312 C 27.136719 17.632812 27.230469 17.664062 27.273438 17.621094 C 27.308594 17.589844 27.285156 17.558594 27.222656 17.558594 C 27.050781 17.558594 27.0625 17.164062 27.222656 17.066406 C 27.285156 17.027344 27.371094 17.046875 27.390625 17.109375 C 27.414062 17.183594 27.488281 17.238281 27.550781 17.238281 C 27.605469 17.238281 27.636719 17.207031 27.59375 17.175781 C 27.5625 17.132812 27.648438 16.941406 27.808594 16.75 C 28.011719 16.472656 28.054688 16.355469 27.957031 16.234375 C 27.871094 16.128906 27.902344 15.980469 28.117188 15.597656 C 28.265625 15.320312 28.414062 15.117188 28.449219 15.148438 C 28.480469 15.167969 28.449219 15.285156 28.382812 15.402344 C 28.246094 15.671875 28.234375 15.746094 28.351562 15.746094 C 28.457031 15.746094 28.703125 15 28.640625 14.882812 C 28.609375 14.847656 28.640625 14.667969 28.703125 14.488281 C 28.789062 14.242188 28.863281 14.175781 29.046875 14.21875 C 29.269531 14.261719 29.269531 14.261719 29.089844 14.113281 C 28.894531 13.953125 28.894531 13.953125 29.089844 13.898438 C 29.238281 13.859375 29.238281 13.847656 29.109375 13.835938 C 29.011719 13.835938 28.84375 13.910156 28.726562 14.007812 Z M 27.648438 16.707031 C 27.519531 16.90625 27.402344 16.992188 27.359375 16.929688 C 27.328125 16.867188 27.402344 16.664062 27.53125 16.472656 C 27.828125 16.054688 27.925781 16.234375 27.648438 16.707031 Z M 27.648438 16.707031 "/>
<path style=" stroke:none;fill-rule:nonzero;fill:rgb(0%,0%,0%);fill-opacity:1;" d="M 23.742188 20.929688 C 23.710938 21.015625 23.636719 21.066406 23.585938 21.035156 C 23.53125 21.003906 23.457031 21.046875 23.425781 21.144531 C 23.390625 21.226562 23.316406 21.269531 23.253906 21.238281 C 23.199219 21.207031 23.148438 21.25 23.148438 21.34375 C 23.148438 21.441406 23.105469 21.484375 23.039062 21.453125 C 22.988281 21.421875 22.933594 21.441406 22.933594 21.496094 C 22.933594 21.664062 23.09375 21.632812 23.253906 21.460938 C 23.316406 21.378906 23.433594 21.324219 23.5 21.355469 C 23.574219 21.378906 23.710938 21.261719 23.808594 21.078125 C 23.902344 20.90625 23.945312 20.757812 23.902344 20.757812 C 23.851562 20.757812 23.777344 20.832031 23.742188 20.929688 Z M 23.742188 20.929688 "/>
<path style=" stroke:none;fill-rule:nonzero;fill:rgb(0%,0%,0%);fill-opacity:1;" d="M 23.148438 21.730469 C 23.148438 21.78125 23.105469 21.816406 23.050781 21.78125 C 22.996094 21.75 22.890625 21.804688 22.816406 21.898438 C 22.710938 22.027344 22.710938 22.050781 22.804688 21.996094 C 22.878906 21.953125 22.933594 21.976562 22.933594 22.050781 C 22.933594 22.125 23.019531 22.101562 23.148438 21.984375 C 23.382812 21.773438 23.425781 21.613281 23.253906 21.613281 C 23.199219 21.613281 23.148438 21.664062 23.148438 21.730469 Z M 23.148438 21.730469 "/>
<path style=" stroke:none;fill-rule:nonzero;fill:rgb(0%,0%,0%);fill-opacity:1;" d="M 21.929688 22.882812 C 21.78125 23.042969 21.792969 23.074219 21.984375 23.191406 C 22.1875 23.320312 22.199219 23.308594 22.132812 23.09375 C 22.070312 22.902344 22.089844 22.871094 22.230469 22.925781 C 22.324219 22.96875 22.398438 22.945312 22.398438 22.902344 C 22.398438 22.710938 22.089844 22.699219 21.929688 22.882812 Z M 21.929688 22.882812 "/>
<path style=" stroke:none;fill-rule:nonzero;fill:rgb(0%,0%,0%);fill-opacity:1;" d="M 20 25.027344 C 19.574219 25.460938 19.445312 25.632812 19.605469 25.589844 C 19.734375 25.558594 19.820312 25.496094 19.785156 25.453125 C 19.722656 25.34375 20.105469 25.003906 20.191406 25.101562 C 20.234375 25.132812 20.265625 25.089844 20.265625 24.992188 C 20.265625 24.886719 20.332031 24.8125 20.40625 24.8125 C 20.480469 24.8125 20.597656 24.714844 20.671875 24.597656 C 20.917969 24.203125 20.640625 24.386719 20 25.027344 Z M 20 25.027344 "/>
<path style=" stroke:none;fill-rule:nonzero;fill:rgb(0%,0%,0%);fill-opacity:1;" d="M 16.265625 27.265625 C 16.234375 27.320312 16.128906 27.371094 16.042969 27.371094 C 15.957031 27.371094 15.691406 27.46875 15.464844 27.574219 C 15.230469 27.691406 14.933594 27.757812 14.804688 27.734375 C 14.558594 27.679688 14.558594 27.679688 14.804688 27.800781 C 14.988281 27.875 15.136719 27.863281 15.371094 27.734375 C 15.550781 27.648438 15.777344 27.585938 15.871094 27.605469 C 15.980469 27.628906 15.808594 27.734375 15.5 27.839844 C 15.1875 27.949219 14.910156 28.078125 14.871094 28.128906 C 14.835938 28.183594 15.070312 28.128906 15.382812 28 C 15.691406 27.875 16.054688 27.734375 16.191406 27.679688 C 16.320312 27.628906 16.425781 27.5625 16.425781 27.542969 C 16.425781 27.511719 16.351562 27.511719 16.265625 27.542969 C 15.945312 27.671875 16.117188 27.480469 16.457031 27.328125 C 16.734375 27.203125 16.757812 27.167969 16.566406 27.167969 C 16.4375 27.160156 16.296875 27.203125 16.265625 27.265625 Z M 16.265625 27.265625 "/>
<path style=" stroke:none;fill-rule:nonzero;fill:rgb(0%,0%,0%);fill-opacity:1;" d="M 13.683594 28.246094 C 13.695312 28.332031 13.601562 28.386719 13.441406 28.386719 C 13.089844 28.386719 13.023438 28.707031 13.375 28.714844 C 13.523438 28.726562 13.632812 28.683594 13.621094 28.621094 C 13.609375 28.554688 13.707031 28.449219 13.84375 28.386719 C 14.058594 28.269531 14.070312 28.246094 13.921875 28.183594 C 13.675781 28.097656 13.652344 28.097656 13.683594 28.246094 Z M 13.683594 28.246094 "/>
<path style=" stroke:none;fill-rule:nonzero;fill:rgb(0%,0%,0%);fill-opacity:1;" d="M 11.945312 15.605469 C 11.433594 15.789062 10.558594 16.214844 10.558594 16.277344 C 10.558594 16.320312 10.804688 16.234375 11.105469 16.085938 C 11.402344 15.9375 11.902344 15.789062 12.222656 15.765625 C 12.535156 15.746094 12.769531 15.679688 12.734375 15.628906 C 12.671875 15.523438 12.203125 15.511719 11.945312 15.605469 Z M 11.945312 15.605469 "/>
<path style=" stroke:none;fill-rule:nonzero;fill:rgb(0%,0%,0%);fill-opacity:1;" d="M 9.941406 16.917969 C 9.738281 17.152344 9.601562 17.398438 9.621094 17.453125 C 9.644531 17.515625 9.835938 17.3125 10.046875 17.027344 C 10.515625 16.386719 10.441406 16.320312 9.941406 16.917969 Z M 9.941406 16.917969 "/>
<path style=" stroke:none;fill-rule:nonzero;fill:rgb(0%,0%,0%);fill-opacity:1;" d="M 15.625 20.332031 C 15.59375 20.375 15.648438 20.4375 15.734375 20.480469 C 15.902344 20.546875 16.214844 20.460938 16.214844 20.34375 C 16.214844 20.246094 15.691406 20.234375 15.625 20.332031 Z M 15.625 20.332031 "/>
<path style=" stroke:none;fill-rule:nonzero;fill:rgb(0%,0%,0%);fill-opacity:1;" d="M 12.746094 21.292969 C 13.707031 21.601562 14.433594 21.730469 13.867188 21.484375 C 13.503906 21.335938 12.136719 20.972656 11.945312 20.984375 C 11.863281 20.984375 12.222656 21.121094 12.746094 21.292969 Z M 12.746094 21.292969 "/>
</g>
</svg>
