 <svg  version="1.0" xmlns="http://www.w3.org/2000/svg"  width="300.000000pt" height="170.000000pt" viewBox="0 0 300.000000 170.000000"  preserveAspectRatio="xMidYMid meet">  <g transform="translate(0.000000,170.000000) scale(0.100000,-0.100000)" fill="#f50000" stroke="none"> <path d="M2400 1349 c-52 -22 -133 -56 -180 -76 -47 -19 -120 -50 -163 -69 -42 -19 -114 -46 -160 -60 -141 -44 -138 -42 -62 -43 48 -1 77 4 93 14 16 12 34 14 72 9 44 -6 53 -4 65 14 17 24 73 53 135 71 44 13 111 41 140 61 26 17 143 70 147 67 3 -4 -65 -68 -162 -152 -31 -27 -76 -68 -99 -91 -23 -23 -63 -49 -91 -59 -27 -10 -62 -26 -77 -36 -14 -11 -37 -19 -51 -19 -13 0 -31 -7 -38 -16 -12 -15 -10 -16 19 -10 20 5 32 4 33 -3 2 -16 4 -23 18 -56 7 -16 17 -40 22 -53 7 -19 11 -21 28 -10 12 7 16 15 10 19 -7 4 -5 8 5 12 8 3 16 1 18 -5 7 -19 62 7 106 50 23 22 57 46 77 53 23 9 35 19 35 32 0 13 5 17 15 13 15 -5 114 89 115 110 0 7 7 14 15 18 27 10 -25 -69 -109 -167 -43 -51 -84 -94 -90 -96 -6 -2 -34 -25 -62 -50 -59 -53 -201 -144 -226 -146 -21 -2 -34 -12 -25 -21 6 -7 66 11 114 33 17 8 37 12 44 8 7 -5 10 -4 6 2 -4 6 5 18 19 28 189 123 375 360 418 531 20 78 20 99 0 118 -25 25 -72 18 -174 -25z m156 -63 c-8 -20 -20 -36 -25 -36 -6 0 -11 -8 -11 -17 -1 -22 -46 -57 -61 -47 -8 5 -8 1 0 -13 18 -35 -21 -48 -45 -15 -11 14 -13 15 -14 2 0 -9 5 -21 12 -28 7 -7 8 -12 2 -12 -6 0 -21 11 -33 24 -20 21 -21 27 -9 45 8 13 19 19 29 16 12 -4 24 6 39 30 12 19 26 35 32 35 5 0 29 21 51 47 36 40 42 43 45 26 2 -12 -4 -37 -12 -57z m-251 -15 c-16 -14 -69 -28 -85 -23 -10 3 -2 10 20 18 41 15 78 18 65 5z m81 -143 c40 -39 42 -48 9 -48 -14 0 -25 -4 -25 -10 0 -5 -5 -10 -12 -10 -6 0 -8 3 -5 6 3 4 -5 15 -18 26 -14 11 -25 24 -25 30 0 6 7 5 17 -3 15 -12 16 -12 10 4 -7 18 -2 37 10 37 3 0 21 -15 39 -32z m-46 -90 c0 -13 -44 -38 -66 -38 -7 0 -19 9 -27 21 -14 19 -13 25 11 63 l27 43 27 -39 c16 -21 28 -43 28 -50z m-112 -38 c12 -16 22 -34 22 -40 0 -19 -42 -10 -61 13 -10 12 -18 16 -19 10 0 -7 5 -13 11 -13 6 0 9 -6 6 -12 -2 -7 0 -25 4 -40 10 -37 -16 -61 -37 -33 -10 13 -14 15 -14 4 0 -9 -11 -14 -30 -14 -21 0 -29 4 -25 14 3 7 -4 28 -15 46 l-21 33 38 13 c21 6 40 15 43 18 4 6 55 27 71 30 3 1 15 -12 27 -29z"/> <path d="M1062 1140 c-12 -5 -29 -7 -37 -4 -22 9 -83 -15 -120 -47 -44 -39 -59 -78 -50 -134 l6 -46 20 25 c10 13 19 29 19 34 0 5 7 12 15 16 8 3 15 15 15 26 0 30 25 75 56 99 45 36 49 23 5 -19 -22 -22 -41 -46 -41 -52 1 -23 25 -47 39 -39 10 6 9 12 -4 25 -16 16 -14 46 3 46 5 0 19 -11 31 -24 22 -23 22 -26 7 -48 -20 -28 -20 -38 -2 -38 20 0 27 -13 16 -30 -7 -12 -12 -11 -29 4 -12 11 -21 14 -21 9 0 -6 -14 -24 -31 -41 -28 -27 -29 -31 -14 -46 15 -15 15 -16 -9 -16 -19 0 -24 -4 -19 -16 4 -12 2 -15 -8 -12 -9 3 -13 16 -11 36 3 26 -2 33 -28 47 -18 9 -29 12 -26 6 4 -6 2 -11 -4 -11 -6 0 -2 -10 10 -22 39 -43 18 -74 -48 -71 -24 1 -54 9 -68 17 -13 9 -31 16 -41 15 -14 0 -15 -2 -3 -6 8 -3 17 -9 20 -13 3 -4 36 -15 75 -23 54 -13 72 -13 84 -4 12 9 13 9 7 0 -4 -7 -2 -13 3 -13 18 0 26 5 24 13 -2 4 4 7 12 7 7 0 18 7 23 16 10 19 22 20 32 4 5 -8 13 -1 23 19 15 29 14 31 -4 31 -22 0 -24 17 -5 43 17 22 23 14 32 -43 5 -31 4 -41 -4 -36 -11 7 -19 -32 -12 -59 2 -5 2 -21 2 -35 -1 -18 1 -21 7 -11 7 11 10 9 14 -10 4 -24 12 69 10 124 -1 23 3 27 27 27 28 0 28 0 15 -37 -13 -37 -10 -67 5 -58 5 3 14 22 20 43 7 20 23 59 35 85 13 27 21 55 18 63 -9 23 -21 16 -16 -10 5 -26 -36 -66 -68 -66 -29 0 -22 21 22 65 40 40 35 59 -10 35 -19 -10 -21 -8 -21 22 0 19 -7 44 -16 56 -14 21 -14 23 10 33 50 23 245 -29 272 -72 3 -6 -5 -22 -20 -35 -14 -14 -26 -33 -25 -42 1 -20 17 -61 19 -47 0 6 7 -5 15 -23 10 -22 26 -38 52 -48 21 -8 52 -21 68 -29 17 -7 67 -25 112 -40 76 -24 93 -26 212 -22 124 4 151 9 151 26 0 13 -59 19 -63 8 -2 -7 -14 -6 -35 1 -21 7 -34 8 -38 1 -15 -24 -181 -1 -272 37 -18 8 -37 14 -43 14 -5 0 -19 9 -31 20 -22 21 -54 28 -43 10 3 -5 -1 -10 -9 -10 -17 0 -46 48 -46 77 0 15 -2 16 -10 3 -14 -23 -24 13 -10 39 14 26 20 26 89 -3 96 -41 164 -64 208 -70 65 -9 93 -23 93 -45 0 -11 9 -25 20 -31 23 -12 25 -3 8 35 -9 21 -9 28 1 34 8 5 1 10 -21 15 -19 4 -28 10 -22 14 7 4 13 16 15 27 3 14 12 20 29 20 21 0 27 -7 36 -46 18 -70 32 -93 50 -78 16 13 19 45 4 54 -9 5 -40 69 -40 81 0 2 10 4 23 4 33 0 64 -38 72 -87 4 -24 11 -43 16 -43 5 0 11 -11 15 -25 6 -25 18 -32 28 -17 3 5 -1 30 -9 55 -17 57 -2 62 22 7 11 -24 30 -46 50 -57 31 -17 34 -17 50 0 16 16 16 17 -3 17 -33 0 -63 28 -74 70 -6 22 -15 40 -21 40 -6 0 -7 5 -3 12 4 7 3 8 -4 4 -7 -4 -12 -14 -12 -22 0 -24 -19 -16 -35 16 -20 39 -69 64 -104 54 -14 -4 -30 -6 -35 -5 -24 6 -65 -13 -76 -34 -7 -13 -19 -26 -26 -29 -8 -3 -54 5 -102 17 -86 23 -168 67 -288 156 -55 42 -151 61 -202 41z m123 -20 c17 -7 16 -9 -10 -9 -16 0 -37 4 -45 9 -12 8 -10 10 10 9 14 0 34 -4 45 -9z m-279 -98 c-15 -15 -16 -15 -16 4 0 28 24 52 28 28 2 -9 -3 -24 -12 -32z"/> <path d="M1300 1104 c0 -2 16 -10 36 -19 19 -8 56 -28 81 -45 25 -17 47 -29 50 -27 5 5 -64 77 -74 77 -5 1 -27 5 -50 9 -24 5 -43 7 -43 5z"/> <path d="M1445 1084 c40 -22 66 -45 60 -54 -3 -4 11 -20 30 -34 l35 -27 -17 35 c-9 20 -14 38 -11 42 7 6 55 6 208 1 75 -2 130 2 194 15 49 10 92 20 94 23 13 12 -82 3 -108 -10 -25 -13 -37 -13 -102 1 -44 10 -141 17 -243 20 -161 4 -168 3 -140 -12z m323 -15 c26 -10 30 -23 5 -15 -10 3 -33 7 -50 8 -18 1 -33 6 -33 11 0 4 -5 5 -12 1 -7 -4 -8 -3 -4 5 8 12 45 8 94 -10z"/> <path d="M930 954 c0 -14 -4 -23 -9 -19 -5 3 -13 0 -17 -6 -4 -8 -3 -9 4 -5 15 9 15 1 2 -24 -6 -12 -7 -21 -1 -25 10 -6 33 28 37 54 2 7 8 19 15 25 9 8 10 8 4 -3 -6 -10 -4 -12 4 -7 9 6 9 11 0 22 -19 23 -39 17 -39 -12z"/> <path d="M315 901 c-102 -27 -185 -122 -185 -210 0 -30 5 -43 19 -51 47 -25 83 1 74 54 -10 62 79 136 164 136 91 -1 372 -94 408 -136 12 -13 28 -24 36 -24 9 0 19 -3 23 -7 4 -5 12 -9 17 -9 5 -1 14 -2 19 -3 13 -1 13 -61 -1 -61 -6 0 -8 8 -4 19 3 11 1 22 -5 26 -5 3 -10 1 -10 -5 0 -6 -5 -8 -11 -4 -17 10 -1 -56 20 -85 23 -33 69 -66 78 -58 4 4 1 13 -5 19 -7 7 -12 18 -12 24 0 7 -5 25 -12 41 -6 15 -13 39 -14 52 l-3 24 24 -23 c19 -18 22 -26 13 -37 -6 -7 -8 -16 -5 -19 9 -9 47 20 47 37 0 9 9 24 20 34 11 10 20 25 20 34 0 9 -8 3 -19 -15 -25 -41 -46 -55 -39 -26 6 22 -10 26 -24 7 -4 -5 -8 0 -8 12 0 18 -5 21 -31 20 -24 -2 -33 3 -35 16 -1 9 2 17 7 17 5 0 9 5 9 11 0 7 -11 9 -27 6 -31 -6 -103 31 -84 43 12 7 -28 30 -52 30 -7 0 -25 7 -40 15 -15 8 -43 17 -63 21 -19 3 -37 10 -40 16 -3 5 -15 6 -26 2 -13 -4 -18 -2 -14 4 7 12 -87 24 -129 17 -116 -21 -190 -67 -202 -126 -3 -16 -9 -32 -14 -34 -4 -3 -6 -17 -3 -30 4 -25 -9 -34 -22 -14 -3 6 0 15 7 20 9 6 10 9 2 9 -7 0 -17 -8 -22 -17 -9 -15 -10 -16 -11 -2 0 17 33 52 42 44 2 -3 3 7 1 23 -3 21 4 36 35 68 64 66 101 79 217 77 65 -1 124 -8 169 -21 44 -12 90 -18 123 -16 36 3 61 -1 76 -11 21 -14 23 -13 25 10 2 25 1 25 -86 25 -48 0 -119 7 -157 15 -86 18 -239 27 -280 16z"/> <path d="M2065 663 c-95 -49 -300 -135 -356 -148 -30 -8 -104 -19 -164 -25 -65 -7 -136 -21 -179 -36 -102 -37 -237 -44 -291 -16 -40 20 -79 56 -86 79 -3 8 -9 9 -18 4 -23 -15 8 -63 58 -88 24 -12 51 -28 60 -36 29 -25 50 -27 124 -11 40 8 149 28 242 45 168 29 512 113 425 104 l-45 -5 55 26 c67 32 230 124 230 130 0 6 0 6 -55 -23z"/> <path d="M917 405 c-63 -48 -62 -63 6 -58 110 8 157 15 157 22 0 8 -88 26 -123 25 -16 -1 -16 1 0 18 30 33 7 29 -40 -7z"/> <path d="M760 381 c-28 -5 -31 -8 -17 -14 28 -11 117 -9 117 3 0 6 -6 10 -12 10 -7 0 -22 2 -33 4 -11 2 -36 1 -55 -3z"/> </g> </svg> 