 <svg  version="1.0" xmlns="http://www.w3.org/2000/svg"  width="300.000000pt" height="300.000000pt" viewBox="0 0 300.000000 300.000000"  preserveAspectRatio="xMidYMid meet">  <g transform="translate(0.000000,300.000000) scale(0.100000,-0.100000)" fill="#a00ae6" stroke="none"> <path d="M1910 2913 c-33 -13 -33 -35 -1 -53 15 -8 20 -5 24 12 4 16 3 18 -6 9 -15 -15 -27 -14 -27 4 0 14 12 20 33 16 5 -1 6 3 2 9 -3 5 -7 10 -8 9 -1 0 -9 -3 -17 -6z"/> <path d="M2615 2913 c41 -6 51 -19 25 -33 -16 -9 -25 -8 -37 2 -15 12 -15 11 -3 -9 15 -23 34 -19 60 12 18 21 -1 35 -45 33 l-30 -1 30 -4z"/> <path d="M1263 2819 c-8 -8 -8 -20 -3 -34 6 -17 5 -27 -6 -35 -11 -10 -14 -10 -14 0 0 10 -5 9 -17 -2 -10 -9 -28 -19 -41 -23 -13 -4 -22 -8 -20 -10 10 -10 114 31 134 52 19 21 21 28 11 44 -13 22 -28 24 -44 8z"/> <path d="M1505 2780 c-8 -13 118 -21 129 -9 8 8 8 10 0 6 -5 -3 -36 -2 -67 2 -32 4 -60 5 -62 1z"/> <path d="M1325 2764 c-38 -12 -37 -12 25 -7 75 7 82 9 43 15 -15 2 -46 -2 -68 -8z"/> <path d="M2378 2729 c-22 -12 -23 -42 -2 -59 21 -18 50 10 39 37 -5 10 -7 21 -7 26 3 10 -9 8 -30 -4z"/> <path d="M1625 2680 c-10 -15 5 -32 23 -25 8 3 55 -6 105 -21 61 -18 92 -23 99 -16 12 12 -67 39 -142 49 -25 3 -53 10 -62 14 -10 6 -19 5 -23 -1z"/> <path d="M992 2654 c-13 -9 -30 -13 -38 -10 -8 3 -12 2 -9 -4 7 -11 -52 -43 -65 -35 -5 3 -12 0 -16 -6 -4 -7 -3 -9 4 -5 5 3 12 2 14 -2 1 -5 39 11 83 35 44 23 73 43 65 43 -9 0 -26 -7 -38 -16z"/> <path d="M2756 2612 l-20 -27 24 20 c16 14 24 16 27 8 6 -18 30 -16 30 1 0 8 -6 12 -14 9 -7 -3 -13 0 -13 6 0 19 -14 12 -34 -17z"/> <path d="M1077 2588 c-32 -16 -57 -32 -54 -34 7 -7 117 45 117 56 0 12 6 14 -63 -22z"/> <path d="M1893 2609 c9 -5 17 -16 17 -23 0 -15 58 -46 84 -46 8 0 30 -13 48 -29 18 -15 44 -32 58 -36 14 -4 33 -14 43 -23 12 -11 21 -12 28 -5 8 8 -16 27 -83 67 -52 31 -101 56 -109 56 -8 0 -31 11 -51 25 -20 14 -41 25 -45 25 -4 0 0 -5 10 -11z"/> <path d="M1611 2587 c-13 -13 -15 -47 -2 -47 5 0 8 8 7 18 -1 14 7 17 42 15 23 -1 42 2 42 8 0 5 -10 9 -22 10 -13 0 -30 2 -40 4 -9 2 -21 -2 -27 -8z"/> <path d="M1716 2571 c-3 -4 13 -14 35 -20 23 -7 48 -15 58 -18 11 -4 10 -1 -4 10 -11 9 -30 17 -42 17 -13 0 -23 5 -23 10 0 12 -17 13 -24 1z"/> <path d="M1181 2544 c-53 -22 -32 -25 34 -4 46 15 53 19 30 19 -16 0 -45 -6 -64 -15z"/> <path d="M945 2526 c-16 -7 -39 -24 -50 -37 l-20 -23 25 17 c14 9 40 23 58 31 17 8 32 17 32 20 0 9 -12 7 -45 -8z"/> <path d="M1422 2523 c-7 -12 -20 -20 -29 -19 -10 2 -38 -8 -63 -22 -53 -28 -198 -84 -222 -85 -15 -1 -15 -3 -3 -17 13 -14 15 -19 15 -39 0 -5 24 -24 53 -41 28 -18 68 -43 87 -56 l35 -24 8 23 c9 22 9 22 19 -5 5 -16 14 -28 19 -28 12 0 11 10 -6 40 -12 22 -11 27 7 48 12 12 17 22 11 22 -6 0 -21 -11 -34 -25 -13 -13 -32 -25 -41 -25 -21 0 -148 68 -148 80 0 12 145 69 192 75 33 3 37 3 18 -4 -24 -9 -24 -9 7 -10 17 -1 34 3 38 8 8 14 -34 41 -53 34 -10 -4 -13 -2 -8 5 8 13 55 16 72 4 22 -13 45 -85 38 -115 -4 -20 -9 -25 -14 -17 -4 7 -13 9 -20 5 -8 -5 -7 -12 6 -26 9 -10 14 -25 11 -34 -7 -17 -27 -21 -27 -5 0 6 4 10 10 10 5 0 7 7 4 15 -8 19 -24 19 -51 0 -20 -14 -20 -16 -4 -50 14 -31 20 -35 51 -33 33 3 35 5 42 48 10 63 10 233 0 261 l-9 23 -11 -21z"/> <path d="M1120 2520 c-8 -4 -34 -16 -58 -26 -24 -9 -45 -21 -48 -25 -4 -7 116 38 125 47 9 9 -5 11 -19 4z"/> <path d="M1607 2464 c-4 -38 -7 -121 -7 -186 l0 -116 41 -7 c48 -8 58 -1 66 48 5 35 5 35 -38 44 -43 8 -44 9 -47 52 -3 42 13 101 28 101 4 0 12 -10 17 -23 9 -19 8 -26 -6 -34 -14 -9 -12 -12 12 -18 37 -10 35 -28 -3 -20 -19 4 -30 3 -30 -5 0 -17 24 -22 53 -11 16 6 28 7 32 1 3 -5 17 -9 30 -8 22 2 25 7 25 41 0 21 -4 36 -9 33 -5 -4 -12 0 -14 6 -3 7 -6 2 -6 -12 -1 -14 -6 -32 -11 -40 -7 -11 -15 -1 -35 43 -14 32 -25 59 -25 61 0 5 61 -17 76 -26 6 -4 19 1 29 12 10 11 16 20 14 20 -94 11 -129 11 -129 0 0 -20 -10 -6 -19 28 -8 25 -6 30 5 25 8 -3 14 -11 14 -18 0 -10 7 -11 30 -5 17 5 30 5 30 0 0 -5 6 -7 14 -4 8 3 28 -1 44 -10 16 -8 32 -12 36 -9 3 4 6 -1 6 -10 0 -10 -8 -17 -19 -17 -10 0 -21 -6 -24 -12 -3 -10 7 -12 38 -10 36 3 48 -1 77 -27 20 -17 38 -44 42 -61 8 -45 33 -49 63 -11 23 30 99 77 116 73 14 -4 7 16 -9 22 -9 4 -13 2 -8 -5 11 -19 -37 1 -83 34 -24 17 -45 28 -49 25 -3 -3 11 -16 30 -28 38 -23 47 -40 19 -35 -10 2 -20 4 -23 5 -3 1 -8 2 -13 1 -19 -3 -77 30 -77 44 0 12 -6 15 -20 10 -13 -4 -20 -2 -18 5 4 15 -85 42 -137 41 -45 0 -100 22 -113 45 -6 11 -11 -5 -15 -52z m293 -72 c30 -16 56 -32 58 -38 1 -5 8 -10 15 -10 6 -1 18 -2 25 -3 6 0 12 -7 12 -15 0 -8 -6 -16 -12 -19 -17 -5 -38 3 -38 15 0 16 -54 59 -82 65 -15 3 -29 11 -32 19 -7 18 -11 19 54 -14z m-230 -197 c0 -31 -35 -35 -43 -6 -6 24 0 31 25 31 13 0 18 -7 18 -25z"/> <path d="M1140 2489 c-47 -16 -104 -37 -128 -46 -24 -8 -41 -17 -39 -20 3 -2 48 12 100 31 52 20 109 39 126 42 17 4 31 10 31 15 0 11 8 13 -90 -22z"/> <path d="M1916 2481 c45 -21 99 -51 122 -65 53 -33 66 -34 21 0 -42 32 -187 104 -208 104 -8 0 21 -17 65 -39z"/> <path d="M2546 2461 c-13 -15 -14 -20 -2 -36 16 -22 60 -14 70 12 6 15 5 16 -5 6 -15 -15 -59 -17 -59 -4 0 5 12 11 28 13 26 3 26 3 6 15 -18 10 -24 9 -38 -6z"/> <path d="M2250 2421 c13 -26 25 -32 45 -25 15 6 14 8 -1 25 -9 11 -26 19 -36 19 -15 0 -17 -3 -8 -19z"/> <path d="M785 2410 c-10 -11 -13 -20 -8 -20 6 0 14 8 18 18 6 16 7 16 19 0 14 -18 26 -14 26 9 0 20 -35 16 -55 -7z"/> <path d="M2677 2414 c-30 -16 -34 -31 -13 -60 14 -19 15 -19 42 2 41 30 44 50 6 30 -35 -18 -52 -20 -52 -7 0 5 16 15 36 23 24 10 32 17 22 20 -7 3 -26 -1 -41 -8z"/> <path d="M922 2397 c5 -10 16 -21 23 -23 8 -3 34 -30 59 -60 l44 -54 7 31 c4 18 19 42 33 54 l26 22 -23 8 c-15 4 -28 1 -40 -9 -17 -15 -21 -15 -60 6 -23 12 -40 27 -38 33 3 5 -6 10 -18 10 -19 0 -21 -3 -13 -18z"/> <path d="M1474 2407 c3 -10 6 -32 6 -48 0 -19 5 -29 15 -29 22 0 19 44 -6 71 -16 19 -19 20 -15 6z"/> <path d="M1332 2387 c-29 -6 -51 -16 -49 -21 5 -15 72 -19 97 -6 19 10 29 42 13 38 -5 0 -32 -6 -61 -11z"/> <path d="M2295 2381 c-5 -9 31 -41 46 -41 9 0 6 21 -4 38 -10 14 -33 16 -42 3z"/> <path d="M220 2371 c0 -16 20 -23 46 -17 36 9 29 26 -11 26 -19 0 -35 -4 -35 -9z"/> <path d="M1250 2341 c0 -43 11 -58 28 -38 7 8 6 22 -3 45 -18 42 -25 41 -25 -7z"/> <path d="M1557 2332 c-11 -12 -17 -36 -17 -69 0 -46 2 -51 20 -46 24 6 27 33 4 33 -9 0 -14 6 -11 13 2 6 9 11 15 10 5 -1 12 16 14 37 4 44 -1 49 -25 22z"/> <path d="M1817 2334 c-54 -29 -22 -46 38 -20 28 12 29 13 10 23 -15 8 -27 8 -48 -3z"/> <path d="M2070 2298 c-25 -22 -46 -44 -46 -49 -1 -5 -2 -14 -3 -20 0 -5 -5 -8 -10 -5 -4 3 -19 -6 -32 -21 -13 -14 -18 -23 -11 -19 6 4 12 3 12 -2 0 -12 -25 -33 -32 -27 -3 3 -11 -2 -19 -12 -12 -14 -12 -15 0 -9 9 6 12 5 9 -5 -3 -8 -10 -13 -16 -12 -7 2 -30 -23 -53 -55 -23 -31 -67 -84 -98 -117 l-56 -60 63 60 c35 33 79 84 99 113 20 28 38 50 41 48 14 -14 -184 -242 -204 -235 -9 3 -94 -119 -94 -134 0 -12 187 185 239 251 23 28 41 56 41 61 0 5 22 32 48 60 26 28 46 51 43 51 -4 0 3 7 13 15 11 8 16 15 12 15 -5 0 6 14 23 32 17 17 31 35 31 39 0 4 12 22 26 39 38 45 26 44 -26 -2z"/> <path d="M666 2276 c-25 -29 -46 -56 -46 -60 0 -3 -14 -21 -31 -39 -34 -35 -54 -67 -42 -67 15 1 71 58 77 78 4 11 29 44 56 72 28 29 50 56 50 61 0 21 -21 6 -64 -45z"/> <path d="M2619 2309 c-14 -26 8 -53 34 -43 20 7 22 35 5 52 -17 17 -26 15 -39 -9z"/> <path d="M244 2282 c-20 -13 -11 -41 17 -51 16 -5 31 -6 34 -1 3 4 -7 11 -21 14 -20 5 -25 12 -21 26 6 23 6 22 -9 12z"/> <path d="M1114 2269 c-10 -12 -27 -24 -37 -28 -16 -6 -13 -13 24 -59 49 -59 69 -64 130 -30 39 22 44 32 33 63 -7 18 -63 50 -72 41 -3 -3 0 -6 6 -6 7 0 12 -10 12 -21 0 -19 -4 -21 -31 -15 -17 3 -35 6 -40 6 -5 0 -9 9 -9 20 0 15 7 20 26 20 22 0 25 2 14 15 -17 21 -33 19 -56 -6z"/> <path d="M2253 2275 c-13 -9 -20 -22 -16 -31 5 -13 9 -12 25 6 26 27 19 45 -9 25z"/> <path d="M1712 2262 c4 -21 43 -29 98 -21 25 3 36 7 25 7 -11 1 -44 8 -73 16 -47 12 -53 12 -50 -2z"/> <path d="M748 2229 c-20 -23 -39 -48 -42 -55 -3 -8 -10 -14 -15 -14 -5 0 -12 -11 -15 -24 -3 -13 -17 -34 -31 -47 -13 -13 -25 -29 -25 -34 0 -6 -9 -27 -19 -48 -10 -20 -16 -37 -12 -37 4 0 32 43 62 96 59 106 122 184 146 184 9 0 32 -12 52 -27 l36 -26 -35 36 c-19 20 -42 36 -50 36 -8 1 -32 -18 -52 -40z"/> <path d="M1823 2232 c-51 -3 -52 -4 -59 -38 -3 -19 -4 -38 0 -41 3 -3 28 -6 56 -7 27 -1 50 -4 50 -8 0 -22 30 -1 67 47 l42 54 -52 -2 c-29 -1 -75 -3 -104 -5z m64 -35 c3 -4 1 -7 -5 -7 -6 0 -9 -7 -5 -16 5 -15 3 -15 -20 1 -25 16 -27 16 -34 0 -6 -17 -7 -17 -20 1 -7 10 -13 21 -13 25 0 9 88 5 97 -4z"/> <path d="M2357 2224 c-14 -15 -6 -35 18 -46 14 -6 25 -17 25 -24 0 -7 13 -23 29 -36 16 -13 39 -43 51 -68 35 -71 74 -129 84 -126 25 7 16 27 -52 111 -4 6 -14 24 -21 42 -7 17 -19 34 -27 37 -8 3 -14 11 -14 19 0 17 -84 99 -93 91z"/> <path d="M1460 2220 c-1 -3 -3 -31 -5 -63 -2 -48 0 -57 12 -53 8 3 20 6 26 6 7 1 1 7 -12 14 -23 13 -23 13 -2 19 23 6 29 37 7 37 -8 0 -17 10 -19 23 -2 12 -5 20 -7 17z"/> <path d="M1388 2193 c-39 -6 -51 -25 -37 -56 13 -29 58 -45 70 -25 11 16 12 89 2 87 -5 -1 -20 -4 -35 -6z"/> <path d="M1546 2178 c8 -29 10 -31 23 -23 20 12 13 45 -10 45 -16 0 -19 -4 -13 -22z"/> <path d="M870 2172 c0 -6 8 -16 18 -21 13 -8 8 -10 -26 -11 -35 0 -45 -4 -49 -20 -4 -17 -11 -19 -37 -15 -28 5 -35 1 -66 -39 -19 -25 -41 -43 -48 -41 -7 3 -10 0 -7 -5 3 -6 -2 -10 -11 -10 -16 0 -16 -1 2 -16 19 -15 19 -15 -1 -10 -17 5 -23 -1 -32 -34 -12 -47 -7 -50 25 -12 15 18 22 21 18 9 -3 -11 -2 -15 4 -12 6 3 10 17 10 29 0 21 26 55 33 45 14 -20 25 -61 20 -77 -3 -14 1 -22 17 -27 14 -4 19 -12 16 -22 -3 -8 -6 -20 -6 -26 -1 -7 -8 -3 -18 8 -11 13 -28 19 -50 18 -24 -1 -32 2 -28 12 5 14 -18 28 -28 18 -3 -4 -6 -16 -6 -28 0 -12 -13 -34 -30 -50 -16 -16 -30 -31 -30 -35 0 -3 19 -6 43 -7 70 -1 251 -25 267 -34 22 -12 -82 -11 -215 3 l-112 11 14 76 c8 41 19 84 25 96 11 19 10 19 -9 2 -20 -18 -43 -78 -43 -115 0 -11 -11 -33 -24 -49 l-24 -28 57 -2 c31 -1 142 -4 246 -6 191 -5 330 -25 435 -62 103 -36 94 -10 -50 140 -66 69 -120 129 -120 133 0 4 -4 13 -9 21 -12 19 -47 -2 -67 -40 -15 -30 -15 -32 8 -56 13 -14 31 -29 41 -34 14 -8 17 -6 17 11 0 13 -7 20 -19 20 -24 0 -33 23 -17 45 12 17 14 16 34 -6 12 -12 22 -27 22 -32 0 -5 7 -4 15 3 20 17 19 8 -6 -34 -23 -39 -28 -42 -49 -23 -12 10 -12 9 -1 -5 11 -15 11 -22 -3 -43 -9 -14 -18 -25 -19 -25 -2 0 -3 17 -3 38 1 33 -2 37 -26 40 -23 3 -30 -2 -44 -35 -18 -42 -32 -29 -16 16 12 33 0 51 -32 51 -17 0 -18 2 -4 18 21 24 7 70 -36 111 -33 32 -35 33 -57 17 l-23 -16 25 0 c31 0 75 -32 85 -62 5 -16 -2 -28 -32 -54 l-39 -32 48 5 c38 5 47 3 47 -10 0 -17 -61 -70 -70 -60 -3 3 1 8 8 10 6 3 10 9 7 13 -7 11 30 32 39 23 3 -3 6 -1 6 5 0 15 -32 15 -65 0 -21 -10 -29 -9 -43 5 -10 10 -12 17 -4 17 13 0 82 58 82 70 0 4 -12 11 -26 14 -78 20 -140 96 -78 96 15 0 47 7 73 17 45 15 48 15 96 -6 43 -19 47 -24 32 -32 -14 -8 -28 -4 -60 15 -30 17 -48 22 -58 15 -12 -7 -12 -9 1 -9 30 -1 71 -48 68 -77 -2 -22 2 -29 18 -31 26 -4 57 39 47 65 -5 15 -3 16 8 6 15 -15 49 -17 49 -4 0 5 -21 34 -46 65 -45 54 -62 69 -49 44 4 -7 0 -4 -9 6 -8 10 -13 22 -11 26 3 4 -4 15 -15 25 -11 10 -20 13 -20 7z m-152 -318 c11 -3 10 -8 -3 -20 -14 -14 -20 -15 -40 -4 -39 21 -40 40 -2 34 18 -3 38 -8 45 -10z m445 -61 c55 -54 71 -81 44 -70 -7 2 -47 12 -90 22 -42 9 -77 21 -77 26 0 16 44 79 55 79 6 0 36 -26 68 -57z"/> <path d="M2871 2166 c-9 -11 -10 -20 -1 -35 6 -12 14 -21 19 -21 16 0 41 38 35 54 -8 20 -37 21 -53 2z"/> <path d="M1255 2138 c-16 -10 -50 -18 -75 -19 -25 0 -40 -3 -33 -6 7 -2 38 -41 69 -86 32 -45 82 -110 111 -145 29 -35 60 -76 68 -92 11 -21 20 -27 36 -23 17 5 20 11 15 32 -6 24 -24 217 -25 269 -1 20 -6 22 -51 22 -41 0 -55 -5 -85 -31 -37 -33 -49 -20 -14 17 13 14 19 32 17 51 l-3 30 -30 -19z m134 -165 c12 -45 21 -99 21 -120 l0 -38 -14 27 c-8 15 -33 47 -55 70 -43 47 -81 94 -81 100 0 3 7 5 15 5 8 0 15 -4 15 -9 0 -11 37 -10 44 1 4 5 2 21 -3 35 -8 20 -7 25 7 28 23 5 27 -3 51 -99z"/> <path d="M2160 2141 c-51 -18 -94 -41 -88 -46 2 -3 31 6 63 19 102 40 128 41 168 6 19 -16 56 -61 82 -99 25 -39 54 -76 63 -83 14 -11 14 -10 -1 12 -10 14 -34 49 -53 78 -20 30 -53 71 -74 93 -32 33 -44 39 -76 38 -22 -1 -59 -9 -84 -18z"/> <path d="M1608 2081 c14 -65 14 -77 -6 -183 -20 -104 -27 -170 -15 -140 2 6 10 12 16 12 7 0 26 25 42 56 17 31 53 77 80 102 28 26 74 80 102 119 l53 73 -45 2 c-25 1 -53 2 -62 2 -13 1 -18 -7 -18 -24 0 -21 5 -26 33 -28 39 -4 33 -22 -8 -22 -31 0 -56 -30 -46 -56 3 -8 2 -14 -2 -14 -4 0 -18 -18 -32 -40 -14 -22 -29 -39 -35 -37 -5 2 -15 -3 -22 -12 -9 -13 -10 -8 -3 24 5 22 16 44 24 51 24 17 39 64 25 80 -19 23 -27 16 -25 -26 1 -54 -18 -56 -22 -1 -4 55 4 79 20 63 22 -22 40 -14 36 15 -2 23 -9 29 -38 34 -19 3 -42 9 -51 13 -14 6 -15 1 -1 -63z"/> <path d="M2791 2133 c-11 -12 -12 -20 -2 -35 8 -13 8 -24 2 -37 -8 -14 -6 -22 8 -35 25 -23 38 -4 37 54 -2 66 -17 85 -45 53z"/> <path d="M472 2100 c-23 -21 -30 -36 -12 -25 13 8 13 -5 0 -25 -9 -13 -10 -13 -10 0 0 13 -1 13 -10 0 -5 -8 -10 -19 -10 -25 0 -5 5 -3 10 5 5 8 10 11 10 6 0 -19 30 18 30 38 0 15 3 17 9 8 6 -11 10 -10 15 4 11 28 -8 36 -32 14z"/> <path d="M2168 2106 c-25 -7 -60 -37 -115 -96 -111 -120 -128 -146 -115 -175 16 -35 57 -58 87 -51 31 8 32 32 5 86 -15 29 -17 45 -11 62 6 13 10 17 10 11 2 -24 3 -28 13 -41 9 -10 18 -5 41 23 31 38 100 79 120 72 7 -3 0 -10 -15 -16 -30 -11 -118 -88 -118 -102 0 -5 6 -9 14 -9 9 0 12 -8 8 -25 -7 -37 21 -23 42 22 19 39 15 53 -9 33 -9 -8 -15 -8 -15 -2 0 17 58 54 71 46 8 -4 9 -3 5 4 -4 7 7 13 31 17 53 9 63 13 63 25 0 5 -6 10 -12 10 -24 0 -39 16 -32 34 6 15 9 15 41 -4 19 -11 39 -17 45 -14 6 4 9 1 6 -7 -3 -8 -13 -13 -22 -13 -9 1 -15 -3 -13 -10 2 -6 18 -11 35 -11 47 0 39 -10 -25 -34 -32 -12 -75 -31 -96 -42 l-38 -20 6 28 c3 15 -3 6 -15 -22 -11 -27 -20 -55 -20 -61 0 -6 -10 -16 -22 -22 -21 -10 -22 -11 -3 -11 11 0 45 13 75 30 30 17 47 28 38 25 -23 -7 -50 3 -42 16 3 5 17 7 31 3 16 -4 22 -2 18 5 -3 5 2 10 13 10 11 0 25 7 32 15 7 8 19 15 26 15 8 0 14 4 14 8 0 5 11 14 25 20 21 10 27 8 45 -15 17 -22 20 -23 20 -7 0 25 -63 137 -80 142 -7 3 -10 0 -6 -6 4 -6 -2 -8 -14 -5 -11 3 -18 8 -16 12 9 14 -43 10 -55 -5 -7 -8 -42 -29 -78 -45 -36 -16 -76 -39 -88 -51 -13 -12 -23 -17 -23 -12 0 17 66 88 108 118 33 22 44 26 61 17 21 -12 37 0 26 19 -4 7 3 8 21 4 19 -5 25 -4 20 5 -9 14 -69 13 -118 -3z m-149 -257 c1 -13 7 -27 13 -30 5 -3 -5 -6 -21 -7 -25 0 -31 4 -31 19 0 11 -5 17 -10 14 -6 -4 -7 -11 -4 -17 4 -7 2 -8 -4 -4 -28 17 -3 57 32 52 13 -2 22 -12 25 -27z"/> <path d="M1139 2063 c6 -12 8 -29 5 -37 -3 -9 -1 -17 5 -17 21 -3 26 -4 39 -13 19 -11 1 18 -34 59 -18 21 -22 23 -15 8z"/> <path d="M1447 2073 c-13 -12 -7 -22 8 -16 9 3 15 2 14 -3 -1 -5 -1 -16 0 -24 1 -12 4 -11 12 3 15 26 -14 60 -34 40z"/> <path d="M2000 2054 c-14 -7 -24 -20 -22 -29 2 -9 -5 -15 -17 -15 -32 0 -33 -17 -1 -22 17 -3 30 -1 30 4 0 5 4 7 9 3 5 -3 12 -1 16 5 3 5 1 10 -6 10 -8 0 -5 7 6 20 10 11 21 17 25 15 4 -3 13 2 20 10 10 13 9 15 -11 14 -13 -1 -35 -7 -49 -15z"/> <path d="M280 2030 c-12 -7 -8 -11 18 -16 38 -8 43 -24 6 -24 -14 0 -23 4 -19 10 9 15 -4 12 -20 -3 -11 -12 -8 -17 17 -32 17 -10 28 -13 24 -6 -4 6 -1 11 7 11 8 0 20 6 26 14 10 12 8 19 -8 35 -24 24 -30 25 -51 11z"/> <path d="M486 1999 c-23 -56 -48 -148 -43 -162 6 -15 20 17 48 111 23 76 20 110 -5 51z"/> <path d="M1452 1940 c-1 -36 3 -83 8 -105 7 -34 8 -30 7 35 -1 100 -14 160 -15 70z"/> <path d="M1220 1983 c0 -11 44 -73 106 -149 23 -29 45 -62 49 -73 3 -12 16 -26 28 -32 21 -11 21 -11 6 7 -9 10 -23 33 -32 49 -8 17 -45 68 -82 115 -80 101 -75 96 -75 83z"/> <path d="M1870 1929 c-19 -23 -26 -40 -20 -44 14 -8 68 4 76 17 4 6 -1 8 -15 3 -34 -11 -24 2 24 31 25 14 45 27 45 28 0 1 -18 2 -40 2 -35 1 -44 -3 -70 -37z"/> <path d="M2675 1948 c-11 -6 -21 -12 -22 -12 -1 -1 4 -19 11 -41 12 -33 15 -35 20 -18 4 12 13 24 21 27 18 7 19 30 2 44 -8 7 -18 7 -32 0z"/> <path d="M2604 1935 c4 -11 10 -36 13 -55 3 -19 10 -40 14 -46 5 -6 6 -14 2 -17 -3 -4 -1 -7 5 -7 7 0 12 7 12 16 0 33 -23 104 -38 116 -14 11 -15 10 -8 -7z"/> <path d="M2445 1890 c35 -57 39 -61 30 -30 -4 14 -18 36 -32 50 -25 25 -25 25 2 -20z"/> <path d="M2815 1920 c13 -22 43 -30 55 -16 9 12 7 13 -9 9 -12 -3 -21 -1 -21 6 0 6 -7 11 -16 11 -8 0 -12 -4 -9 -10z"/> <path d="M1162 1868 c18 -18 49 -51 68 -74 42 -49 36 -36 -10 23 -18 24 -30 46 -27 50 12 11 -15 33 -40 33 -24 0 -24 0 9 -32z"/> <path d="M2967 1862 c-10 -10 -17 -23 -17 -29 0 -14 39 -48 46 -40 9 9 -16 38 -27 31 -13 -8 -10 8 5 28 7 10 17 14 21 10 5 -4 5 -1 1 6 -9 16 -10 15 -29 -6z"/> <path d="M1852 1789 c-35 -37 -90 -85 -122 -106 -63 -40 -77 -59 -35 -49 24 6 35 -7 15 -19 -16 -10 -12 -42 6 -49 25 -10 44 -7 41 5 -3 14 237 71 261 62 16 -6 16 -5 1 13 -9 10 -21 34 -29 52 -7 17 -16 32 -21 32 -14 0 -11 -11 8 -32 15 -17 15 -18 -3 -20 -29 -2 -37 -4 -69 -18 -59 -25 -147 -49 -161 -43 -22 8 -17 18 21 50 19 15 60 51 92 78 31 28 59 49 63 48 6 -2 4 58 -2 62 -2 1 -31 -29 -66 -66z"/> <path d="M2320 1830 c0 -5 7 -10 15 -10 10 0 14 -9 13 -26 -3 -31 -21 -48 -45 -40 -29 9 -74 56 -66 69 5 9 3 9 -8 0 -8 -7 -26 -17 -40 -23 -23 -10 -23 -10 4 -5 18 4 26 2 22 -4 -3 -6 0 -9 7 -6 13 5 113 -64 104 -72 -2 -2 -34 12 -72 32 -99 53 -152 40 -98 -24 14 -18 23 -35 19 -39 -6 -7 -38 26 -60 62 -9 14 -14 14 -50 2 -37 -13 -40 -17 -43 -55 -3 -35 0 -42 20 -50 13 -5 39 -6 58 -4 27 3 32 2 20 -7 -12 -8 -7 -10 20 -5 19 2 84 12 143 20 149 21 277 49 277 60 0 1 -11 27 -25 56 -22 47 -27 38 -9 -18 5 -16 4 -16 -8 -3 -7 8 -25 21 -38 29 -14 7 -22 10 -17 5 9 -9 -51 -38 -75 -35 -10 1 -18 -3 -18 -9 0 -6 -4 -8 -10 -5 -5 3 -10 1 -10 -6 0 -7 -3 -9 -6 -6 -4 3 0 21 9 39 9 19 15 42 13 52 -4 26 -46 50 -46 26z m-190 -178 c2 -15 -24 17 -39 48 -17 35 -17 39 -2 42 12 2 19 -9 28 -42 7 -25 12 -46 13 -48z m89 89 c7 -5 11 -13 8 -19 -9 -14 -54 -3 -54 14 0 16 25 18 46 5z m305 -31 c-8 -8 -236 -52 -349 -67 l-40 -5 42 22 c64 33 375 78 347 50z"/> <path d="M392 1795 c-1 -20 -4 -40 -7 -45 -12 -19 -14 -53 -5 -70 6 -11 5 -21 -2 -28 -9 -9 -8 -12 5 -12 11 0 16 8 16 28 0 15 3 50 6 78 4 29 3 59 -2 69 -8 13 -10 9 -11 -20z"/> <path d="M27 1803 c-26 -7 -17 -36 16 -47 21 -8 31 -6 44 6 33 33 -1 56 -60 41z m63 -12 c0 -14 -34 -23 -56 -14 -17 6 -17 8 6 14 37 10 50 10 50 0z"/> <path d="M1940 1792 c0 -6 -7 -18 -16 -26 -14 -15 -13 -16 6 -16 15 0 20 5 17 14 -4 10 0 12 16 8 23 -5 23 -5 -5 17 -11 8 -18 9 -18 3z"/> <path d="M2600 1776 c0 -26 15 -43 24 -28 7 12 -4 52 -15 52 -5 0 -9 -11 -9 -24z"/> <path d="M2705 1740 c3 -14 8 -63 11 -110 4 -47 9 -87 11 -90 10 -10 -5 176 -16 200 l-12 25 6 -25z"/> <path d="M2806 1714 c-20 -20 -31 -41 -40 -76 -5 -21 -2 -30 13 -38 17 -8 27 -4 61 27 43 40 49 62 24 87 -20 20 -38 20 -58 0z m49 -33 c7 -22 5 -23 -19 -17 -26 6 -32 -3 -27 -41 1 -7 -5 -13 -14 -13 -22 0 -19 17 12 66 29 45 36 46 48 5z"/> <path d="M873 1710 c54 -5 135 -16 181 -24 108 -21 119 -19 26 5 -43 11 -124 21 -190 23 l-115 5 98 -9z"/> <path d="M2662 1675 c-2 -24 2 -35 11 -35 9 0 12 10 9 35 -2 19 -7 35 -11 35 -4 0 -8 -16 -9 -35z"/> <path d="M2930 1703 c0 -16 53 -102 64 -103 5 0 3 6 -3 14 -8 10 -9 16 -1 21 15 9 12 51 -5 65 -9 8 -15 9 -15 2 0 -6 5 -14 10 -17 12 -7 14 -45 2 -45 -4 0 -18 17 -30 38 -12 20 -22 32 -22 25z"/> <path d="M623 1653 c-21 -8 -60 -19 -88 -25 -27 -6 -52 -12 -54 -14 -1 -1 4 -12 12 -24 11 -15 16 -18 19 -8 4 10 9 10 24 -3 34 -29 48 -34 41 -15 -6 15 2 16 86 14 74 -2 92 -6 92 -18 0 -8 -10 -19 -22 -25 -27 -11 -31 -29 -5 -21 9 2 31 7 49 11 17 3 37 13 44 21 6 8 29 14 53 14 23 0 46 4 52 10 12 12 176 -17 201 -36 15 -11 5 -12 -66 -11 -82 2 -85 1 -91 -22 -7 -32 -26 -38 -35 -12 -3 12 -15 26 -25 31 -15 8 -22 5 -34 -12 -9 -12 -16 -32 -16 -43 0 -11 -5 -27 -10 -35 -7 -11 -10 -4 -10 27 0 34 -4 43 -22 49 -12 4 -24 2 -25 -3 -2 -5 -17 -7 -33 -5 -18 3 -30 0 -30 -7 0 -6 10 -11 23 -11 41 0 67 -12 67 -31 0 -22 -28 -38 -77 -45 -20 -2 -39 -6 -41 -9 -5 -5 -36 33 -45 55 -5 13 -6 12 -6 -1 -1 -9 6 -22 14 -29 24 -20 18 -44 -15 -63 -25 -15 -30 -16 -30 -3 0 20 -20 31 -30 16 -10 -16 -33 -2 -26 16 3 8 1 14 -5 14 -7 0 -9 -10 -5 -26 4 -16 3 -23 -3 -20 -23 15 -19 -15 4 -30 24 -16 28 -15 83 6 84 33 312 110 325 110 6 0 21 10 33 21 16 15 43 24 86 29 35 4 90 15 122 25 51 15 57 19 43 30 -39 28 -275 55 -504 57 -122 1 -220 6 -217 10 3 4 39 8 81 8 54 0 79 4 87 14 16 21 154 27 141 6 -9 -14 -62 -12 -68 3 -4 9 -8 9 -14 1 -4 -7 -19 -14 -33 -17 -14 -2 9 -5 51 -6 42 0 118 -3 170 -6 61 -3 83 -1 64 4 l-30 9 32 1 c17 0 39 -2 49 -6 16 -6 16 -7 -2 -14 -18 -7 -17 -8 3 -8 32 -1 37 16 10 34 -16 10 -68 19 -157 25 -166 13 -237 11 -287 -7z m57 -13 c0 -5 -14 -10 -31 -10 -17 0 -28 4 -24 10 3 6 17 10 31 10 13 0 24 -4 24 -10z m268 -8 c4 -14 -34 -16 -42 -3 -6 10 13 21 28 17 6 -1 12 -8 14 -14z"/> <path d="M2245 1623 c-55 -7 -149 -22 -210 -32 -90 -15 -101 -19 -60 -20 28 0 100 8 160 18 61 11 136 22 168 26 31 4 60 11 63 16 6 11 7 11 -121 -8z"/> <path d="M1467 1623 c-16 -15 -6 -34 15 -31 29 4 38 38 10 38 -10 0 -22 -3 -25 -7z"/> <path d="M1995 1609 c-195 -31 -226 -37 -195 -37 19 -1 96 10 170 22 74 13 122 24 105 24 -16 0 -52 -4 -80 -9z"/> <path d="M2678 1540 c4 -72 16 -95 20 -37 3 39 -7 107 -16 107 -4 0 -6 -31 -4 -70z"/> <path d="M1505 1560 c-3 -5 2 -10 12 -10 11 0 24 -5 31 -12 7 -7 12 -8 12 -2 0 26 -42 44 -55 24z"/> <path d="M2290 1560 c-14 -4 -20 -9 -15 -10 6 -1 -6 -6 -25 -10 -38 -9 -53 -4 -30 10 9 6 10 10 3 10 -6 0 -18 -6 -26 -14 -10 -10 -27 -13 -57 -9 -29 4 -41 3 -37 -4 4 -6 0 -16 -8 -23 -12 -10 -15 -10 -15 2 0 11 -11 14 -46 12 -47 -3 -76 -14 -36 -14 12 0 22 -4 22 -10 0 -5 -8 -10 -17 -10 -10 0 -25 -5 -33 -10 -11 -7 0 -10 37 -10 43 0 51 3 47 15 -4 8 -1 15 5 15 6 0 11 -4 11 -10 0 -5 7 -10 15 -10 8 0 15 4 15 9 0 4 12 6 26 3 20 -4 25 -2 19 8 -5 9 -4 11 4 6 6 -4 53 -3 104 3 50 6 128 14 172 17 55 5 74 9 60 15 -11 4 -32 8 -47 8 -16 1 -28 6 -28 11 0 12 -84 12 -120 0z"/> <path d="M393 1484 c-3 -78 10 -100 21 -36 9 57 7 89 -6 100 -10 8 -14 -6 -15 -64z"/> <path d="M2908 1499 c-32 -32 -64 -59 -70 -60 -7 -1 5 -5 26 -10 31 -7 43 -6 56 6 23 21 39 19 61 -7 10 -13 18 -18 19 -11 0 6 -5 13 -12 15 -7 3 -8 9 -3 19 5 7 11 34 13 58 3 39 2 43 -11 33 -8 -7 -13 -22 -10 -32 3 -13 -1 -22 -11 -26 -26 -10 -30 3 -12 31 33 51 10 43 -46 -16z"/> <path d="M521 1508 c0 -33 2 -38 9 -23 12 28 12 65 0 65 -5 0 -10 -19 -9 -42z"/> <path d="M2521 1523 c44 -11 37 -138 -18 -311 l-16 -52 -26 17 c-41 27 -125 73 -135 73 -19 0 21 -33 79 -65 70 -40 90 -43 104 -17 19 36 54 218 55 289 l1 73 -30 -1 c-16 -1 -23 -3 -14 -6z"/> <path d="M100 1494 c-11 -12 -10 -18 3 -31 8 -9 23 -13 31 -10 21 8 21 43 0 51 -21 8 -20 8 -34 -10z"/> <path d="M2390 1504 c-8 -1 -41 -6 -72 -9 -54 -6 -57 -8 -45 -26 8 -14 18 -18 32 -14 103 32 137 37 160 25 13 -7 28 -9 34 -6 6 4 11 2 11 -4 0 -6 5 -8 10 -5 6 3 10 15 10 26 0 17 -7 19 -62 18 -35 -1 -70 -3 -78 -5z"/> <path d="M2629 1498 c-1 -2 -3 -39 -4 -83 -4 -92 -17 -158 -46 -232 -12 -30 -18 -61 -14 -70 7 -19 31 36 61 142 20 68 30 230 15 239 -6 4 -12 6 -12 4z"/> <path d="M478 1438 c-11 -40 -12 -63 -5 -93 6 -22 10 -52 10 -67 0 -15 6 -29 14 -32 28 -11 453 151 453 172 0 6 -41 -8 -90 -29 -50 -22 -94 -39 -99 -39 -14 0 -192 -69 -223 -85 -38 -22 -42 -19 -19 14 27 37 26 39 -5 51 -26 10 -26 11 -19 85 4 41 5 75 2 75 -2 0 -11 -24 -19 -52z"/> <path d="M2185 1475 c-5 -2 -41 -7 -80 -10 l-70 -7 25 -20 c14 -11 34 -18 47 -15 12 2 20 0 17 -4 -8 -14 65 -22 80 -10 11 9 15 9 18 -1 6 -18 38 8 38 31 -1 13 -3 13 -15 -3 -18 -23 -20 -14 -4 16 10 18 9 20 -5 15 -9 -4 -16 -2 -16 3 0 10 -15 12 -35 5z"/> <path d="M2726 1458 c-7 -26 -8 -124 -2 -117 4 3 11 57 15 104 1 6 10 -5 21 -22 21 -35 30 -41 30 -20 0 6 -13 27 -29 45 -28 31 -29 32 -35 10z"/> <path d="M557 1463 c-4 -3 -7 -16 -7 -29 0 -20 2 -21 25 -11 28 14 33 32 9 41 -19 7 -19 7 -27 -1z"/> <path d="M1914 1458 c-6 -9 1 -12 66 -33 92 -29 226 -98 223 -114 -3 -12 54 -44 66 -37 4 3 43 -8 86 -24 112 -42 152 -35 154 25 1 19 0 18 -14 -2 -13 -18 -22 -21 -67 -16 -31 2 -58 11 -65 20 -6 8 -15 13 -20 10 -4 -3 -23 1 -40 8 -30 13 -32 16 -22 44 6 16 18 32 26 35 14 6 14 8 -3 21 -33 25 -44 18 -44 -25 0 -22 -4 -40 -9 -40 -4 0 -24 11 -43 24 -19 13 -65 33 -101 45 -43 15 -68 29 -72 41 -4 14 -18 19 -61 22 -31 1 -58 0 -60 -4z"/> <path d="M2322 1449 c-28 -8 -31 -12 -22 -29 13 -24 35 -27 26 -4 -4 10 4 19 27 29 36 16 19 18 -31 4z"/> <path d="M1470 1421 c-15 -30 -12 -51 8 -51 25 0 42 19 42 47 0 29 -35 32 -50 4z"/> <path d="M1667 1423 c-17 -16 -2 -41 66 -107 75 -74 149 -176 145 -197 -5 -23 29 -20 58 5 24 20 27 28 18 43 -16 27 -44 29 -51 4 -6 -23 -18 -27 -28 -10 -4 5 1 19 10 29 21 24 10 43 -21 37 -13 -2 -24 0 -24 5 0 5 -9 19 -21 31 -30 32 -42 57 -28 57 16 0 96 -46 132 -76 16 -14 34 -21 44 -17 10 4 14 2 9 -5 -8 -13 31 -52 52 -52 8 0 25 9 39 20 35 27 51 13 19 -17 -30 -28 -31 -31 -10 -61 19 -27 32 -28 95 -1 69 30 75 15 6 -17 -32 -14 -57 -31 -57 -37 0 -7 -12 -23 -26 -36 -14 -13 -34 -42 -45 -63 -18 -35 -18 -41 -4 -67 8 -17 19 -33 25 -36 5 -3 10 -13 10 -22 0 -10 -12 -1 -30 23 -35 46 -38 84 -9 130 30 49 15 60 -31 24 -37 -29 -60 -38 -60 -22 0 4 16 20 35 35 40 32 43 47 16 71 -17 16 -24 16 -58 5 -21 -8 -50 -21 -65 -30 l-28 -16 61 -87 c63 -91 147 -179 161 -170 5 3 7 2 6 -3 -4 -12 43 -101 62 -118 16 -14 25 -7 108 79 50 52 104 114 120 138 33 48 72 122 72 137 0 5 -16 18 -36 30 -19 12 -32 17 -29 11 11 -17 -3 -11 -72 34 -104 67 -249 142 -341 175 -92 33 -225 101 -258 132 -22 21 -27 22 -37 12z m490 -268 c5 -18 -14 -37 -34 -33 -17 2 -19 7 -12 26 9 23 39 28 46 7z m149 -75 c24 -17 44 -34 44 -38 0 -4 11 -8 25 -8 22 -2 24 0 13 14 -12 14 -11 14 10 1 16 -10 21 -20 18 -34 -12 -48 -85 -151 -150 -212 -39 -37 -80 -79 -92 -95 l-21 -28 -12 26 c-6 15 -10 27 -9 28 86 36 184 124 212 191 7 17 23 38 34 48 11 11 18 25 16 32 -3 8 -17 1 -40 -22 -19 -18 -32 -38 -29 -43 4 -6 -1 -13 -9 -16 -9 -3 -16 -13 -16 -20 0 -8 -7 -17 -16 -21 -9 -3 -40 -30 -68 -60 -39 -39 -59 -53 -80 -53 -22 0 -27 4 -22 17 4 9 3 19 -2 22 -4 3 -20 29 -34 56 -26 51 -25 77 5 97 18 11 103 -71 99 -95 -3 -18 -2 -19 12 -8 9 7 16 17 16 21 0 4 -26 32 -57 63 -49 47 -55 58 -44 71 12 14 16 11 40 -23 52 -75 81 -107 81 -88 0 9 -5 17 -11 17 -5 0 -8 4 -4 9 3 5 1 13 -5 16 -6 4 -1 14 12 25 20 16 21 20 8 35 -9 11 -24 15 -43 12 -19 -2 -31 1 -34 10 -8 20 36 63 63 63 13 0 26 5 29 10 9 14 12 13 61 -20z m-375 -63 c7 -18 37 -68 67 -112 50 -74 51 -77 17 -45 -42 41 -125 170 -125 195 0 25 24 3 41 -38z"/> <path d="M1173 1411 c-28 -4 -55 -10 -60 -15 -4 -5 2 -7 15 -3 38 9 24 -11 -25 -38 -27 -14 -37 -23 -23 -19 34 9 179 83 160 82 -8 0 -38 -4 -67 -7z"/> <path d="M1940 1416 c0 -2 21 -11 48 -21 26 -10 61 -28 77 -40 17 -13 41 -28 55 -35 l25 -13 -20 22 c-28 32 -185 106 -185 87z"/> <path d="M1265 1401 c-23 -22 -202 -92 -311 -122 -66 -18 -148 -47 -184 -64 -36 -18 -89 -41 -117 -50 -57 -18 -71 -29 -25 -20 l27 6 -28 -16 c-39 -22 -27 -31 15 -11 77 35 221 86 229 80 5 -3 4 -14 -2 -27 -9 -16 -9 -22 0 -25 18 -6 13 -24 -19 -71 -32 -47 -39 -71 -15 -51 8 7 15 16 15 21 0 5 13 27 29 49 30 41 31 69 6 100 -27 34 -26 43 2 18 20 -20 40 -28 64 -28 44 0 59 15 52 51 -6 32 10 40 25 13 8 -14 18 -11 77 20 96 50 110 45 48 -14 -28 -28 -55 -59 -58 -70 -5 -16 -9 -18 -26 -7 -43 27 -88 -39 -81 -120 3 -35 1 -53 -7 -53 -6 0 -11 17 -11 38 -1 92 -65 84 -113 -15 -21 -44 -3 -42 25 2 15 23 31 35 46 35 19 0 22 -5 22 -39 0 -31 -7 -47 -34 -75 l-33 -36 -44 19 c-24 11 -56 37 -71 57 -29 39 -37 39 -16 1 15 -29 45 -55 91 -78 20 -11 37 -23 37 -28 0 -12 -79 -58 -113 -66 -15 -4 -27 -14 -27 -22 0 -18 -123 129 -143 171 -8 17 -24 55 -35 85 l-21 53 27 27 c15 16 57 37 95 50 37 12 89 34 115 50 26 16 65 32 87 36 75 12 186 48 174 56 -8 4 -4 9 10 14 41 13 20 20 -57 19 -83 0 -116 -14 -159 -63 -12 -15 -22 -22 -23 -17 0 5 -7 3 -15 -4 -8 -6 -18 -9 -24 -6 -13 8 -61 -11 -61 -25 0 -7 9 -9 26 -5 14 4 23 3 20 -2 -6 -10 -65 -32 -131 -50 -22 -7 -55 -26 -73 -45 l-32 -33 34 -86 c23 -58 54 -112 100 -171 36 -47 66 -89 66 -94 0 -4 8 -18 18 -30 l17 -23 43 40 c24 22 40 45 36 51 -4 7 -21 -3 -44 -26 -32 -31 -38 -34 -44 -19 -4 9 -5 18 -4 19 2 1 23 13 48 27 54 31 169 157 287 316 48 64 120 150 160 190 40 41 73 80 73 88 0 16 -31 19 -45 5z m-324 -92 c-13 -10 -33 -19 -45 -19 -19 1 -18 4 13 31 25 23 36 28 45 19 8 -9 5 -16 -13 -31z m133 -157 c2 -4 1 -14 -4 -22 -7 -11 -12 -12 -21 -3 -6 6 -8 16 -5 22 8 13 23 14 30 3z"/> <path d="M108 1389 c-10 -5 -18 -16 -18 -23 0 -8 -9 -16 -20 -19 -28 -7 -36 -35 -16 -55 16 -16 19 -15 39 8 12 14 35 31 50 38 21 9 28 18 25 35 -3 25 -33 33 -60 16z m41 -25 c-12 -15 -49 -20 -49 -6 0 10 43 29 53 24 4 -2 3 -10 -4 -18z"/> <path d="M1780 1380 c39 -29 180 -86 242 -96 14 -3 48 -16 74 -29 31 -16 52 -21 58 -15 12 12 18 7 -81 58 -88 45 -113 51 -113 27 0 -11 -5 -13 -17 -6 -19 9 -149 64 -167 69 -6 2 -4 -2 4 -8z"/> <path d="M390 1290 c0 -27 5 -50 10 -50 6 0 10 23 10 50 0 28 -4 50 -10 50 -5 0 -10 -22 -10 -50z"/> <path d="M1740 1272 c0 -5 23 -42 50 -83 28 -41 50 -84 50 -96 0 -13 4 -23 10 -23 18 0 1 60 -31 107 -43 63 -79 107 -79 95z"/> <path d="M1331 1170 c-34 -49 -66 -92 -72 -96 -18 -11 -129 -156 -124 -163 2 -4 22 -13 44 -21 67 -22 100 8 37 34 -36 15 -65 46 -30 32 44 -18 81 -18 97 -1 9 9 17 21 17 26 0 16 -32 23 -51 10 -30 -18 -22 2 12 35 29 27 31 27 25 7 -8 -27 6 -30 28 -7 21 20 21 41 1 24 -20 -17 -19 -8 6 44 22 48 55 83 66 72 4 -4 1 -32 -6 -64 -7 -31 -16 -72 -18 -89 -3 -18 -9 -33 -13 -33 -4 0 -13 -14 -19 -31 -9 -27 -8 -33 14 -55 34 -34 58 -33 44 3 -11 29 1 158 22 237 11 40 4 126 -10 126 -4 0 -36 -40 -70 -90z"/> <path d="M1561 1236 c-10 -12 -11 -45 -6 -143 6 -99 4 -141 -8 -184 l-14 -56 51 15 c61 17 76 28 76 54 0 43 -58 33 -72 -13 -4 -14 -5 -3 -2 26 7 70 7 70 0 165 -6 70 -5 81 5 65 7 -11 20 -27 29 -35 16 -14 37 -60 57 -125 7 -22 15 -29 30 -28 11 1 29 -7 38 -17 20 -22 14 -25 -17 -9 -28 15 -41 -1 -29 -34 9 -24 16 -27 61 -27 27 0 50 2 50 4 0 12 -48 87 -93 144 -26 35 -64 89 -82 120 -54 92 -59 97 -74 78z"/> <path d="M1299 1178 c-29 -35 -56 -66 -59 -71 -4 -4 -17 -10 -30 -12 -24 -5 -75 -48 -91 -77 -8 -14 -6 -16 8 -11 16 6 16 4 -1 -15 -11 -12 -25 -22 -31 -22 -7 0 -38 -28 -69 -61 l-56 -62 22 -18 c26 -24 27 -24 21 1 -3 11 0 20 6 20 5 0 16 11 23 24 7 13 44 57 82 97 38 41 66 67 61 59 -16 -29 65 54 92 94 15 23 40 58 56 79 45 59 24 43 -34 -25z"/> <path d="M2690 1218 c0 -26 -62 -201 -96 -272 -19 -39 -60 -104 -92 -146 -75 -98 -272 -296 -342 -342 -323 -211 -723 -254 -1075 -116 -164 64 -280 126 -365 195 -135 109 -233 237 -301 393 -16 36 -28 60 -29 53 -1 -29 84 -198 126 -253 155 -199 259 -276 524 -388 189 -80 228 -87 470 -87 l215 0 115 37 c136 44 247 99 350 174 102 74 122 93 226 215 133 155 202 260 228 348 8 27 20 60 27 73 7 13 14 28 14 33 1 6 5 27 9 48 5 21 6 41 2 44 -3 4 -6 0 -6 -9z"/> <path d="M2894 1215 c-4 -9 -2 -21 4 -27 15 -15 44 -1 40 19 -4 23 -36 29 -44 8z"/> <path d="M0 1201 c0 -6 7 -11 15 -11 20 0 19 -17 -2 -29 -22 -12 -12 -24 11 -15 23 9 17 58 -6 62 -10 2 -18 -1 -18 -7z"/> <path d="M370 1199 c1 -8 7 -27 15 -44 13 -29 13 -29 14 -5 0 14 -6 34 -14 44 -11 14 -15 16 -15 5z"/> <path d="M1170 1199 c0 -6 -26 -41 -58 -77 -32 -37 -75 -90 -94 -117 -20 -28 -46 -59 -58 -70 -12 -11 -32 -33 -43 -50 -12 -17 7 -4 41 30 34 33 75 80 91 105 16 25 52 70 80 100 28 30 51 63 51 72 0 10 -2 18 -5 18 -3 0 -5 -5 -5 -11z"/> <path d="M434 1130 c3 -16 9 -43 12 -60 3 -16 10 -30 15 -30 12 0 11 77 -1 101 -16 30 -32 23 -26 -11z"/> <path d="M1686 1118 c15 -24 47 -64 71 -91 49 -53 87 -127 73 -141 -5 -5 -28 -12 -51 -15 -46 -6 -66 -31 -27 -32 25 -1 111 -37 91 -38 -7 -1 -33 4 -58 11 -103 28 -72 -63 46 -134 28 -17 26 -12 -18 30 -29 28 -53 55 -53 60 0 19 25 29 55 21 23 -6 40 -25 70 -74 22 -36 43 -65 48 -65 4 0 7 -11 7 -25 0 -15 -6 -25 -14 -25 -7 0 -40 -12 -72 -26 -90 -39 -97 -42 -124 -42 -13 -1 -30 -9 -37 -18 -12 -17 -14 -17 -28 2 -10 13 -17 15 -22 8 -5 -6 -28 -10 -53 -10 l-45 1 1 62 c2 95 8 108 53 123 52 17 66 10 84 -42 20 -55 22 -27 3 36 -13 41 -13 46 1 44 22 -4 29 20 8 28 -9 4 -39 -8 -74 -30 -83 -51 -95 -45 -21 10 51 39 61 51 58 73 -3 23 -8 26 -48 29 -25 1 -51 -2 -59 -7 -12 -8 -27 -172 -30 -333 -1 -16 -6 -28 -12 -28 -5 0 -7 5 -4 10 3 6 3 16 -2 23 -9 14 -21 -46 -15 -80 5 -27 18 -28 141 -12 158 22 389 104 405 145 4 9 0 24 -8 33 -7 9 -23 35 -35 59 -12 24 -45 77 -73 119 -50 74 -88 159 -88 196 0 11 -27 45 -59 77 -32 31 -67 69 -76 84 -29 44 -37 29 -9 -16z m230 -365 c43 -71 84 -138 92 -150 8 -13 12 -23 10 -23 -10 0 -188 276 -188 292 0 18 12 2 86 -119z m-296 57 c13 -9 10 -14 -15 -35 -34 -28 -51 -20 -41 19 7 27 29 33 56 16z m350 -236 c0 -11 6 -15 20 -11 11 3 17 1 14 -4 -3 -6 -13 -9 -23 -7 -9 2 -28 -4 -42 -13 -77 -48 -377 -113 -418 -89 -22 12 -9 15 112 29 104 12 255 58 297 91 31 24 40 25 40 4z"/> <path d="M1415 1073 c-3 -27 -8 -61 -11 -78 -3 -25 -3 -26 5 -9 11 25 26 134 18 134 -3 0 -9 -21 -12 -47z"/> <path d="M2536 1074 c-20 -20 -21 -44 -1 -44 13 0 35 36 35 56 0 9 -20 3 -34 -12z"/> <path d="M590 1026 c0 -9 7 -29 15 -44 30 -56 30 -56 64 -31 17 12 31 29 31 36 0 18 -19 16 -26 -2 -12 -30 -65 -5 -70 32 -4 22 -14 29 -14 9z"/> <path d="M460 1020 c0 -9 4 -20 10 -26 5 -5 27 -45 48 -89 43 -87 151 -236 194 -268 39 -29 49 -11 12 21 -53 46 -175 219 -193 273 -13 41 -70 112 -71 89z"/> <path d="M2472 921 c-12 -21 -42 -62 -67 -89 -44 -48 -55 -72 -36 -72 15 0 151 174 151 192 0 22 -29 3 -48 -31z"/> <path d="M720 925 c-10 -12 -10 -19 -2 -27 9 -9 12 -9 12 1 0 21 44 8 55 -16 11 -26 25 -30 25 -9 0 12 -60 66 -73 66 -3 0 -10 -7 -17 -15z"/> <path d="M1502 909 c-19 -30 -28 -145 -12 -164 20 -24 34 -18 17 8 -13 20 -13 32 -1 96 8 41 13 76 11 77 -1 2 -8 -6 -15 -17z"/> <path d="M2957 890 c-10 -12 -13 -27 -9 -42 11 -37 28 -61 41 -57 9 3 5 13 -9 32 l-22 28 21 6 c24 6 27 19 8 38 -12 11 -17 10 -30 -5z"/> <path d="M1079 853 c-65 -87 -181 -223 -191 -223 -5 0 12 27 39 61 71 89 92 121 43 66 -52 -59 -64 -55 -19 7 33 47 34 75 0 40 -24 -27 -41 -59 -41 -79 0 -10 -13 -34 -30 -55 -23 -29 -27 -40 -17 -47 31 -24 295 -141 374 -167 29 -10 55 -22 58 -27 9 -14 52 -11 58 5 3 7 9 35 13 62 4 27 13 63 20 80 7 17 10 34 7 38 -4 3 -1 6 5 6 7 0 11 16 11 38 -1 20 5 74 12 120 10 63 10 85 1 94 -9 9 -12 3 -12 -25 0 -27 -4 -37 -16 -37 -12 0 -14 -4 -7 -12 9 -13 9 -29 -1 -128 -5 -50 -43 -208 -45 -185 -1 14 26 267 31 284 4 16 -72 45 -85 32 -5 -5 1 -27 17 -54 30 -51 49 -107 36 -107 -4 0 -13 14 -19 30 -14 41 -49 90 -65 90 -11 0 -33 -48 -72 -152 -4 -11 -1 -18 6 -18 6 0 9 4 6 8 -8 14 54 134 67 129 19 -6 59 -97 65 -146 l5 -44 -34 6 c-19 4 -54 9 -79 13 -25 4 -80 24 -122 45 -43 22 -91 39 -108 39 -50 0 -46 7 73 143 23 27 50 57 59 67 22 24 48 16 48 -15 0 -20 -7 -25 -42 -33 l-43 -10 38 -1 c46 -1 97 23 97 47 0 11 -17 24 -47 37 -26 11 -50 21 -53 23 -3 1 -22 -19 -41 -45z m-89 -243 c25 -7 86 -29 135 -50 50 -21 116 -44 148 -51 54 -12 57 -14 55 -41 -3 -33 -9 -35 -32 -9 -10 11 -32 23 -48 26 -17 4 -82 29 -146 57 -63 27 -128 52 -143 55 -16 3 -34 12 -41 21 -11 13 -10 14 7 9 11 -3 40 -11 65 -17z"/> <path d="M1306 883 c-15 -16 -3 -45 26 -63 27 -16 34 -17 40 -6 5 8 5 22 2 31 -7 18 -58 47 -68 38z"/> <path d="M2708 803 c14 -5 17 -43 3 -43 -5 0 -12 7 -15 16 -4 9 -9 15 -11 12 -3 -3 -3 -13 1 -22 7 -19 40 -22 47 -3 6 17 -11 47 -26 46 -9 0 -9 -2 1 -6z"/> <path d="M1170 781 l-65 -17 44 -7 44 -8 -6 -47 -5 -47 20 62 c11 34 23 62 26 62 21 -3 42 2 42 11 0 13 -21 11 -100 -9z"/> <path d="M2803 734 c-3 -8 1 -22 9 -30 19 -19 52 3 42 29 -8 21 -43 22 -51 1z"/> <path d="M1711 708 c1 -18 5 -44 9 -58 l8 -25 1 26 c2 39 9 40 62 13 55 -27 68 -19 15 10 -19 10 -45 29 -57 42 -30 32 -39 30 -38 -8z"/> <path d="M2366 713 c-14 -14 -24 -28 -21 -32 3 -3 20 9 38 27 17 18 27 32 21 32 -6 0 -23 -12 -38 -27z"/> <path d="M1471 675 l2 -60 7 50 c4 28 3 54 -1 60 -5 5 -8 -16 -8 -50z"/> <path d="M2275 693 c-9 -16 -33 -43 -53 -61 -33 -30 -35 -33 -12 -27 29 8 100 79 100 100 0 23 -16 17 -35 -12z"/> <path d="M738 570 c12 -11 34 -25 49 -30 l28 -10 -33 30 c-18 16 -40 30 -49 30 -14 0 -13 -3 5 -20z"/> <path d="M870 525 c25 -14 61 -32 80 -41 19 -9 64 -30 100 -46 36 -17 80 -41 98 -55 52 -39 116 -63 184 -68 38 -3 53 -2 38 3 l-25 8 33 12 c17 6 32 13 32 16 0 3 -18 -1 -40 -9 -30 -11 -53 -12 -88 -5 -59 11 -82 20 -82 31 0 5 -9 9 -20 9 -10 0 -24 9 -30 21 -11 19 -140 89 -165 89 -6 0 -32 14 -58 30 -26 17 -60 30 -75 30 -25 -1 -23 -3 18 -25z"/> <path d="M2095 520 c-3 -5 -47 -29 -98 -52 -50 -24 -84 -44 -75 -46 23 -4 188 79 188 95 0 15 -6 17 -15 3z"/> <path d="M2962 458 c-17 -17 -15 -33 3 -18 9 7 18 10 22 6 4 -3 -2 -13 -13 -21 -18 -13 -18 -14 4 -12 18 1 22 6 20 26 -3 28 -19 36 -36 19z"/> <path d="M1845 369 l-40 -20 40 6 c22 4 53 13 70 20 l30 13 -30 0 c-16 0 -48 -9 -70 -19z"/> <path d="M1477 329 c-38 -4 -71 -9 -73 -12 -12 -12 120 -16 149 -4 27 11 29 14 12 18 -11 3 -51 2 -88 -2z"/> <path d="M2257 303 c-12 -12 -7 -41 8 -47 22 -8 49 23 34 40 -12 15 -31 18 -42 7z"/> <path d="M2160 195 c-18 -21 -4 -47 22 -43 29 4 35 34 10 47 -15 8 -23 7 -32 -4z"/> <path d="M711 141 c-7 -13 -6 -24 3 -37 12 -15 16 -16 30 -5 20 17 21 47 0 55 -22 8 -22 8 -33 -13z"/> <path d="M882 148 c-7 -7 -12 -17 -12 -22 0 -6 7 -2 15 8 8 11 18 17 21 13 4 -4 1 -14 -7 -23 -12 -15 -12 -17 1 -12 17 5 20 40 5 45 -6 2 -16 -2 -23 -9z"/> <path d="M2430 125 c-7 -8 -10 -22 -6 -30 6 -17 56 -21 56 -4 0 5 5 7 11 3 6 -3 3 5 -6 20 -20 29 -37 33 -55 11z"/> </g> </svg> 